%TF.GenerationSoftware,KiCad,Pcbnew,8.0.8*%
%TF.CreationDate,2025-02-23T20:19:19+00:00*%
%TF.ProjectId,right_final,72696768-745f-4666-996e-616c2e6b6963,v1.0.0*%
%TF.SameCoordinates,Original*%
%TF.FileFunction,Profile,NP*%
%FSLAX46Y46*%
G04 Gerber Fmt 4.6, Leading zero omitted, Abs format (unit mm)*
G04 Created by KiCad (PCBNEW 8.0.8) date 2025-02-23 20:19:19*
%MOMM*%
%LPD*%
G01*
G04 APERTURE LIST*
%TA.AperFunction,Profile*%
%ADD10C,0.150000*%
%TD*%
G04 APERTURE END LIST*
D10*
X281732311Y-190791546D02*
X281732311Y-112816068D01*
X277340661Y-107853215D02*
X251937034Y-104739222D01*
X249729374Y-103907965D02*
X232755601Y-92338999D01*
X230501793Y-91502303D02*
X213424787Y-89569905D01*
X212044801Y-89605528D02*
X193778486Y-92633891D01*
X193685999Y-92648336D02*
X139207214Y-100635480D01*
X134937669Y-105809622D02*
X139607454Y-208549564D01*
X146264530Y-213038147D02*
X183604415Y-199875995D01*
X187603598Y-200171350D02*
X192120370Y-202559327D01*
X195514449Y-203026041D02*
X231131632Y-195321482D01*
X232346577Y-195210944D02*
X250653423Y-195789055D01*
X250811239Y-195791546D02*
X276732311Y-195791546D01*
X277340661Y-107853215D02*
G75*
G02*
X281732311Y-112816068I-608350J-4962853D01*
G01*
X251937034Y-104739221D02*
G75*
G02*
X249729374Y-103907965I608349J4962852D01*
G01*
X230501793Y-91502303D02*
G75*
G02*
X232755601Y-92338999I-562201J-4968293D01*
G01*
X212044801Y-89605528D02*
G75*
G02*
X213424787Y-89569905I817784J-4932669D01*
G01*
X193778486Y-92633891D02*
G75*
G02*
X193685999Y-92648336I-817785J4932670D01*
G01*
X134937669Y-105809623D02*
G75*
G02*
X139207214Y-100635480I4994843J227029D01*
G01*
X146264529Y-213038146D02*
G75*
G02*
X139607455Y-208549564I-1662232J4715610D01*
G01*
X183604416Y-199875996D02*
G75*
G02*
X187603598Y-200171350I1662232J-4715610D01*
G01*
X195514449Y-203026041D02*
G75*
G02*
X192120370Y-202559327I-1057129J4886970D01*
G01*
X231131632Y-195321483D02*
G75*
G02*
X232346577Y-195210944I1057129J-4886970D01*
G01*
X250811239Y-195791546D02*
G75*
G02*
X250653423Y-195789055I0J5000000D01*
G01*
X281732311Y-190791546D02*
G75*
G02*
X276732311Y-195791546I-5000000J0D01*
G01*
M02*
