%TF.GenerationSoftware,KiCad,Pcbnew,8.0.8*%
%TF.CreationDate,2025-02-23T20:19:19+00:00*%
%TF.ProjectId,right_final,72696768-745f-4666-996e-616c2e6b6963,v1.0.0*%
%TF.SameCoordinates,Original*%
%TF.FileFunction,Legend,Top*%
%TF.FilePolarity,Positive*%
%FSLAX46Y46*%
G04 Gerber Fmt 4.6, Leading zero omitted, Abs format (unit mm)*
G04 Created by KiCad (PCBNEW 8.0.8) date 2025-02-23 20:19:19*
%MOMM*%
%LPD*%
G01*
G04 APERTURE LIST*
%ADD10C,0.150000*%
%ADD11C,0.300000*%
%ADD12C,0.381000*%
%ADD13C,0.200000*%
%ADD14C,0.100000*%
%ADD15C,1.752600*%
%ADD16C,4.000000*%
G04 APERTURE END LIST*
D10*
X154637741Y-103115946D02*
X154318874Y-102777478D01*
X154185386Y-103181937D02*
X154069901Y-102390316D01*
X154069901Y-102390316D02*
X154371471Y-102346322D01*
X154371471Y-102346322D02*
X154452363Y-102373020D01*
X154452363Y-102373020D02*
X154495558Y-102405217D01*
X154495558Y-102405217D02*
X154544253Y-102475110D01*
X154544253Y-102475110D02*
X154560751Y-102588199D01*
X154560751Y-102588199D02*
X154534053Y-102669090D01*
X154534053Y-102669090D02*
X154501856Y-102712286D01*
X154501856Y-102712286D02*
X154431963Y-102760981D01*
X154431963Y-102760981D02*
X154130393Y-102804975D01*
X154906315Y-102845774D02*
X155283277Y-102790781D01*
X154863918Y-103082950D02*
X155012307Y-102252834D01*
X155012307Y-102252834D02*
X155391665Y-103005960D01*
X155464661Y-102186843D02*
X155768627Y-102950967D01*
X155768627Y-102950967D02*
X155836923Y-102363527D01*
X155836923Y-102363527D02*
X156070197Y-102906973D01*
X156070197Y-102906973D02*
X156143193Y-102087856D01*
X154819027Y-104886415D02*
X154738136Y-104859717D01*
X154738136Y-104859717D02*
X154625047Y-104876215D01*
X154625047Y-104876215D02*
X154517458Y-104930409D01*
X154517458Y-104930409D02*
X154453064Y-105016800D01*
X154453064Y-105016800D02*
X154426366Y-105097692D01*
X154426366Y-105097692D02*
X154410667Y-105253976D01*
X154410667Y-105253976D02*
X154427165Y-105367065D01*
X154427165Y-105367065D02*
X154486858Y-105512350D01*
X154486858Y-105512350D02*
X154535553Y-105582244D01*
X154535553Y-105582244D02*
X154621944Y-105646637D01*
X154621944Y-105646637D02*
X154740532Y-105667836D01*
X154740532Y-105667836D02*
X154815924Y-105656837D01*
X154815924Y-105656837D02*
X154923514Y-105602643D01*
X154923514Y-105602643D02*
X154955711Y-105559448D01*
X154955711Y-105559448D02*
X154917216Y-105295574D01*
X154917216Y-105295574D02*
X154766431Y-105317571D01*
X155305975Y-105585347D02*
X155190490Y-104793726D01*
X155190490Y-104793726D02*
X155758330Y-105519355D01*
X155758330Y-105519355D02*
X155642845Y-104727735D01*
X156135292Y-105464362D02*
X156019807Y-104672742D01*
X156019807Y-104672742D02*
X156208288Y-104645245D01*
X156208288Y-104645245D02*
X156326876Y-104666444D01*
X156326876Y-104666444D02*
X156413267Y-104730838D01*
X156413267Y-104730838D02*
X156461962Y-104800731D01*
X156461962Y-104800731D02*
X156521655Y-104946016D01*
X156521655Y-104946016D02*
X156538153Y-105059105D01*
X156538153Y-105059105D02*
X156522454Y-105215389D01*
X156522454Y-105215389D02*
X156495756Y-105296281D01*
X156495756Y-105296281D02*
X156431362Y-105382672D01*
X156431362Y-105382672D02*
X156323773Y-105436866D01*
X156323773Y-105436866D02*
X156135292Y-105464362D01*
X155597247Y-108109741D02*
X155278380Y-107771273D01*
X155144892Y-108175732D02*
X155029407Y-107384111D01*
X155029407Y-107384111D02*
X155330977Y-107340117D01*
X155330977Y-107340117D02*
X155411869Y-107366815D01*
X155411869Y-107366815D02*
X155455064Y-107399012D01*
X155455064Y-107399012D02*
X155503759Y-107468905D01*
X155503759Y-107468905D02*
X155520257Y-107581994D01*
X155520257Y-107581994D02*
X155493559Y-107662885D01*
X155493559Y-107662885D02*
X155461362Y-107706081D01*
X155461362Y-107706081D02*
X155391469Y-107754776D01*
X155391469Y-107754776D02*
X155089899Y-107798770D01*
X155893317Y-108028050D02*
X156011905Y-108049249D01*
X156011905Y-108049249D02*
X156200386Y-108021752D01*
X156200386Y-108021752D02*
X156270279Y-107973057D01*
X156270279Y-107973057D02*
X156302476Y-107929862D01*
X156302476Y-107929862D02*
X156329174Y-107848970D01*
X156329174Y-107848970D02*
X156318176Y-107773578D01*
X156318176Y-107773578D02*
X156269481Y-107703685D01*
X156269481Y-107703685D02*
X156226285Y-107671488D01*
X156226285Y-107671488D02*
X156145394Y-107644790D01*
X156145394Y-107644790D02*
X155989109Y-107629091D01*
X155989109Y-107629091D02*
X155908218Y-107602393D01*
X155908218Y-107602393D02*
X155865022Y-107570196D01*
X155865022Y-107570196D02*
X155816327Y-107500303D01*
X155816327Y-107500303D02*
X155805329Y-107424911D01*
X155805329Y-107424911D02*
X155832026Y-107344019D01*
X155832026Y-107344019D02*
X155864223Y-107300823D01*
X155864223Y-107300823D02*
X155934116Y-107252129D01*
X155934116Y-107252129D02*
X156122598Y-107224632D01*
X156122598Y-107224632D02*
X156241186Y-107245831D01*
X156461864Y-107175139D02*
X156914218Y-107109147D01*
X156803526Y-107933764D02*
X156688041Y-107142143D01*
X155176162Y-109929588D02*
X155555521Y-110682714D01*
X155555521Y-110682714D02*
X155703909Y-109852598D01*
X156524623Y-110464340D02*
X156492427Y-110507536D01*
X156492427Y-110507536D02*
X156384837Y-110561730D01*
X156384837Y-110561730D02*
X156309445Y-110572728D01*
X156309445Y-110572728D02*
X156190857Y-110551530D01*
X156190857Y-110551530D02*
X156104466Y-110487136D01*
X156104466Y-110487136D02*
X156055771Y-110417243D01*
X156055771Y-110417243D02*
X155996078Y-110271957D01*
X155996078Y-110271957D02*
X155979580Y-110158869D01*
X155979580Y-110158869D02*
X155995279Y-110002584D01*
X155995279Y-110002584D02*
X156021976Y-109921693D01*
X156021976Y-109921693D02*
X156086370Y-109835302D01*
X156086370Y-109835302D02*
X156193960Y-109781108D01*
X156193960Y-109781108D02*
X156269352Y-109770109D01*
X156269352Y-109770109D02*
X156387940Y-109791307D01*
X156387940Y-109791307D02*
X156431136Y-109823504D01*
X157316244Y-110348855D02*
X157284047Y-110392051D01*
X157284047Y-110392051D02*
X157176458Y-110446245D01*
X157176458Y-110446245D02*
X157101065Y-110457243D01*
X157101065Y-110457243D02*
X156982477Y-110436045D01*
X156982477Y-110436045D02*
X156896086Y-110371651D01*
X156896086Y-110371651D02*
X156847392Y-110301758D01*
X156847392Y-110301758D02*
X156787698Y-110156472D01*
X156787698Y-110156472D02*
X156771200Y-110043384D01*
X156771200Y-110043384D02*
X156786899Y-109887099D01*
X156786899Y-109887099D02*
X156813597Y-109806208D01*
X156813597Y-109806208D02*
X156877991Y-109719817D01*
X156877991Y-109719817D02*
X156985580Y-109665623D01*
X156985580Y-109665623D02*
X157060973Y-109654624D01*
X157060973Y-109654624D02*
X157179561Y-109675822D01*
X157179561Y-109675822D02*
X157222756Y-109708019D01*
X155806701Y-112404489D02*
X155882093Y-112393491D01*
X155882093Y-112393491D02*
X155962985Y-112420188D01*
X155962985Y-112420188D02*
X156006180Y-112452385D01*
X156006180Y-112452385D02*
X156054875Y-112522278D01*
X156054875Y-112522278D02*
X156114568Y-112667564D01*
X156114568Y-112667564D02*
X156142065Y-112856045D01*
X156142065Y-112856045D02*
X156126366Y-113012329D01*
X156126366Y-113012329D02*
X156099668Y-113093221D01*
X156099668Y-113093221D02*
X156067471Y-113136417D01*
X156067471Y-113136417D02*
X155997578Y-113185111D01*
X155997578Y-113185111D02*
X155922186Y-113196110D01*
X155922186Y-113196110D02*
X155841294Y-113169412D01*
X155841294Y-113169412D02*
X155798098Y-113137215D01*
X155798098Y-113137215D02*
X155749404Y-113067322D01*
X155749404Y-113067322D02*
X155689710Y-112922037D01*
X155689710Y-112922037D02*
X155662214Y-112733555D01*
X155662214Y-112733555D02*
X155677913Y-112577271D01*
X155677913Y-112577271D02*
X155704611Y-112496380D01*
X155704611Y-112496380D02*
X155736807Y-112453184D01*
X155736807Y-112453184D02*
X155806701Y-112404489D01*
X156334448Y-112327499D02*
X156824499Y-112256009D01*
X156824499Y-112256009D02*
X156604620Y-112596073D01*
X156604620Y-112596073D02*
X156717708Y-112579575D01*
X156717708Y-112579575D02*
X156798600Y-112606273D01*
X156798600Y-112606273D02*
X156841795Y-112638470D01*
X156841795Y-112638470D02*
X156890490Y-112708363D01*
X156890490Y-112708363D02*
X156917987Y-112896844D01*
X156917987Y-112896844D02*
X156891289Y-112977736D01*
X156891289Y-112977736D02*
X156859092Y-113020932D01*
X156859092Y-113020932D02*
X156789199Y-113069626D01*
X156789199Y-113069626D02*
X156563022Y-113102622D01*
X156563022Y-113102622D02*
X156482130Y-113075924D01*
X156482130Y-113075924D02*
X156438934Y-113043727D01*
X157693908Y-112937644D02*
X157241554Y-113003635D01*
X157467731Y-112970639D02*
X157352246Y-112179019D01*
X157352246Y-112179019D02*
X157293352Y-112303106D01*
X157293352Y-112303106D02*
X157228958Y-112389497D01*
X157228958Y-112389497D02*
X157159065Y-112438192D01*
X156173366Y-114917884D02*
X156248758Y-114906886D01*
X156248758Y-114906886D02*
X156329650Y-114933583D01*
X156329650Y-114933583D02*
X156372845Y-114965780D01*
X156372845Y-114965780D02*
X156421540Y-115035673D01*
X156421540Y-115035673D02*
X156481233Y-115180959D01*
X156481233Y-115180959D02*
X156508730Y-115369440D01*
X156508730Y-115369440D02*
X156493031Y-115525724D01*
X156493031Y-115525724D02*
X156466333Y-115606616D01*
X156466333Y-115606616D02*
X156434136Y-115649812D01*
X156434136Y-115649812D02*
X156364243Y-115698506D01*
X156364243Y-115698506D02*
X156288851Y-115709505D01*
X156288851Y-115709505D02*
X156207959Y-115682807D01*
X156207959Y-115682807D02*
X156164763Y-115650610D01*
X156164763Y-115650610D02*
X156116069Y-115580717D01*
X156116069Y-115580717D02*
X156056375Y-115435432D01*
X156056375Y-115435432D02*
X156028879Y-115246950D01*
X156028879Y-115246950D02*
X156044578Y-115090666D01*
X156044578Y-115090666D02*
X156071276Y-115009775D01*
X156071276Y-115009775D02*
X156103472Y-114966579D01*
X156103472Y-114966579D02*
X156173366Y-114917884D01*
X156749808Y-114910787D02*
X156782005Y-114867592D01*
X156782005Y-114867592D02*
X156851898Y-114818897D01*
X156851898Y-114818897D02*
X157040379Y-114791401D01*
X157040379Y-114791401D02*
X157121271Y-114818098D01*
X157121271Y-114818098D02*
X157164466Y-114850295D01*
X157164466Y-114850295D02*
X157213161Y-114920188D01*
X157213161Y-114920188D02*
X157224160Y-114995581D01*
X157224160Y-114995581D02*
X157202961Y-115114169D01*
X157202961Y-115114169D02*
X156816598Y-115632515D01*
X156816598Y-115632515D02*
X157306649Y-115561024D01*
X157683611Y-115506031D02*
X157834396Y-115484034D01*
X157834396Y-115484034D02*
X157904289Y-115435339D01*
X157904289Y-115435339D02*
X157936486Y-115392144D01*
X157936486Y-115392144D02*
X157995381Y-115268057D01*
X157995381Y-115268057D02*
X158011080Y-115111773D01*
X158011080Y-115111773D02*
X157967086Y-114810203D01*
X157967086Y-114810203D02*
X157918391Y-114740310D01*
X157918391Y-114740310D02*
X157875195Y-114708113D01*
X157875195Y-114708113D02*
X157794304Y-114681415D01*
X157794304Y-114681415D02*
X157643519Y-114703412D01*
X157643519Y-114703412D02*
X157573626Y-114752107D01*
X157573626Y-114752107D02*
X157541429Y-114795302D01*
X157541429Y-114795302D02*
X157514731Y-114876194D01*
X157514731Y-114876194D02*
X157542227Y-115064675D01*
X157542227Y-115064675D02*
X157590922Y-115134568D01*
X157590922Y-115134568D02*
X157634118Y-115166765D01*
X157634118Y-115166765D02*
X157715009Y-115193463D01*
X157715009Y-115193463D02*
X157865794Y-115171466D01*
X157865794Y-115171466D02*
X157935687Y-115122771D01*
X157935687Y-115122771D02*
X157967884Y-115079576D01*
X157967884Y-115079576D02*
X157994582Y-114998684D01*
X156540031Y-117431280D02*
X156615423Y-117420282D01*
X156615423Y-117420282D02*
X156696315Y-117446979D01*
X156696315Y-117446979D02*
X156739510Y-117479176D01*
X156739510Y-117479176D02*
X156788205Y-117549069D01*
X156788205Y-117549069D02*
X156847898Y-117694355D01*
X156847898Y-117694355D02*
X156875395Y-117882836D01*
X156875395Y-117882836D02*
X156859696Y-118039120D01*
X156859696Y-118039120D02*
X156832998Y-118120012D01*
X156832998Y-118120012D02*
X156800801Y-118163208D01*
X156800801Y-118163208D02*
X156730908Y-118211902D01*
X156730908Y-118211902D02*
X156655516Y-118222901D01*
X156655516Y-118222901D02*
X156574624Y-118196203D01*
X156574624Y-118196203D02*
X156531428Y-118164006D01*
X156531428Y-118164006D02*
X156482734Y-118094113D01*
X156482734Y-118094113D02*
X156423040Y-117948828D01*
X156423040Y-117948828D02*
X156395544Y-117760346D01*
X156395544Y-117760346D02*
X156411243Y-117604062D01*
X156411243Y-117604062D02*
X156437941Y-117523171D01*
X156437941Y-117523171D02*
X156470137Y-117479975D01*
X156470137Y-117479975D02*
X156540031Y-117431280D01*
X157293955Y-117321295D02*
X157369348Y-117310296D01*
X157369348Y-117310296D02*
X157450239Y-117336994D01*
X157450239Y-117336994D02*
X157493435Y-117369191D01*
X157493435Y-117369191D02*
X157542130Y-117439084D01*
X157542130Y-117439084D02*
X157601823Y-117584369D01*
X157601823Y-117584369D02*
X157629319Y-117772850D01*
X157629319Y-117772850D02*
X157613620Y-117929135D01*
X157613620Y-117929135D02*
X157586923Y-118010026D01*
X157586923Y-118010026D02*
X157554726Y-118053222D01*
X157554726Y-118053222D02*
X157484833Y-118101917D01*
X157484833Y-118101917D02*
X157409440Y-118112915D01*
X157409440Y-118112915D02*
X157328548Y-118086218D01*
X157328548Y-118086218D02*
X157285353Y-118054021D01*
X157285353Y-118054021D02*
X157236658Y-117984127D01*
X157236658Y-117984127D02*
X157176965Y-117838842D01*
X157176965Y-117838842D02*
X157149468Y-117650361D01*
X157149468Y-117650361D02*
X157165168Y-117494077D01*
X157165168Y-117494077D02*
X157191865Y-117413185D01*
X157191865Y-117413185D02*
X157224062Y-117369989D01*
X157224062Y-117369989D02*
X157293955Y-117321295D01*
X157870397Y-117314198D02*
X157902594Y-117271002D01*
X157902594Y-117271002D02*
X157972487Y-117222307D01*
X157972487Y-117222307D02*
X158160969Y-117194811D01*
X158160969Y-117194811D02*
X158241860Y-117221509D01*
X158241860Y-117221509D02*
X158285056Y-117253706D01*
X158285056Y-117253706D02*
X158333751Y-117323599D01*
X158333751Y-117323599D02*
X158344749Y-117398991D01*
X158344749Y-117398991D02*
X158323551Y-117517579D01*
X158323551Y-117517579D02*
X157937188Y-118035925D01*
X157937188Y-118035925D02*
X158427238Y-117964435D01*
X157286053Y-120697801D02*
X156833698Y-120763792D01*
X157059876Y-120730797D02*
X156944391Y-119939176D01*
X156944391Y-119939176D02*
X156885496Y-120063263D01*
X156885496Y-120063263D02*
X156821102Y-120149654D01*
X156821102Y-120149654D02*
X156751209Y-120198349D01*
X158039978Y-120587815D02*
X157587623Y-120653807D01*
X157813800Y-120620811D02*
X157698315Y-119829190D01*
X157698315Y-119829190D02*
X157639421Y-119953278D01*
X157639421Y-119953278D02*
X157575027Y-120039669D01*
X157575027Y-120039669D02*
X157505134Y-120088363D01*
X158640721Y-119691708D02*
X158263759Y-119746701D01*
X158263759Y-119746701D02*
X158281056Y-120129162D01*
X158281056Y-120129162D02*
X158313253Y-120085967D01*
X158313253Y-120085967D02*
X158383146Y-120037272D01*
X158383146Y-120037272D02*
X158571627Y-120009776D01*
X158571627Y-120009776D02*
X158652519Y-120036473D01*
X158652519Y-120036473D02*
X158695714Y-120068670D01*
X158695714Y-120068670D02*
X158744409Y-120138564D01*
X158744409Y-120138564D02*
X158771905Y-120327045D01*
X158771905Y-120327045D02*
X158745208Y-120407936D01*
X158745208Y-120407936D02*
X158713011Y-120451132D01*
X158713011Y-120451132D02*
X158643118Y-120499827D01*
X158643118Y-120499827D02*
X158454636Y-120527323D01*
X158454636Y-120527323D02*
X158373745Y-120500625D01*
X158373745Y-120500625D02*
X158330549Y-120468428D01*
X157652718Y-123211197D02*
X157200363Y-123277188D01*
X157426541Y-123244193D02*
X157311056Y-122452572D01*
X157311056Y-122452572D02*
X157252161Y-122576659D01*
X157252161Y-122576659D02*
X157187767Y-122663050D01*
X157187767Y-122663050D02*
X157117874Y-122711745D01*
X158406643Y-123101211D02*
X157954288Y-123167203D01*
X158180465Y-123134207D02*
X158064980Y-122342586D01*
X158064980Y-122342586D02*
X158006086Y-122466674D01*
X158006086Y-122466674D02*
X157941692Y-122553065D01*
X157941692Y-122553065D02*
X157871799Y-122601759D01*
X158555032Y-122271096D02*
X159045082Y-122199605D01*
X159045082Y-122199605D02*
X158825203Y-122539670D01*
X158825203Y-122539670D02*
X158938292Y-122523172D01*
X158938292Y-122523172D02*
X159019184Y-122549869D01*
X159019184Y-122549869D02*
X159062379Y-122582066D01*
X159062379Y-122582066D02*
X159111074Y-122651960D01*
X159111074Y-122651960D02*
X159138570Y-122840441D01*
X159138570Y-122840441D02*
X159111873Y-122921332D01*
X159111873Y-122921332D02*
X159079676Y-122964528D01*
X159079676Y-122964528D02*
X159009783Y-123013223D01*
X159009783Y-123013223D02*
X158783605Y-123046218D01*
X158783605Y-123046218D02*
X158702713Y-123019521D01*
X158702713Y-123019521D02*
X158659518Y-122987324D01*
X158019383Y-125724592D02*
X157567028Y-125790583D01*
X157793206Y-125757588D02*
X157677721Y-124965967D01*
X157677721Y-124965967D02*
X157618826Y-125090054D01*
X157618826Y-125090054D02*
X157554432Y-125176445D01*
X157554432Y-125176445D02*
X157484539Y-125225140D01*
X158773308Y-125614606D02*
X158320953Y-125680598D01*
X158547130Y-125647602D02*
X158431645Y-124855981D01*
X158431645Y-124855981D02*
X158372751Y-124980069D01*
X158372751Y-124980069D02*
X158308357Y-125066460D01*
X158308357Y-125066460D02*
X158238464Y-125115154D01*
X159527232Y-125504621D02*
X159074878Y-125570612D01*
X159301055Y-125537616D02*
X159185570Y-124745996D01*
X159185570Y-124745996D02*
X159126676Y-124870083D01*
X159126676Y-124870083D02*
X159062282Y-124956474D01*
X159062282Y-124956474D02*
X158992389Y-125005169D01*
X158006690Y-127484862D02*
X158082082Y-127473864D01*
X158082082Y-127473864D02*
X158162974Y-127500561D01*
X158162974Y-127500561D02*
X158206169Y-127532758D01*
X158206169Y-127532758D02*
X158254864Y-127602651D01*
X158254864Y-127602651D02*
X158314557Y-127747937D01*
X158314557Y-127747937D02*
X158342054Y-127936418D01*
X158342054Y-127936418D02*
X158326355Y-128092702D01*
X158326355Y-128092702D02*
X158299657Y-128173594D01*
X158299657Y-128173594D02*
X158267460Y-128216790D01*
X158267460Y-128216790D02*
X158197567Y-128265484D01*
X158197567Y-128265484D02*
X158122175Y-128276483D01*
X158122175Y-128276483D02*
X158041283Y-128249785D01*
X158041283Y-128249785D02*
X157998087Y-128217588D01*
X157998087Y-128217588D02*
X157949393Y-128147695D01*
X157949393Y-128147695D02*
X157889699Y-128002410D01*
X157889699Y-128002410D02*
X157862203Y-127813928D01*
X157862203Y-127813928D02*
X157877902Y-127657644D01*
X157877902Y-127657644D02*
X157904600Y-127576753D01*
X157904600Y-127576753D02*
X157936796Y-127533557D01*
X157936796Y-127533557D02*
X158006690Y-127484862D01*
X159139973Y-128128002D02*
X158687618Y-128193994D01*
X158913795Y-128160998D02*
X158798310Y-127369377D01*
X158798310Y-127369377D02*
X158739416Y-127493465D01*
X158739416Y-127493465D02*
X158675022Y-127579856D01*
X158675022Y-127579856D02*
X158605129Y-127628550D01*
X159514539Y-127264891D02*
X159589931Y-127253892D01*
X159589931Y-127253892D02*
X159670823Y-127280590D01*
X159670823Y-127280590D02*
X159714019Y-127312787D01*
X159714019Y-127312787D02*
X159762713Y-127382680D01*
X159762713Y-127382680D02*
X159822407Y-127527966D01*
X159822407Y-127527966D02*
X159849903Y-127716447D01*
X159849903Y-127716447D02*
X159834204Y-127872731D01*
X159834204Y-127872731D02*
X159807506Y-127953623D01*
X159807506Y-127953623D02*
X159775309Y-127996818D01*
X159775309Y-127996818D02*
X159705416Y-128045513D01*
X159705416Y-128045513D02*
X159630024Y-128056511D01*
X159630024Y-128056511D02*
X159549132Y-128029814D01*
X159549132Y-128029814D02*
X159505937Y-127997617D01*
X159505937Y-127997617D02*
X159457242Y-127927724D01*
X159457242Y-127927724D02*
X159397548Y-127782438D01*
X159397548Y-127782438D02*
X159370052Y-127593957D01*
X159370052Y-127593957D02*
X159385751Y-127437673D01*
X159385751Y-127437673D02*
X159412449Y-127356781D01*
X159412449Y-127356781D02*
X159444646Y-127313586D01*
X159444646Y-127313586D02*
X159514539Y-127264891D01*
X143381657Y-103949562D02*
X143457049Y-103938564D01*
X143457049Y-103938564D02*
X143537941Y-103965261D01*
X143537941Y-103965261D02*
X143581136Y-103997458D01*
X143581136Y-103997458D02*
X143629831Y-104067351D01*
X143629831Y-104067351D02*
X143689524Y-104212637D01*
X143689524Y-104212637D02*
X143717021Y-104401118D01*
X143717021Y-104401118D02*
X143701322Y-104557402D01*
X143701322Y-104557402D02*
X143674624Y-104638294D01*
X143674624Y-104638294D02*
X143642427Y-104681490D01*
X143642427Y-104681490D02*
X143572534Y-104730184D01*
X143572534Y-104730184D02*
X143497142Y-104741183D01*
X143497142Y-104741183D02*
X143416250Y-104714485D01*
X143416250Y-104714485D02*
X143373054Y-104682288D01*
X143373054Y-104682288D02*
X143324360Y-104612395D01*
X143324360Y-104612395D02*
X143264666Y-104467110D01*
X143264666Y-104467110D02*
X143237170Y-104278628D01*
X143237170Y-104278628D02*
X143252869Y-104122344D01*
X143252869Y-104122344D02*
X143279567Y-104041453D01*
X143279567Y-104041453D02*
X143311763Y-103998257D01*
X143311763Y-103998257D02*
X143381657Y-103949562D01*
X144135581Y-103839577D02*
X144210974Y-103828578D01*
X144210974Y-103828578D02*
X144291865Y-103855276D01*
X144291865Y-103855276D02*
X144335061Y-103887473D01*
X144335061Y-103887473D02*
X144383756Y-103957366D01*
X144383756Y-103957366D02*
X144443449Y-104102651D01*
X144443449Y-104102651D02*
X144470945Y-104291132D01*
X144470945Y-104291132D02*
X144455246Y-104447417D01*
X144455246Y-104447417D02*
X144428549Y-104528308D01*
X144428549Y-104528308D02*
X144396352Y-104571504D01*
X144396352Y-104571504D02*
X144326459Y-104620199D01*
X144326459Y-104620199D02*
X144251066Y-104631197D01*
X144251066Y-104631197D02*
X144170174Y-104604500D01*
X144170174Y-104604500D02*
X144126979Y-104572303D01*
X144126979Y-104572303D02*
X144078284Y-104502409D01*
X144078284Y-104502409D02*
X144018591Y-104357124D01*
X144018591Y-104357124D02*
X143991094Y-104168643D01*
X143991094Y-104168643D02*
X144006794Y-104012359D01*
X144006794Y-104012359D02*
X144033491Y-103931467D01*
X144033491Y-103931467D02*
X144065688Y-103888271D01*
X144065688Y-103888271D02*
X144135581Y-103839577D01*
X145077987Y-103702094D02*
X144927202Y-103724092D01*
X144927202Y-103724092D02*
X144857309Y-103772786D01*
X144857309Y-103772786D02*
X144825112Y-103815982D01*
X144825112Y-103815982D02*
X144766217Y-103940069D01*
X144766217Y-103940069D02*
X144750518Y-104096353D01*
X144750518Y-104096353D02*
X144794513Y-104397923D01*
X144794513Y-104397923D02*
X144843207Y-104467816D01*
X144843207Y-104467816D02*
X144886403Y-104500013D01*
X144886403Y-104500013D02*
X144967295Y-104526711D01*
X144967295Y-104526711D02*
X145118080Y-104504714D01*
X145118080Y-104504714D02*
X145187973Y-104456019D01*
X145187973Y-104456019D02*
X145220170Y-104412823D01*
X145220170Y-104412823D02*
X145246867Y-104331932D01*
X145246867Y-104331932D02*
X145219371Y-104143451D01*
X145219371Y-104143451D02*
X145170676Y-104073557D01*
X145170676Y-104073557D02*
X145127481Y-104041360D01*
X145127481Y-104041360D02*
X145046589Y-104014663D01*
X145046589Y-104014663D02*
X144895804Y-104036660D01*
X144895804Y-104036660D02*
X144825911Y-104085355D01*
X144825911Y-104085355D02*
X144793714Y-104128550D01*
X144793714Y-104128550D02*
X144767016Y-104209442D01*
X143738216Y-106393691D02*
X143813608Y-106382693D01*
X143813608Y-106382693D02*
X143894500Y-106409390D01*
X143894500Y-106409390D02*
X143937695Y-106441587D01*
X143937695Y-106441587D02*
X143986390Y-106511480D01*
X143986390Y-106511480D02*
X144046083Y-106656766D01*
X144046083Y-106656766D02*
X144073580Y-106845247D01*
X144073580Y-106845247D02*
X144057881Y-107001531D01*
X144057881Y-107001531D02*
X144031183Y-107082423D01*
X144031183Y-107082423D02*
X143998986Y-107125619D01*
X143998986Y-107125619D02*
X143929093Y-107174313D01*
X143929093Y-107174313D02*
X143853701Y-107185312D01*
X143853701Y-107185312D02*
X143772809Y-107158614D01*
X143772809Y-107158614D02*
X143729613Y-107126417D01*
X143729613Y-107126417D02*
X143680919Y-107056524D01*
X143680919Y-107056524D02*
X143621225Y-106911239D01*
X143621225Y-106911239D02*
X143593729Y-106722757D01*
X143593729Y-106722757D02*
X143609428Y-106566473D01*
X143609428Y-106566473D02*
X143636126Y-106485582D01*
X143636126Y-106485582D02*
X143668322Y-106442386D01*
X143668322Y-106442386D02*
X143738216Y-106393691D01*
X144492140Y-106283706D02*
X144567533Y-106272707D01*
X144567533Y-106272707D02*
X144648424Y-106299405D01*
X144648424Y-106299405D02*
X144691620Y-106331602D01*
X144691620Y-106331602D02*
X144740315Y-106401495D01*
X144740315Y-106401495D02*
X144800008Y-106546780D01*
X144800008Y-106546780D02*
X144827504Y-106735261D01*
X144827504Y-106735261D02*
X144811805Y-106891546D01*
X144811805Y-106891546D02*
X144785108Y-106972437D01*
X144785108Y-106972437D02*
X144752911Y-107015633D01*
X144752911Y-107015633D02*
X144683018Y-107064328D01*
X144683018Y-107064328D02*
X144607625Y-107075326D01*
X144607625Y-107075326D02*
X144526733Y-107048629D01*
X144526733Y-107048629D02*
X144483538Y-107016432D01*
X144483538Y-107016432D02*
X144434843Y-106946538D01*
X144434843Y-106946538D02*
X144375150Y-106801253D01*
X144375150Y-106801253D02*
X144347653Y-106612772D01*
X144347653Y-106612772D02*
X144363353Y-106456488D01*
X144363353Y-106456488D02*
X144390050Y-106375596D01*
X144390050Y-106375596D02*
X144422247Y-106332400D01*
X144422247Y-106332400D02*
X144492140Y-106283706D01*
X145257862Y-106518485D02*
X145176971Y-106491787D01*
X145176971Y-106491787D02*
X145133775Y-106459591D01*
X145133775Y-106459591D02*
X145085080Y-106389697D01*
X145085080Y-106389697D02*
X145079581Y-106352001D01*
X145079581Y-106352001D02*
X145106279Y-106271109D01*
X145106279Y-106271109D02*
X145138476Y-106227914D01*
X145138476Y-106227914D02*
X145208369Y-106179219D01*
X145208369Y-106179219D02*
X145359154Y-106157222D01*
X145359154Y-106157222D02*
X145440045Y-106183920D01*
X145440045Y-106183920D02*
X145483241Y-106216117D01*
X145483241Y-106216117D02*
X145531936Y-106286010D01*
X145531936Y-106286010D02*
X145537435Y-106323706D01*
X145537435Y-106323706D02*
X145510737Y-106404598D01*
X145510737Y-106404598D02*
X145478540Y-106447793D01*
X145478540Y-106447793D02*
X145408647Y-106496488D01*
X145408647Y-106496488D02*
X145257862Y-106518485D01*
X145257862Y-106518485D02*
X145187969Y-106567180D01*
X145187969Y-106567180D02*
X145155772Y-106610375D01*
X145155772Y-106610375D02*
X145129074Y-106691267D01*
X145129074Y-106691267D02*
X145151072Y-106842052D01*
X145151072Y-106842052D02*
X145199766Y-106911945D01*
X145199766Y-106911945D02*
X145242962Y-106944142D01*
X145242962Y-106944142D02*
X145323854Y-106970840D01*
X145323854Y-106970840D02*
X145474639Y-106948843D01*
X145474639Y-106948843D02*
X145544532Y-106900148D01*
X145544532Y-106900148D02*
X145576729Y-106856952D01*
X145576729Y-106856952D02*
X145603426Y-106776061D01*
X145603426Y-106776061D02*
X145581429Y-106625276D01*
X145581429Y-106625276D02*
X145532734Y-106555383D01*
X145532734Y-106555383D02*
X145489539Y-106523186D01*
X145489539Y-106523186D02*
X145408647Y-106496488D01*
X144384358Y-108975555D02*
X144303467Y-108948857D01*
X144303467Y-108948857D02*
X144190378Y-108965355D01*
X144190378Y-108965355D02*
X144082789Y-109019549D01*
X144082789Y-109019549D02*
X144018395Y-109105940D01*
X144018395Y-109105940D02*
X143991697Y-109186832D01*
X143991697Y-109186832D02*
X143975998Y-109343116D01*
X143975998Y-109343116D02*
X143992496Y-109456205D01*
X143992496Y-109456205D02*
X144052189Y-109601490D01*
X144052189Y-109601490D02*
X144100884Y-109671384D01*
X144100884Y-109671384D02*
X144187275Y-109735777D01*
X144187275Y-109735777D02*
X144305863Y-109756976D01*
X144305863Y-109756976D02*
X144381255Y-109745977D01*
X144381255Y-109745977D02*
X144488845Y-109691783D01*
X144488845Y-109691783D02*
X144521042Y-109648588D01*
X144521042Y-109648588D02*
X144482547Y-109384714D01*
X144482547Y-109384714D02*
X144331762Y-109406711D01*
X144871306Y-109674487D02*
X144755821Y-108882866D01*
X144755821Y-108882866D02*
X145323661Y-109608495D01*
X145323661Y-109608495D02*
X145208176Y-108816875D01*
X145700623Y-109553502D02*
X145585138Y-108761882D01*
X145585138Y-108761882D02*
X145773619Y-108734385D01*
X145773619Y-108734385D02*
X145892207Y-108755584D01*
X145892207Y-108755584D02*
X145978598Y-108819978D01*
X145978598Y-108819978D02*
X146027293Y-108889871D01*
X146027293Y-108889871D02*
X146086986Y-109035156D01*
X146086986Y-109035156D02*
X146103484Y-109148245D01*
X146103484Y-109148245D02*
X146087785Y-109304529D01*
X146087785Y-109304529D02*
X146061087Y-109385421D01*
X146061087Y-109385421D02*
X145996693Y-109471812D01*
X145996693Y-109471812D02*
X145889104Y-109526006D01*
X145889104Y-109526006D02*
X145700623Y-109553502D01*
X144751023Y-111488950D02*
X144670132Y-111462252D01*
X144670132Y-111462252D02*
X144557043Y-111478750D01*
X144557043Y-111478750D02*
X144449454Y-111532944D01*
X144449454Y-111532944D02*
X144385060Y-111619335D01*
X144385060Y-111619335D02*
X144358362Y-111700227D01*
X144358362Y-111700227D02*
X144342663Y-111856511D01*
X144342663Y-111856511D02*
X144359161Y-111969600D01*
X144359161Y-111969600D02*
X144418854Y-112114885D01*
X144418854Y-112114885D02*
X144467549Y-112184779D01*
X144467549Y-112184779D02*
X144553940Y-112249172D01*
X144553940Y-112249172D02*
X144672528Y-112270371D01*
X144672528Y-112270371D02*
X144747920Y-112259372D01*
X144747920Y-112259372D02*
X144855510Y-112205178D01*
X144855510Y-112205178D02*
X144887707Y-112161983D01*
X144887707Y-112161983D02*
X144849212Y-111898109D01*
X144849212Y-111898109D02*
X144698427Y-111920106D01*
X145237971Y-112187882D02*
X145122486Y-111396261D01*
X145122486Y-111396261D02*
X145690326Y-112121890D01*
X145690326Y-112121890D02*
X145574841Y-111330270D01*
X146067288Y-112066897D02*
X145951803Y-111275277D01*
X145951803Y-111275277D02*
X146140284Y-111247780D01*
X146140284Y-111247780D02*
X146258872Y-111268979D01*
X146258872Y-111268979D02*
X146345263Y-111333373D01*
X146345263Y-111333373D02*
X146393958Y-111403266D01*
X146393958Y-111403266D02*
X146453651Y-111548551D01*
X146453651Y-111548551D02*
X146470149Y-111661640D01*
X146470149Y-111661640D02*
X146454450Y-111817924D01*
X146454450Y-111817924D02*
X146427752Y-111898816D01*
X146427752Y-111898816D02*
X146363358Y-111985207D01*
X146363358Y-111985207D02*
X146255769Y-112039401D01*
X146255769Y-112039401D02*
X146067288Y-112066897D01*
X144849759Y-114013040D02*
X144925151Y-114002042D01*
X144925151Y-114002042D02*
X145006043Y-114028739D01*
X145006043Y-114028739D02*
X145049238Y-114060936D01*
X145049238Y-114060936D02*
X145097933Y-114130829D01*
X145097933Y-114130829D02*
X145157626Y-114276115D01*
X145157626Y-114276115D02*
X145185123Y-114464596D01*
X145185123Y-114464596D02*
X145169424Y-114620880D01*
X145169424Y-114620880D02*
X145142726Y-114701772D01*
X145142726Y-114701772D02*
X145110529Y-114744968D01*
X145110529Y-114744968D02*
X145040636Y-114793662D01*
X145040636Y-114793662D02*
X144965244Y-114804661D01*
X144965244Y-114804661D02*
X144884352Y-114777963D01*
X144884352Y-114777963D02*
X144841156Y-114745766D01*
X144841156Y-114745766D02*
X144792462Y-114675873D01*
X144792462Y-114675873D02*
X144732768Y-114530588D01*
X144732768Y-114530588D02*
X144705272Y-114342106D01*
X144705272Y-114342106D02*
X144720971Y-114185822D01*
X144720971Y-114185822D02*
X144747669Y-114104931D01*
X144747669Y-114104931D02*
X144779865Y-114061735D01*
X144779865Y-114061735D02*
X144849759Y-114013040D01*
X145983042Y-114656180D02*
X145530687Y-114722172D01*
X145756864Y-114689176D02*
X145641379Y-113897555D01*
X145641379Y-113897555D02*
X145582485Y-114021643D01*
X145582485Y-114021643D02*
X145518091Y-114108034D01*
X145518091Y-114108034D02*
X145448198Y-114156728D01*
X146131431Y-113826065D02*
X146659178Y-113749075D01*
X146659178Y-113749075D02*
X146435397Y-114590189D01*
X145225085Y-116585807D02*
X145300477Y-116574809D01*
X145300477Y-116574809D02*
X145381369Y-116601506D01*
X145381369Y-116601506D02*
X145424564Y-116633703D01*
X145424564Y-116633703D02*
X145473259Y-116703596D01*
X145473259Y-116703596D02*
X145532952Y-116848882D01*
X145532952Y-116848882D02*
X145560449Y-117037363D01*
X145560449Y-117037363D02*
X145544750Y-117193647D01*
X145544750Y-117193647D02*
X145518052Y-117274539D01*
X145518052Y-117274539D02*
X145485855Y-117317735D01*
X145485855Y-117317735D02*
X145415962Y-117366429D01*
X145415962Y-117366429D02*
X145340570Y-117377428D01*
X145340570Y-117377428D02*
X145259678Y-117350730D01*
X145259678Y-117350730D02*
X145216482Y-117318533D01*
X145216482Y-117318533D02*
X145167788Y-117248640D01*
X145167788Y-117248640D02*
X145108094Y-117103355D01*
X145108094Y-117103355D02*
X145080598Y-116914873D01*
X145080598Y-116914873D02*
X145096297Y-116758589D01*
X145096297Y-116758589D02*
X145122995Y-116677698D01*
X145122995Y-116677698D02*
X145155191Y-116634502D01*
X145155191Y-116634502D02*
X145225085Y-116585807D01*
X145801527Y-116578710D02*
X145833724Y-116535515D01*
X145833724Y-116535515D02*
X145903617Y-116486820D01*
X145903617Y-116486820D02*
X146092098Y-116459324D01*
X146092098Y-116459324D02*
X146172990Y-116486021D01*
X146172990Y-116486021D02*
X146216185Y-116518218D01*
X146216185Y-116518218D02*
X146264880Y-116588111D01*
X146264880Y-116588111D02*
X146275879Y-116663504D01*
X146275879Y-116663504D02*
X146254680Y-116782092D01*
X146254680Y-116782092D02*
X145868317Y-117300438D01*
X145868317Y-117300438D02*
X146358368Y-117228947D01*
X146732934Y-116365836D02*
X146808326Y-116354837D01*
X146808326Y-116354837D02*
X146889218Y-116381535D01*
X146889218Y-116381535D02*
X146932414Y-116413732D01*
X146932414Y-116413732D02*
X146981108Y-116483625D01*
X146981108Y-116483625D02*
X147040802Y-116628911D01*
X147040802Y-116628911D02*
X147068298Y-116817392D01*
X147068298Y-116817392D02*
X147052599Y-116973676D01*
X147052599Y-116973676D02*
X147025901Y-117054568D01*
X147025901Y-117054568D02*
X146993704Y-117097763D01*
X146993704Y-117097763D02*
X146923811Y-117146458D01*
X146923811Y-117146458D02*
X146848419Y-117157456D01*
X146848419Y-117157456D02*
X146767527Y-117130759D01*
X146767527Y-117130759D02*
X146724332Y-117098562D01*
X146724332Y-117098562D02*
X146675637Y-117028669D01*
X146675637Y-117028669D02*
X146615943Y-116883383D01*
X146615943Y-116883383D02*
X146588447Y-116694902D01*
X146588447Y-116694902D02*
X146604146Y-116538618D01*
X146604146Y-116538618D02*
X146630844Y-116457726D01*
X146630844Y-116457726D02*
X146663041Y-116414531D01*
X146663041Y-116414531D02*
X146732934Y-116365836D01*
X145585976Y-119059621D02*
X145661368Y-119048623D01*
X145661368Y-119048623D02*
X145742260Y-119075320D01*
X145742260Y-119075320D02*
X145785455Y-119107517D01*
X145785455Y-119107517D02*
X145834150Y-119177410D01*
X145834150Y-119177410D02*
X145893843Y-119322696D01*
X145893843Y-119322696D02*
X145921340Y-119511177D01*
X145921340Y-119511177D02*
X145905641Y-119667461D01*
X145905641Y-119667461D02*
X145878943Y-119748353D01*
X145878943Y-119748353D02*
X145846746Y-119791549D01*
X145846746Y-119791549D02*
X145776853Y-119840243D01*
X145776853Y-119840243D02*
X145701461Y-119851242D01*
X145701461Y-119851242D02*
X145620569Y-119824544D01*
X145620569Y-119824544D02*
X145577373Y-119792347D01*
X145577373Y-119792347D02*
X145528679Y-119722454D01*
X145528679Y-119722454D02*
X145468985Y-119577169D01*
X145468985Y-119577169D02*
X145441489Y-119388687D01*
X145441489Y-119388687D02*
X145457188Y-119232403D01*
X145457188Y-119232403D02*
X145483886Y-119151512D01*
X145483886Y-119151512D02*
X145516082Y-119108316D01*
X145516082Y-119108316D02*
X145585976Y-119059621D01*
X146162418Y-119052524D02*
X146194615Y-119009329D01*
X146194615Y-119009329D02*
X146264508Y-118960634D01*
X146264508Y-118960634D02*
X146452989Y-118933138D01*
X146452989Y-118933138D02*
X146533881Y-118959835D01*
X146533881Y-118959835D02*
X146577076Y-118992032D01*
X146577076Y-118992032D02*
X146625771Y-119061925D01*
X146625771Y-119061925D02*
X146636770Y-119137318D01*
X146636770Y-119137318D02*
X146615571Y-119255906D01*
X146615571Y-119255906D02*
X146229208Y-119774252D01*
X146229208Y-119774252D02*
X146719259Y-119702761D01*
X146916342Y-118942539D02*
X146948539Y-118899343D01*
X146948539Y-118899343D02*
X147018432Y-118850648D01*
X147018432Y-118850648D02*
X147206914Y-118823152D01*
X147206914Y-118823152D02*
X147287805Y-118849850D01*
X147287805Y-118849850D02*
X147331001Y-118882047D01*
X147331001Y-118882047D02*
X147379696Y-118951940D01*
X147379696Y-118951940D02*
X147390694Y-119027332D01*
X147390694Y-119027332D02*
X147369496Y-119145920D01*
X147369496Y-119145920D02*
X146983133Y-119664266D01*
X146983133Y-119664266D02*
X147473183Y-119592776D01*
X145948310Y-121543331D02*
X146023702Y-121532333D01*
X146023702Y-121532333D02*
X146104594Y-121559030D01*
X146104594Y-121559030D02*
X146147789Y-121591227D01*
X146147789Y-121591227D02*
X146196484Y-121661120D01*
X146196484Y-121661120D02*
X146256177Y-121806406D01*
X146256177Y-121806406D02*
X146283674Y-121994887D01*
X146283674Y-121994887D02*
X146267975Y-122151171D01*
X146267975Y-122151171D02*
X146241277Y-122232063D01*
X146241277Y-122232063D02*
X146209080Y-122275259D01*
X146209080Y-122275259D02*
X146139187Y-122323953D01*
X146139187Y-122323953D02*
X146063795Y-122334952D01*
X146063795Y-122334952D02*
X145982903Y-122308254D01*
X145982903Y-122308254D02*
X145939707Y-122276057D01*
X145939707Y-122276057D02*
X145891013Y-122206164D01*
X145891013Y-122206164D02*
X145831319Y-122060879D01*
X145831319Y-122060879D02*
X145803823Y-121872397D01*
X145803823Y-121872397D02*
X145819522Y-121716113D01*
X145819522Y-121716113D02*
X145846220Y-121635222D01*
X145846220Y-121635222D02*
X145878416Y-121592026D01*
X145878416Y-121592026D02*
X145948310Y-121543331D01*
X146524752Y-121536234D02*
X146556949Y-121493039D01*
X146556949Y-121493039D02*
X146626842Y-121444344D01*
X146626842Y-121444344D02*
X146815323Y-121416848D01*
X146815323Y-121416848D02*
X146896215Y-121443545D01*
X146896215Y-121443545D02*
X146939410Y-121475742D01*
X146939410Y-121475742D02*
X146988105Y-121545635D01*
X146988105Y-121545635D02*
X146999104Y-121621028D01*
X146999104Y-121621028D02*
X146977905Y-121739616D01*
X146977905Y-121739616D02*
X146591542Y-122257962D01*
X146591542Y-122257962D02*
X147081593Y-122186471D01*
X147683135Y-121559737D02*
X147760125Y-122087484D01*
X147450660Y-121285664D02*
X147344668Y-121878603D01*
X147344668Y-121878603D02*
X147834719Y-121807113D01*
X146694333Y-124809852D02*
X146241978Y-124875843D01*
X146468156Y-124842848D02*
X146352671Y-124051227D01*
X146352671Y-124051227D02*
X146293776Y-124175314D01*
X146293776Y-124175314D02*
X146229382Y-124261705D01*
X146229382Y-124261705D02*
X146159489Y-124310400D01*
X147068899Y-123946741D02*
X147144292Y-123935742D01*
X147144292Y-123935742D02*
X147225183Y-123962440D01*
X147225183Y-123962440D02*
X147268379Y-123994637D01*
X147268379Y-123994637D02*
X147317074Y-124064530D01*
X147317074Y-124064530D02*
X147376767Y-124209815D01*
X147376767Y-124209815D02*
X147404263Y-124398296D01*
X147404263Y-124398296D02*
X147388564Y-124554581D01*
X147388564Y-124554581D02*
X147361867Y-124635472D01*
X147361867Y-124635472D02*
X147329670Y-124678668D01*
X147329670Y-124678668D02*
X147259777Y-124727363D01*
X147259777Y-124727363D02*
X147184384Y-124738361D01*
X147184384Y-124738361D02*
X147103492Y-124711664D01*
X147103492Y-124711664D02*
X147060297Y-124679467D01*
X147060297Y-124679467D02*
X147011602Y-124609573D01*
X147011602Y-124609573D02*
X146951909Y-124464288D01*
X146951909Y-124464288D02*
X146924412Y-124275807D01*
X146924412Y-124275807D02*
X146940112Y-124119523D01*
X146940112Y-124119523D02*
X146966809Y-124038631D01*
X146966809Y-124038631D02*
X146999006Y-123995435D01*
X146999006Y-123995435D02*
X147068899Y-123946741D01*
X147822824Y-123836755D02*
X147898216Y-123825756D01*
X147898216Y-123825756D02*
X147979108Y-123852454D01*
X147979108Y-123852454D02*
X148022304Y-123884651D01*
X148022304Y-123884651D02*
X148070998Y-123954544D01*
X148070998Y-123954544D02*
X148130692Y-124099830D01*
X148130692Y-124099830D02*
X148158188Y-124288311D01*
X148158188Y-124288311D02*
X148142489Y-124444595D01*
X148142489Y-124444595D02*
X148115791Y-124525487D01*
X148115791Y-124525487D02*
X148083594Y-124568682D01*
X148083594Y-124568682D02*
X148013701Y-124617377D01*
X148013701Y-124617377D02*
X147938309Y-124628375D01*
X147938309Y-124628375D02*
X147857417Y-124601678D01*
X147857417Y-124601678D02*
X147814222Y-124569481D01*
X147814222Y-124569481D02*
X147765527Y-124499588D01*
X147765527Y-124499588D02*
X147705833Y-124354302D01*
X147705833Y-124354302D02*
X147678337Y-124165821D01*
X147678337Y-124165821D02*
X147694036Y-124009537D01*
X147694036Y-124009537D02*
X147720734Y-123928645D01*
X147720734Y-123928645D02*
X147752931Y-123885450D01*
X147752931Y-123885450D02*
X147822824Y-123836755D01*
X147427662Y-129836643D02*
X146975307Y-129902634D01*
X147201485Y-129869639D02*
X147086000Y-129078018D01*
X147086000Y-129078018D02*
X147027105Y-129202105D01*
X147027105Y-129202105D02*
X146962711Y-129288496D01*
X146962711Y-129288496D02*
X146892818Y-129337191D01*
X147802228Y-128973532D02*
X147877621Y-128962533D01*
X147877621Y-128962533D02*
X147958512Y-128989231D01*
X147958512Y-128989231D02*
X148001708Y-129021428D01*
X148001708Y-129021428D02*
X148050403Y-129091321D01*
X148050403Y-129091321D02*
X148110096Y-129236606D01*
X148110096Y-129236606D02*
X148137592Y-129425087D01*
X148137592Y-129425087D02*
X148121893Y-129581372D01*
X148121893Y-129581372D02*
X148095196Y-129662263D01*
X148095196Y-129662263D02*
X148062999Y-129705459D01*
X148062999Y-129705459D02*
X147993106Y-129754154D01*
X147993106Y-129754154D02*
X147917713Y-129765152D01*
X147917713Y-129765152D02*
X147836821Y-129738455D01*
X147836821Y-129738455D02*
X147793626Y-129706258D01*
X147793626Y-129706258D02*
X147744931Y-129636364D01*
X147744931Y-129636364D02*
X147685238Y-129491079D01*
X147685238Y-129491079D02*
X147657741Y-129302598D01*
X147657741Y-129302598D02*
X147673441Y-129146314D01*
X147673441Y-129146314D02*
X147700138Y-129065422D01*
X147700138Y-129065422D02*
X147732335Y-129022226D01*
X147732335Y-129022226D02*
X147802228Y-128973532D01*
X148783129Y-129099923D02*
X148860119Y-129627670D01*
X148550654Y-128825850D02*
X148444662Y-129418789D01*
X148444662Y-129418789D02*
X148934713Y-129347299D01*
D11*
X149156961Y-134522118D02*
X149301317Y-135511644D01*
X149177584Y-134663479D02*
X149237953Y-134582487D01*
X149237953Y-134582487D02*
X149369002Y-134491184D01*
X149369002Y-134491184D02*
X149581044Y-134460251D01*
X149581044Y-134460251D02*
X149732716Y-134510309D01*
X149732716Y-134510309D02*
X149824018Y-134641359D01*
X149824018Y-134641359D02*
X149937441Y-135418843D01*
X150644245Y-135315732D02*
X150499889Y-134326206D01*
X150427711Y-133831443D02*
X150367342Y-133912435D01*
X150367342Y-133912435D02*
X150448333Y-133972804D01*
X150448333Y-133972804D02*
X150508703Y-133891812D01*
X150508703Y-133891812D02*
X150427711Y-133831443D01*
X150427711Y-133831443D02*
X150448333Y-133972804D01*
X151976862Y-135049139D02*
X151845813Y-135140442D01*
X151845813Y-135140442D02*
X151563091Y-135181687D01*
X151563091Y-135181687D02*
X151411419Y-135131628D01*
X151411419Y-135131628D02*
X151330428Y-135071259D01*
X151330428Y-135071259D02*
X151239125Y-134940210D01*
X151239125Y-134940210D02*
X151177258Y-134516127D01*
X151177258Y-134516127D02*
X151227316Y-134364455D01*
X151227316Y-134364455D02*
X151287685Y-134283464D01*
X151287685Y-134283464D02*
X151418735Y-134192161D01*
X151418735Y-134192161D02*
X151701457Y-134150916D01*
X151701457Y-134150916D02*
X151853129Y-134200974D01*
X153178429Y-134873850D02*
X153047379Y-134965152D01*
X153047379Y-134965152D02*
X152764658Y-135006397D01*
X152764658Y-135006397D02*
X152612986Y-134956339D01*
X152612986Y-134956339D02*
X152521683Y-134825289D01*
X152521683Y-134825289D02*
X152439194Y-134259846D01*
X152439194Y-134259846D02*
X152489252Y-134108174D01*
X152489252Y-134108174D02*
X152620302Y-134016871D01*
X152620302Y-134016871D02*
X152903023Y-133975627D01*
X152903023Y-133975627D02*
X153054695Y-134025685D01*
X153054695Y-134025685D02*
X153145998Y-134156734D01*
X153145998Y-134156734D02*
X153166620Y-134298095D01*
X153166620Y-134298095D02*
X152480438Y-134542568D01*
X153874922Y-134700058D02*
X153955913Y-134760427D01*
X153955913Y-134760427D02*
X153895544Y-134841418D01*
X153895544Y-134841418D02*
X153814553Y-134781049D01*
X153814553Y-134781049D02*
X153874922Y-134700058D01*
X153874922Y-134700058D02*
X153895544Y-134841418D01*
X153813055Y-134275975D02*
X153618641Y-133438121D01*
X153618641Y-133438121D02*
X153679010Y-133357130D01*
X153679010Y-133357130D02*
X153760001Y-133417499D01*
X153760001Y-133417499D02*
X153813055Y-134275975D01*
X153813055Y-134275975D02*
X153679010Y-133357130D01*
X154457992Y-133748781D02*
X154602349Y-134738307D01*
X154478615Y-133890142D02*
X154538984Y-133809150D01*
X154538984Y-133809150D02*
X154670034Y-133717848D01*
X154670034Y-133717848D02*
X154882075Y-133686914D01*
X154882075Y-133686914D02*
X155033747Y-133736972D01*
X155033747Y-133736972D02*
X155125050Y-133868022D01*
X155125050Y-133868022D02*
X155238472Y-134645506D01*
X156581400Y-134449594D02*
X156467978Y-133672110D01*
X156467978Y-133672110D02*
X156376675Y-133541060D01*
X156376675Y-133541060D02*
X156225003Y-133491002D01*
X156225003Y-133491002D02*
X155942281Y-133532247D01*
X155942281Y-133532247D02*
X155811232Y-133623549D01*
X156571089Y-134378914D02*
X156440039Y-134470217D01*
X156440039Y-134470217D02*
X156086637Y-134521773D01*
X156086637Y-134521773D02*
X155934965Y-134471714D01*
X155934965Y-134471714D02*
X155843663Y-134340665D01*
X155843663Y-134340665D02*
X155823040Y-134199304D01*
X155823040Y-134199304D02*
X155873098Y-134047632D01*
X155873098Y-134047632D02*
X156004148Y-133956329D01*
X156004148Y-133956329D02*
X156357550Y-133904773D01*
X156357550Y-133904773D02*
X156488600Y-133813471D01*
X157143848Y-133356957D02*
X157288205Y-134346483D01*
X157164471Y-133498318D02*
X157224840Y-133417326D01*
X157224840Y-133417326D02*
X157355890Y-133326024D01*
X157355890Y-133326024D02*
X157567931Y-133295090D01*
X157567931Y-133295090D02*
X157719603Y-133345148D01*
X157719603Y-133345148D02*
X157810906Y-133476198D01*
X157810906Y-133476198D02*
X157924328Y-134253682D01*
X158843174Y-134119637D02*
X158691502Y-134069579D01*
X158691502Y-134069579D02*
X158610510Y-134009210D01*
X158610510Y-134009210D02*
X158519208Y-133878160D01*
X158519208Y-133878160D02*
X158457341Y-133454078D01*
X158457341Y-133454078D02*
X158507399Y-133302406D01*
X158507399Y-133302406D02*
X158567768Y-133221414D01*
X158567768Y-133221414D02*
X158698818Y-133130112D01*
X158698818Y-133130112D02*
X158910859Y-133099178D01*
X158910859Y-133099178D02*
X159062531Y-133149236D01*
X159062531Y-133149236D02*
X159143522Y-133209605D01*
X159143522Y-133209605D02*
X159234825Y-133340655D01*
X159234825Y-133340655D02*
X159296692Y-133764738D01*
X159296692Y-133764738D02*
X159246634Y-133916410D01*
X159246634Y-133916410D02*
X159186265Y-133997401D01*
X159186265Y-133997401D02*
X159055215Y-134088704D01*
X159055215Y-134088704D02*
X158843174Y-134119637D01*
D10*
X154018025Y-145722555D02*
X154351358Y-145722555D01*
X154494215Y-146246365D02*
X154018025Y-146246365D01*
X154018025Y-146246365D02*
X154018025Y-145246365D01*
X154018025Y-145246365D02*
X154494215Y-145246365D01*
X154922787Y-146246365D02*
X154922787Y-145246365D01*
X154922787Y-145246365D02*
X155494215Y-146246365D01*
X155494215Y-146246365D02*
X155494215Y-145246365D01*
X156541834Y-146151126D02*
X156494215Y-146198746D01*
X156494215Y-146198746D02*
X156351358Y-146246365D01*
X156351358Y-146246365D02*
X156256120Y-146246365D01*
X156256120Y-146246365D02*
X156113263Y-146198746D01*
X156113263Y-146198746D02*
X156018025Y-146103507D01*
X156018025Y-146103507D02*
X155970406Y-146008269D01*
X155970406Y-146008269D02*
X155922787Y-145817793D01*
X155922787Y-145817793D02*
X155922787Y-145674936D01*
X155922787Y-145674936D02*
X155970406Y-145484460D01*
X155970406Y-145484460D02*
X156018025Y-145389222D01*
X156018025Y-145389222D02*
X156113263Y-145293984D01*
X156113263Y-145293984D02*
X156256120Y-145246365D01*
X156256120Y-145246365D02*
X156351358Y-145246365D01*
X156351358Y-145246365D02*
X156494215Y-145293984D01*
X156494215Y-145293984D02*
X156541834Y-145341603D01*
X157494215Y-146246365D02*
X156922787Y-146246365D01*
X157208501Y-146246365D02*
X157208501Y-145246365D01*
X157208501Y-145246365D02*
X157113263Y-145389222D01*
X157113263Y-145389222D02*
X157018025Y-145484460D01*
X157018025Y-145484460D02*
X156922787Y-145532079D01*
D12*
%TO.C,MCU1*%
X162729184Y-131088592D02*
X157962542Y-98414451D01*
X145135415Y-133655246D02*
X162729184Y-131088592D01*
X140368773Y-100981104D02*
X145135415Y-133655246D01*
X157962542Y-98414451D02*
X140368773Y-100981104D01*
D13*
%TO.C,ENC1*%
X164232311Y-140291546D02*
X164232311Y-138291546D01*
D14*
%TO.C,D27*%
X174982311Y-115791546D02*
X175482311Y-115791546D01*
X174982311Y-116191546D02*
X174382311Y-115791546D01*
X174982311Y-115391546D02*
X174982311Y-116191546D01*
X174382311Y-115791546D02*
X174982311Y-115391546D01*
X174382311Y-115791546D02*
X174382311Y-116341546D01*
X174382311Y-115791546D02*
X174382311Y-115241546D01*
X173982311Y-115791546D02*
X174382311Y-115791546D01*
%TO.C,D26*%
X174982311Y-134791546D02*
X175482311Y-134791546D01*
X174982311Y-135191546D02*
X174382311Y-134791546D01*
X174982311Y-134391546D02*
X174982311Y-135191546D01*
X174382311Y-134791546D02*
X174982311Y-134391546D01*
X174382311Y-134791546D02*
X174382311Y-135341546D01*
X174382311Y-134791546D02*
X174382311Y-134241546D01*
X173982311Y-134791546D02*
X174382311Y-134791546D01*
%TO.C,D25*%
X174982311Y-153791546D02*
X175482311Y-153791546D01*
X174982311Y-154191546D02*
X174382311Y-153791546D01*
X174982311Y-153391546D02*
X174982311Y-154191546D01*
X174382311Y-153791546D02*
X174982311Y-153391546D01*
X174382311Y-153791546D02*
X174382311Y-154341546D01*
X174382311Y-153791546D02*
X174382311Y-153241546D01*
X173982311Y-153791546D02*
X174382311Y-153791546D01*
%TO.C,D24*%
X174982311Y-172791546D02*
X175482311Y-172791546D01*
X174982311Y-173191546D02*
X174382311Y-172791546D01*
X174982311Y-172391546D02*
X174982311Y-173191546D01*
X174382311Y-172791546D02*
X174982311Y-172391546D01*
X174382311Y-172791546D02*
X174382311Y-173341546D01*
X174382311Y-172791546D02*
X174382311Y-172241546D01*
X173982311Y-172791546D02*
X174382311Y-172791546D01*
%TO.C,D28*%
X154982311Y-167791546D02*
X155482311Y-167791546D01*
X154982311Y-168191546D02*
X154382311Y-167791546D01*
X154982311Y-167391546D02*
X154982311Y-168191546D01*
X154382311Y-167791546D02*
X154982311Y-167391546D01*
X154382311Y-167791546D02*
X154382311Y-168341546D01*
X154382311Y-167791546D02*
X154382311Y-167241546D01*
X153982311Y-167791546D02*
X154382311Y-167791546D01*
%TO.C,D30*%
X147124936Y-192167349D02*
X147279445Y-192642877D01*
X146744514Y-192290956D02*
X146939526Y-191596715D01*
X147505359Y-192043742D02*
X146744514Y-192290956D01*
X146939526Y-191596715D02*
X147505359Y-192043742D01*
X146939526Y-191596715D02*
X146416445Y-191766675D01*
X146939526Y-191596715D02*
X147462607Y-191426756D01*
X146815919Y-191216293D02*
X146939526Y-191596715D01*
%TO.C,D29*%
X173831009Y-194267508D02*
X174306537Y-194112999D01*
X173954616Y-194647930D02*
X173260375Y-194452918D01*
X173707402Y-193887085D02*
X173954616Y-194647930D01*
X173260375Y-194452918D02*
X173707402Y-193887085D01*
X173260375Y-194452918D02*
X173430335Y-194975999D01*
X173260375Y-194452918D02*
X173090416Y-193929837D01*
X172879953Y-194576525D02*
X173260375Y-194452918D01*
%TO.C,D19*%
X193982311Y-189791546D02*
X194482311Y-189791546D01*
X193982311Y-190191546D02*
X193382311Y-189791546D01*
X193982311Y-189391546D02*
X193982311Y-190191546D01*
X193382311Y-189791546D02*
X193982311Y-189391546D01*
X193382311Y-189791546D02*
X193382311Y-190341546D01*
X193382311Y-189791546D02*
X193382311Y-189241546D01*
X192982311Y-189791546D02*
X193382311Y-189791546D01*
%TO.C,D20*%
X193982311Y-170791546D02*
X194482311Y-170791546D01*
X193982311Y-171191546D02*
X193382311Y-170791546D01*
X193982311Y-170391546D02*
X193982311Y-171191546D01*
X193382311Y-170791546D02*
X193982311Y-170391546D01*
X193382311Y-170791546D02*
X193382311Y-171341546D01*
X193382311Y-170791546D02*
X193382311Y-170241546D01*
X192982311Y-170791546D02*
X193382311Y-170791546D01*
%TO.C,D22*%
X193982311Y-132791546D02*
X194482311Y-132791546D01*
X193982311Y-133191546D02*
X193382311Y-132791546D01*
X193982311Y-132391546D02*
X193982311Y-133191546D01*
X193382311Y-132791546D02*
X193982311Y-132391546D01*
X193382311Y-132791546D02*
X193382311Y-133341546D01*
X193382311Y-132791546D02*
X193382311Y-132241546D01*
X192982311Y-132791546D02*
X193382311Y-132791546D01*
%TO.C,D23*%
X193982311Y-113791546D02*
X194482311Y-113791546D01*
X193982311Y-114191546D02*
X193382311Y-113791546D01*
X193982311Y-113391546D02*
X193982311Y-114191546D01*
X193382311Y-113791546D02*
X193982311Y-113391546D01*
X193382311Y-113791546D02*
X193382311Y-114341546D01*
X193382311Y-113791546D02*
X193382311Y-113241546D01*
X192982311Y-113791546D02*
X193382311Y-113791546D01*
%TO.C,D18*%
X212982311Y-107791546D02*
X213482311Y-107791546D01*
X212982311Y-108191546D02*
X212382311Y-107791546D01*
X212982311Y-107391546D02*
X212982311Y-108191546D01*
X212382311Y-107791546D02*
X212982311Y-107391546D01*
X212382311Y-107791546D02*
X212382311Y-108341546D01*
X212382311Y-107791546D02*
X212382311Y-107241546D01*
X211982311Y-107791546D02*
X212382311Y-107791546D01*
%TO.C,D17*%
X212982311Y-126791546D02*
X213482311Y-126791546D01*
X212982311Y-127191546D02*
X212382311Y-126791546D01*
X212982311Y-126391546D02*
X212982311Y-127191546D01*
X212382311Y-126791546D02*
X212982311Y-126391546D01*
X212382311Y-126791546D02*
X212382311Y-127341546D01*
X212382311Y-126791546D02*
X212382311Y-126241546D01*
X211982311Y-126791546D02*
X212382311Y-126791546D01*
%TO.C,D16*%
X212982311Y-145791546D02*
X213482311Y-145791546D01*
X212982311Y-146191546D02*
X212382311Y-145791546D01*
X212982311Y-145391546D02*
X212982311Y-146191546D01*
X212382311Y-145791546D02*
X212982311Y-145391546D01*
X212382311Y-145791546D02*
X212382311Y-146341546D01*
X212382311Y-145791546D02*
X212382311Y-145241546D01*
X211982311Y-145791546D02*
X212382311Y-145791546D01*
%TO.C,D15*%
X212982311Y-164791546D02*
X213482311Y-164791546D01*
X212982311Y-165191546D02*
X212382311Y-164791546D01*
X212982311Y-164391546D02*
X212982311Y-165191546D01*
X212382311Y-164791546D02*
X212982311Y-164391546D01*
X212382311Y-164791546D02*
X212382311Y-165341546D01*
X212382311Y-164791546D02*
X212382311Y-164241546D01*
X211982311Y-164791546D02*
X212382311Y-164791546D01*
%TO.C,D14*%
X212982311Y-183791546D02*
X213482311Y-183791546D01*
X212982311Y-184191546D02*
X212382311Y-183791546D01*
X212982311Y-183391546D02*
X212982311Y-184191546D01*
X212382311Y-183791546D02*
X212982311Y-183391546D01*
X212382311Y-183791546D02*
X212382311Y-184341546D01*
X212382311Y-183791546D02*
X212382311Y-183241546D01*
X211982311Y-183791546D02*
X212382311Y-183791546D01*
%TO.C,D9*%
X231982311Y-188791546D02*
X232482311Y-188791546D01*
X231982311Y-189191546D02*
X231382311Y-188791546D01*
X231982311Y-188391546D02*
X231982311Y-189191546D01*
X231382311Y-188791546D02*
X231982311Y-188391546D01*
X231382311Y-188791546D02*
X231382311Y-189341546D01*
X231382311Y-188791546D02*
X231382311Y-188241546D01*
X230982311Y-188791546D02*
X231382311Y-188791546D01*
%TO.C,D10*%
X231982311Y-169791546D02*
X232482311Y-169791546D01*
X231982311Y-170191546D02*
X231382311Y-169791546D01*
X231982311Y-169391546D02*
X231982311Y-170191546D01*
X231382311Y-169791546D02*
X231982311Y-169391546D01*
X231382311Y-169791546D02*
X231382311Y-170341546D01*
X231382311Y-169791546D02*
X231382311Y-169241546D01*
X230982311Y-169791546D02*
X231382311Y-169791546D01*
%TO.C,D11*%
X231982311Y-150791546D02*
X232482311Y-150791546D01*
X231982311Y-151191546D02*
X231382311Y-150791546D01*
X231982311Y-150391546D02*
X231982311Y-151191546D01*
X231382311Y-150791546D02*
X231982311Y-150391546D01*
X231382311Y-150791546D02*
X231382311Y-151341546D01*
X231382311Y-150791546D02*
X231382311Y-150241546D01*
X230982311Y-150791546D02*
X231382311Y-150791546D01*
%TO.C,D12*%
X231982311Y-131791546D02*
X232482311Y-131791546D01*
X231982311Y-132191546D02*
X231382311Y-131791546D01*
X231982311Y-131391546D02*
X231982311Y-132191546D01*
X231382311Y-131791546D02*
X231982311Y-131391546D01*
X231382311Y-131791546D02*
X231382311Y-132341546D01*
X231382311Y-131791546D02*
X231382311Y-131241546D01*
X230982311Y-131791546D02*
X231382311Y-131791546D01*
%TO.C,D13*%
X231982311Y-112791546D02*
X232482311Y-112791546D01*
X231982311Y-113191546D02*
X231382311Y-112791546D01*
X231982311Y-112391546D02*
X231982311Y-113191546D01*
X231382311Y-112791546D02*
X231982311Y-112391546D01*
X231382311Y-112791546D02*
X231382311Y-113341546D01*
X231382311Y-112791546D02*
X231382311Y-112241546D01*
X230982311Y-112791546D02*
X231382311Y-112791546D01*
%TO.C,D8*%
X250982311Y-124791546D02*
X251482311Y-124791546D01*
X250982311Y-125191546D02*
X250382311Y-124791546D01*
X250982311Y-124391546D02*
X250982311Y-125191546D01*
X250382311Y-124791546D02*
X250982311Y-124391546D01*
X250382311Y-124791546D02*
X250382311Y-125341546D01*
X250382311Y-124791546D02*
X250382311Y-124241546D01*
X249982311Y-124791546D02*
X250382311Y-124791546D01*
%TO.C,D7*%
X250982311Y-143791546D02*
X251482311Y-143791546D01*
X250982311Y-144191546D02*
X250382311Y-143791546D01*
X250982311Y-143391546D02*
X250982311Y-144191546D01*
X250382311Y-143791546D02*
X250982311Y-143391546D01*
X250382311Y-143791546D02*
X250382311Y-144341546D01*
X250382311Y-143791546D02*
X250382311Y-143241546D01*
X249982311Y-143791546D02*
X250382311Y-143791546D01*
%TO.C,D6*%
X250982311Y-162791546D02*
X251482311Y-162791546D01*
X250982311Y-163191546D02*
X250382311Y-162791546D01*
X250982311Y-162391546D02*
X250982311Y-163191546D01*
X250382311Y-162791546D02*
X250982311Y-162391546D01*
X250382311Y-162791546D02*
X250382311Y-163341546D01*
X250382311Y-162791546D02*
X250382311Y-162241546D01*
X249982311Y-162791546D02*
X250382311Y-162791546D01*
%TO.C,D5*%
X250982311Y-181791546D02*
X251482311Y-181791546D01*
X250982311Y-182191546D02*
X250382311Y-181791546D01*
X250982311Y-181391546D02*
X250982311Y-182191546D01*
X250382311Y-181791546D02*
X250982311Y-181391546D01*
X250382311Y-181791546D02*
X250382311Y-182341546D01*
X250382311Y-181791546D02*
X250382311Y-181241546D01*
X249982311Y-181791546D02*
X250382311Y-181791546D01*
%TO.C,D1*%
X269982311Y-181791546D02*
X270482311Y-181791546D01*
X269982311Y-182191546D02*
X269382311Y-181791546D01*
X269982311Y-181391546D02*
X269982311Y-182191546D01*
X269382311Y-181791546D02*
X269982311Y-181391546D01*
X269382311Y-181791546D02*
X269382311Y-182341546D01*
X269382311Y-181791546D02*
X269382311Y-181241546D01*
X268982311Y-181791546D02*
X269382311Y-181791546D01*
%TO.C,D2*%
X269982311Y-162791546D02*
X270482311Y-162791546D01*
X269982311Y-163191546D02*
X269382311Y-162791546D01*
X269982311Y-162391546D02*
X269982311Y-163191546D01*
X269382311Y-162791546D02*
X269982311Y-162391546D01*
X269382311Y-162791546D02*
X269382311Y-163341546D01*
X269382311Y-162791546D02*
X269382311Y-162241546D01*
X268982311Y-162791546D02*
X269382311Y-162791546D01*
%TO.C,D3*%
X269982311Y-143791546D02*
X270482311Y-143791546D01*
X269982311Y-144191546D02*
X269382311Y-143791546D01*
X269982311Y-143391546D02*
X269982311Y-144191546D01*
X269382311Y-143791546D02*
X269982311Y-143391546D01*
X269382311Y-143791546D02*
X269382311Y-144341546D01*
X269382311Y-143791546D02*
X269382311Y-143241546D01*
X268982311Y-143791546D02*
X269382311Y-143791546D01*
%TO.C,D4*%
X269982311Y-124791546D02*
X270482311Y-124791546D01*
X269982311Y-125191546D02*
X269382311Y-124791546D01*
X269982311Y-124391546D02*
X269982311Y-125191546D01*
X269382311Y-124791546D02*
X269982311Y-124391546D01*
X269382311Y-124791546D02*
X269382311Y-125341546D01*
X269382311Y-124791546D02*
X269382311Y-124241546D01*
X268982311Y-124791546D02*
X269382311Y-124791546D01*
%TO.C,D21*%
X193982311Y-151791546D02*
X194482311Y-151791546D01*
X193982311Y-152191546D02*
X193382311Y-151791546D01*
X193982311Y-151391546D02*
X193982311Y-152191546D01*
X193382311Y-151791546D02*
X193982311Y-151391546D01*
X193382311Y-151791546D02*
X193382311Y-152341546D01*
X193382311Y-151791546D02*
X193382311Y-151241546D01*
X192982311Y-151791546D02*
X193382311Y-151791546D01*
D10*
%TO.C,B1*%
X140361168Y-126989639D02*
X141925169Y-128422782D01*
X137863547Y-127098688D02*
X136430404Y-128662689D01*
X137863547Y-127098688D02*
X140361168Y-126989639D01*
X142034218Y-130920403D02*
X141925169Y-128422782D01*
X136539453Y-131160310D02*
X136430404Y-128662689D01*
X140601075Y-132484404D02*
X142034218Y-130920403D01*
X138103454Y-132593453D02*
X136539453Y-131160310D01*
X138103454Y-132593453D02*
X140601075Y-132484404D01*
%TO.C,T1*%
X136098538Y-117902288D02*
X136268654Y-121798576D01*
X136183596Y-119850432D02*
X136327540Y-123147291D01*
X136327540Y-123147291D02*
X139174827Y-123022976D01*
X139174827Y-123022976D02*
X138886939Y-116429258D01*
X138886939Y-116429258D02*
X136039652Y-116553573D01*
X136183596Y-119850432D02*
X136039652Y-116553573D01*
%TD*%
D15*
%TO.C,MCU1*%
X142175468Y-104567865D03*
X142542133Y-107081260D03*
X142908798Y-109594656D03*
X143275463Y-112108051D03*
X143642127Y-114621447D03*
X144008792Y-117134842D03*
X144375457Y-119648238D03*
X144742122Y-122161634D03*
X145108786Y-124675029D03*
X145475451Y-127188425D03*
X145842116Y-129701820D03*
X146208781Y-132215217D03*
X161289154Y-130015227D03*
X160922489Y-127501832D03*
X160555824Y-124988436D03*
X160189159Y-122475041D03*
X159822495Y-119961645D03*
X159455830Y-117448250D03*
X159089165Y-114934854D03*
X158722500Y-112421458D03*
X158355836Y-109908063D03*
X157989171Y-107394667D03*
X157622506Y-104881272D03*
X157255841Y-102367875D03*
X147988847Y-126821760D03*
X150502242Y-126455095D03*
X153015638Y-126088430D03*
%TD*%
D16*
%TO.C,*%
X244732311Y-105791546D03*
%TD*%
%TO.C,*%
X264732311Y-188791546D03*
%TD*%
%TO.C,*%
X260232311Y-147791546D03*
%TD*%
%TO.C,*%
X203232311Y-150291546D03*
%TD*%
%TO.C,*%
X205732311Y-192791546D03*
%TD*%
%TO.C,*%
X144732311Y-206791546D03*
%TD*%
%TO.C,*%
X162732311Y-100791546D03*
%TD*%
%TO.C,*%
X139732311Y-158791546D03*
%TD*%
M02*
