%TF.GenerationSoftware,KiCad,Pcbnew,8.0.8*%
%TF.CreationDate,2025-02-23T20:19:19+00:00*%
%TF.ProjectId,right_final,72696768-745f-4666-996e-616c2e6b6963,v1.0.0*%
%TF.SameCoordinates,Original*%
%TF.FileFunction,Legend,Bot*%
%TF.FilePolarity,Positive*%
%FSLAX46Y46*%
G04 Gerber Fmt 4.6, Leading zero omitted, Abs format (unit mm)*
G04 Created by KiCad (PCBNEW 8.0.8) date 2025-02-23 20:19:19*
%MOMM*%
%LPD*%
G01*
G04 APERTURE LIST*
%ADD10C,0.150000*%
%ADD11C,0.381000*%
%ADD12C,0.100000*%
%ADD13C,1.752600*%
G04 APERTURE END LIST*
D10*
X155730931Y-102956466D02*
X155939812Y-102541009D01*
X156183286Y-102890475D02*
X156067801Y-102098854D01*
X156067801Y-102098854D02*
X155766231Y-102142849D01*
X155766231Y-102142849D02*
X155696338Y-102191543D01*
X155696338Y-102191543D02*
X155664141Y-102234739D01*
X155664141Y-102234739D02*
X155637443Y-102315631D01*
X155637443Y-102315631D02*
X155653941Y-102428719D01*
X155653941Y-102428719D02*
X155702636Y-102498612D01*
X155702636Y-102498612D02*
X155745832Y-102530809D01*
X155745832Y-102530809D02*
X155826723Y-102557507D01*
X155826723Y-102557507D02*
X156128293Y-102513513D01*
X155396366Y-102774283D02*
X155019404Y-102829276D01*
X155504754Y-102989462D02*
X155125395Y-102236336D01*
X155125395Y-102236336D02*
X154977007Y-103066452D01*
X154673041Y-102302328D02*
X154600045Y-103121445D01*
X154600045Y-103121445D02*
X154366771Y-102577999D01*
X154366771Y-102577999D02*
X154298475Y-103165439D01*
X154298475Y-103165439D02*
X153994509Y-102401315D01*
X156025305Y-104710438D02*
X156095198Y-104661743D01*
X156095198Y-104661743D02*
X156208287Y-104645245D01*
X156208287Y-104645245D02*
X156326875Y-104666444D01*
X156326875Y-104666444D02*
X156413266Y-104730838D01*
X156413266Y-104730838D02*
X156461961Y-104800731D01*
X156461961Y-104800731D02*
X156521654Y-104946016D01*
X156521654Y-104946016D02*
X156538152Y-105059105D01*
X156538152Y-105059105D02*
X156522453Y-105215389D01*
X156522453Y-105215389D02*
X156495755Y-105296281D01*
X156495755Y-105296281D02*
X156431361Y-105382672D01*
X156431361Y-105382672D02*
X156323772Y-105436866D01*
X156323772Y-105436866D02*
X156248380Y-105447865D01*
X156248380Y-105447865D02*
X156129792Y-105426666D01*
X156129792Y-105426666D02*
X156086596Y-105394469D01*
X156086596Y-105394469D02*
X156048101Y-105130596D01*
X156048101Y-105130596D02*
X156198886Y-105108599D01*
X155758329Y-105519355D02*
X155642844Y-104727735D01*
X155642844Y-104727735D02*
X155305974Y-105585347D01*
X155305974Y-105585347D02*
X155190489Y-104793726D01*
X154929012Y-105640340D02*
X154813527Y-104848719D01*
X154813527Y-104848719D02*
X154625046Y-104876215D01*
X154625046Y-104876215D02*
X154517457Y-104930409D01*
X154517457Y-104930409D02*
X154453063Y-105016800D01*
X154453063Y-105016800D02*
X154426365Y-105097692D01*
X154426365Y-105097692D02*
X154410666Y-105253976D01*
X154410666Y-105253976D02*
X154427164Y-105367065D01*
X154427164Y-105367065D02*
X154486857Y-105512351D01*
X154486857Y-105512351D02*
X154535552Y-105582244D01*
X154535552Y-105582244D02*
X154621943Y-105646638D01*
X154621943Y-105646638D02*
X154740531Y-105667836D01*
X154740531Y-105667836D02*
X154929012Y-105640340D01*
X156464259Y-107983257D02*
X156673140Y-107567800D01*
X156916614Y-107917266D02*
X156801129Y-107125645D01*
X156801129Y-107125645D02*
X156499559Y-107169639D01*
X156499559Y-107169639D02*
X156429666Y-107218334D01*
X156429666Y-107218334D02*
X156397469Y-107261530D01*
X156397469Y-107261530D02*
X156370771Y-107342422D01*
X156370771Y-107342422D02*
X156387269Y-107455510D01*
X156387269Y-107455510D02*
X156435964Y-107525403D01*
X156435964Y-107525403D02*
X156479160Y-107557600D01*
X156479160Y-107557600D02*
X156560051Y-107584298D01*
X156560051Y-107584298D02*
X156861621Y-107540304D01*
X156157190Y-107989555D02*
X156049601Y-108043749D01*
X156049601Y-108043749D02*
X155861120Y-108071246D01*
X155861120Y-108071246D02*
X155780228Y-108044548D01*
X155780228Y-108044548D02*
X155737033Y-108012351D01*
X155737033Y-108012351D02*
X155688338Y-107942458D01*
X155688338Y-107942458D02*
X155677339Y-107867066D01*
X155677339Y-107867066D02*
X155704037Y-107786174D01*
X155704037Y-107786174D02*
X155736234Y-107742978D01*
X155736234Y-107742978D02*
X155806127Y-107694284D01*
X155806127Y-107694284D02*
X155951413Y-107634590D01*
X155951413Y-107634590D02*
X156021306Y-107585895D01*
X156021306Y-107585895D02*
X156053503Y-107542700D01*
X156053503Y-107542700D02*
X156080200Y-107461808D01*
X156080200Y-107461808D02*
X156069202Y-107386416D01*
X156069202Y-107386416D02*
X156020507Y-107316523D01*
X156020507Y-107316523D02*
X155977311Y-107284326D01*
X155977311Y-107284326D02*
X155896420Y-107257628D01*
X155896420Y-107257628D02*
X155707939Y-107285124D01*
X155707939Y-107285124D02*
X155600349Y-107339319D01*
X155368672Y-107334618D02*
X154916318Y-107400609D01*
X155257980Y-108159234D02*
X155142495Y-107367614D01*
X157287150Y-109621628D02*
X157138762Y-110451744D01*
X157138762Y-110451744D02*
X156759403Y-109698618D01*
X156147662Y-110519333D02*
X156190857Y-110551530D01*
X156190857Y-110551530D02*
X156309445Y-110572728D01*
X156309445Y-110572728D02*
X156384837Y-110561730D01*
X156384837Y-110561730D02*
X156492427Y-110507536D01*
X156492427Y-110507536D02*
X156556821Y-110421145D01*
X156556821Y-110421145D02*
X156583518Y-110340253D01*
X156583518Y-110340253D02*
X156599217Y-110183969D01*
X156599217Y-110183969D02*
X156582720Y-110070880D01*
X156582720Y-110070880D02*
X156523026Y-109925594D01*
X156523026Y-109925594D02*
X156474331Y-109855701D01*
X156474331Y-109855701D02*
X156387940Y-109791307D01*
X156387940Y-109791307D02*
X156269352Y-109770109D01*
X156269352Y-109770109D02*
X156193960Y-109781108D01*
X156193960Y-109781108D02*
X156086371Y-109835302D01*
X156086371Y-109835302D02*
X156054174Y-109878497D01*
X155356041Y-110634818D02*
X155399236Y-110667015D01*
X155399236Y-110667015D02*
X155517824Y-110688213D01*
X155517824Y-110688213D02*
X155593217Y-110677215D01*
X155593217Y-110677215D02*
X155700806Y-110623021D01*
X155700806Y-110623021D02*
X155765200Y-110536630D01*
X155765200Y-110536630D02*
X155791898Y-110455738D01*
X155791898Y-110455738D02*
X155807597Y-110299454D01*
X155807597Y-110299454D02*
X155791099Y-110186365D01*
X155791099Y-110186365D02*
X155731406Y-110041079D01*
X155731406Y-110041079D02*
X155682711Y-109971186D01*
X155682711Y-109971186D02*
X155596320Y-109906792D01*
X155596320Y-109906792D02*
X155477732Y-109885594D01*
X155477732Y-109885594D02*
X155402339Y-109896593D01*
X155402339Y-109896593D02*
X155294750Y-109950787D01*
X155294750Y-109950787D02*
X155262553Y-109993982D01*
X157389942Y-112173519D02*
X157314549Y-112184518D01*
X157314549Y-112184518D02*
X157244656Y-112233213D01*
X157244656Y-112233213D02*
X157212459Y-112276408D01*
X157212459Y-112276408D02*
X157185761Y-112357300D01*
X157185761Y-112357300D02*
X157170062Y-112513584D01*
X157170062Y-112513584D02*
X157197559Y-112702065D01*
X157197559Y-112702065D02*
X157257252Y-112847351D01*
X157257252Y-112847351D02*
X157305947Y-112917244D01*
X157305947Y-112917244D02*
X157349142Y-112949441D01*
X157349142Y-112949441D02*
X157430034Y-112976139D01*
X157430034Y-112976139D02*
X157505427Y-112965140D01*
X157505427Y-112965140D02*
X157575320Y-112916445D01*
X157575320Y-112916445D02*
X157607517Y-112873250D01*
X157607517Y-112873250D02*
X157634214Y-112792358D01*
X157634214Y-112792358D02*
X157649913Y-112636074D01*
X157649913Y-112636074D02*
X157622417Y-112447593D01*
X157622417Y-112447593D02*
X157562724Y-112302307D01*
X157562724Y-112302307D02*
X157514029Y-112232414D01*
X157514029Y-112232414D02*
X157470833Y-112200217D01*
X157470833Y-112200217D02*
X157389942Y-112173519D01*
X156862194Y-112250509D02*
X156372143Y-112322000D01*
X156372143Y-112322000D02*
X156680011Y-112585075D01*
X156680011Y-112585075D02*
X156566923Y-112601573D01*
X156566923Y-112601573D02*
X156497029Y-112650268D01*
X156497029Y-112650268D02*
X156464832Y-112693463D01*
X156464832Y-112693463D02*
X156438135Y-112774355D01*
X156438135Y-112774355D02*
X156465631Y-112962836D01*
X156465631Y-112962836D02*
X156514326Y-113032729D01*
X156514326Y-113032729D02*
X156557522Y-113064926D01*
X156557522Y-113064926D02*
X156638413Y-113091624D01*
X156638413Y-113091624D02*
X156864591Y-113058628D01*
X156864591Y-113058628D02*
X156934484Y-113009933D01*
X156934484Y-113009933D02*
X156966681Y-112966738D01*
X155733704Y-113223606D02*
X156186058Y-113157615D01*
X155959881Y-113190611D02*
X155844396Y-112398990D01*
X155844396Y-112398990D02*
X155936286Y-112501080D01*
X155936286Y-112501080D02*
X156022677Y-112565474D01*
X156022677Y-112565474D02*
X156103569Y-112592172D01*
X157756607Y-114686914D02*
X157681214Y-114697913D01*
X157681214Y-114697913D02*
X157611321Y-114746608D01*
X157611321Y-114746608D02*
X157579124Y-114789803D01*
X157579124Y-114789803D02*
X157552426Y-114870695D01*
X157552426Y-114870695D02*
X157536727Y-115026979D01*
X157536727Y-115026979D02*
X157564224Y-115215460D01*
X157564224Y-115215460D02*
X157623917Y-115360746D01*
X157623917Y-115360746D02*
X157672612Y-115430639D01*
X157672612Y-115430639D02*
X157715807Y-115462836D01*
X157715807Y-115462836D02*
X157796699Y-115489534D01*
X157796699Y-115489534D02*
X157872092Y-115478535D01*
X157872092Y-115478535D02*
X157941985Y-115429840D01*
X157941985Y-115429840D02*
X157974182Y-115386645D01*
X157974182Y-115386645D02*
X158000879Y-115305753D01*
X158000879Y-115305753D02*
X158016578Y-115149469D01*
X158016578Y-115149469D02*
X157989082Y-114960988D01*
X157989082Y-114960988D02*
X157929389Y-114815702D01*
X157929389Y-114815702D02*
X157880694Y-114745809D01*
X157880694Y-114745809D02*
X157837498Y-114713612D01*
X157837498Y-114713612D02*
X157756607Y-114686914D01*
X157202162Y-114844796D02*
X157158966Y-114812599D01*
X157158966Y-114812599D02*
X157078074Y-114785902D01*
X157078074Y-114785902D02*
X156889593Y-114813398D01*
X156889593Y-114813398D02*
X156819700Y-114862093D01*
X156819700Y-114862093D02*
X156787503Y-114905288D01*
X156787503Y-114905288D02*
X156760806Y-114986180D01*
X156760806Y-114986180D02*
X156771804Y-115061572D01*
X156771804Y-115061572D02*
X156825998Y-115169162D01*
X156825998Y-115169162D02*
X157344344Y-115555525D01*
X157344344Y-115555525D02*
X156854293Y-115627016D01*
X156477331Y-115682009D02*
X156326546Y-115704006D01*
X156326546Y-115704006D02*
X156245654Y-115677308D01*
X156245654Y-115677308D02*
X156202459Y-115645111D01*
X156202459Y-115645111D02*
X156110569Y-115543021D01*
X156110569Y-115543021D02*
X156050875Y-115397735D01*
X156050875Y-115397735D02*
X156006881Y-115096166D01*
X156006881Y-115096166D02*
X156033579Y-115015274D01*
X156033579Y-115015274D02*
X156065775Y-114972078D01*
X156065775Y-114972078D02*
X156135669Y-114923384D01*
X156135669Y-114923384D02*
X156286454Y-114901387D01*
X156286454Y-114901387D02*
X156367345Y-114928084D01*
X156367345Y-114928084D02*
X156410541Y-114960281D01*
X156410541Y-114960281D02*
X156459236Y-115030174D01*
X156459236Y-115030174D02*
X156486732Y-115218655D01*
X156486732Y-115218655D02*
X156460034Y-115299547D01*
X156460034Y-115299547D02*
X156427837Y-115342743D01*
X156427837Y-115342743D02*
X156357944Y-115391437D01*
X156357944Y-115391437D02*
X156207159Y-115413435D01*
X156207159Y-115413435D02*
X156126268Y-115386737D01*
X156126268Y-115386737D02*
X156083072Y-115354540D01*
X156083072Y-115354540D02*
X156034377Y-115284647D01*
X158123272Y-117200310D02*
X158047879Y-117211309D01*
X158047879Y-117211309D02*
X157977986Y-117260004D01*
X157977986Y-117260004D02*
X157945789Y-117303199D01*
X157945789Y-117303199D02*
X157919091Y-117384091D01*
X157919091Y-117384091D02*
X157903392Y-117540375D01*
X157903392Y-117540375D02*
X157930889Y-117728856D01*
X157930889Y-117728856D02*
X157990582Y-117874142D01*
X157990582Y-117874142D02*
X158039277Y-117944035D01*
X158039277Y-117944035D02*
X158082472Y-117976232D01*
X158082472Y-117976232D02*
X158163364Y-118002930D01*
X158163364Y-118002930D02*
X158238757Y-117991931D01*
X158238757Y-117991931D02*
X158308650Y-117943236D01*
X158308650Y-117943236D02*
X158340847Y-117900041D01*
X158340847Y-117900041D02*
X158367544Y-117819149D01*
X158367544Y-117819149D02*
X158383243Y-117662865D01*
X158383243Y-117662865D02*
X158355747Y-117474384D01*
X158355747Y-117474384D02*
X158296054Y-117329098D01*
X158296054Y-117329098D02*
X158247359Y-117259205D01*
X158247359Y-117259205D02*
X158204163Y-117227008D01*
X158204163Y-117227008D02*
X158123272Y-117200310D01*
X157369347Y-117310296D02*
X157293955Y-117321295D01*
X157293955Y-117321295D02*
X157224061Y-117369989D01*
X157224061Y-117369989D02*
X157191864Y-117413185D01*
X157191864Y-117413185D02*
X157165167Y-117494077D01*
X157165167Y-117494077D02*
X157149468Y-117650361D01*
X157149468Y-117650361D02*
X157176964Y-117838842D01*
X157176964Y-117838842D02*
X157236657Y-117984128D01*
X157236657Y-117984128D02*
X157285352Y-118054021D01*
X157285352Y-118054021D02*
X157328548Y-118086218D01*
X157328548Y-118086218D02*
X157409439Y-118112915D01*
X157409439Y-118112915D02*
X157484832Y-118101917D01*
X157484832Y-118101917D02*
X157554725Y-118053222D01*
X157554725Y-118053222D02*
X157586922Y-118010026D01*
X157586922Y-118010026D02*
X157613620Y-117929135D01*
X157613620Y-117929135D02*
X157629319Y-117772851D01*
X157629319Y-117772851D02*
X157601822Y-117584369D01*
X157601822Y-117584369D02*
X157542129Y-117439084D01*
X157542129Y-117439084D02*
X157493434Y-117369191D01*
X157493434Y-117369191D02*
X157450239Y-117336994D01*
X157450239Y-117336994D02*
X157369347Y-117310296D01*
X156814902Y-117468178D02*
X156771706Y-117435981D01*
X156771706Y-117435981D02*
X156690815Y-117409283D01*
X156690815Y-117409283D02*
X156502334Y-117436780D01*
X156502334Y-117436780D02*
X156432440Y-117485474D01*
X156432440Y-117485474D02*
X156400244Y-117528670D01*
X156400244Y-117528670D02*
X156373546Y-117609562D01*
X156373546Y-117609562D02*
X156384544Y-117684954D01*
X156384544Y-117684954D02*
X156438739Y-117792544D01*
X156438739Y-117792544D02*
X156957085Y-118178907D01*
X156957085Y-118178907D02*
X156467034Y-118250397D01*
X158341547Y-120543821D02*
X158793902Y-120477830D01*
X158567724Y-120510825D02*
X158452239Y-119719205D01*
X158452239Y-119719205D02*
X158544130Y-119821295D01*
X158544130Y-119821295D02*
X158630521Y-119885689D01*
X158630521Y-119885689D02*
X158711412Y-119912386D01*
X157587622Y-120653807D02*
X158039977Y-120587815D01*
X157813800Y-120620811D02*
X157698315Y-119829190D01*
X157698315Y-119829190D02*
X157790205Y-119931280D01*
X157790205Y-119931280D02*
X157876596Y-119995674D01*
X157876596Y-119995674D02*
X157957488Y-120022372D01*
X156755909Y-119966673D02*
X157132871Y-119911680D01*
X157132871Y-119911680D02*
X157225560Y-120283143D01*
X157225560Y-120283143D02*
X157182365Y-120250946D01*
X157182365Y-120250946D02*
X157101473Y-120224248D01*
X157101473Y-120224248D02*
X156912992Y-120251744D01*
X156912992Y-120251744D02*
X156843099Y-120300439D01*
X156843099Y-120300439D02*
X156810902Y-120343635D01*
X156810902Y-120343635D02*
X156784204Y-120424526D01*
X156784204Y-120424526D02*
X156811701Y-120613008D01*
X156811701Y-120613008D02*
X156860395Y-120682901D01*
X156860395Y-120682901D02*
X156903591Y-120715098D01*
X156903591Y-120715098D02*
X156984483Y-120741795D01*
X156984483Y-120741795D02*
X157172964Y-120714299D01*
X157172964Y-120714299D02*
X157242857Y-120665604D01*
X157242857Y-120665604D02*
X157275054Y-120622409D01*
X158708212Y-123057217D02*
X159160567Y-122991226D01*
X158934389Y-123024221D02*
X158818904Y-122232601D01*
X158818904Y-122232601D02*
X158910795Y-122334691D01*
X158910795Y-122334691D02*
X158997186Y-122399085D01*
X158997186Y-122399085D02*
X159078077Y-122425782D01*
X157954287Y-123167203D02*
X158406642Y-123101211D01*
X158180465Y-123134207D02*
X158064980Y-122342586D01*
X158064980Y-122342586D02*
X158156870Y-122444676D01*
X158156870Y-122444676D02*
X158243261Y-122509070D01*
X158243261Y-122509070D02*
X158324153Y-122535768D01*
X157574929Y-122414077D02*
X157084878Y-122485568D01*
X157084878Y-122485568D02*
X157392746Y-122748643D01*
X157392746Y-122748643D02*
X157279657Y-122765140D01*
X157279657Y-122765140D02*
X157209764Y-122813835D01*
X157209764Y-122813835D02*
X157177567Y-122857031D01*
X157177567Y-122857031D02*
X157150869Y-122937922D01*
X157150869Y-122937922D02*
X157178366Y-123126404D01*
X157178366Y-123126404D02*
X157227060Y-123196297D01*
X157227060Y-123196297D02*
X157270256Y-123228494D01*
X157270256Y-123228494D02*
X157351148Y-123255191D01*
X157351148Y-123255191D02*
X157577325Y-123222196D01*
X157577325Y-123222196D02*
X157647218Y-123173501D01*
X157647218Y-123173501D02*
X157679415Y-123130305D01*
X159074877Y-125570612D02*
X159527232Y-125504621D01*
X159301054Y-125537616D02*
X159185569Y-124745996D01*
X159185569Y-124745996D02*
X159277460Y-124848086D01*
X159277460Y-124848086D02*
X159363851Y-124912480D01*
X159363851Y-124912480D02*
X159444742Y-124939177D01*
X158320952Y-125680598D02*
X158773307Y-125614606D01*
X158547130Y-125647602D02*
X158431645Y-124855981D01*
X158431645Y-124855981D02*
X158523535Y-124958071D01*
X158523535Y-124958071D02*
X158609926Y-125022465D01*
X158609926Y-125022465D02*
X158690818Y-125049163D01*
X157567028Y-125790583D02*
X158019382Y-125724592D01*
X157793205Y-125757588D02*
X157677720Y-124965967D01*
X157677720Y-124965967D02*
X157769610Y-125068057D01*
X157769610Y-125068057D02*
X157856001Y-125132451D01*
X157856001Y-125132451D02*
X157936893Y-125159149D01*
X159589931Y-127253892D02*
X159514538Y-127264891D01*
X159514538Y-127264891D02*
X159444645Y-127313586D01*
X159444645Y-127313586D02*
X159412448Y-127356781D01*
X159412448Y-127356781D02*
X159385750Y-127437673D01*
X159385750Y-127437673D02*
X159370051Y-127593957D01*
X159370051Y-127593957D02*
X159397548Y-127782438D01*
X159397548Y-127782438D02*
X159457241Y-127927724D01*
X159457241Y-127927724D02*
X159505936Y-127997617D01*
X159505936Y-127997617D02*
X159549131Y-128029814D01*
X159549131Y-128029814D02*
X159630023Y-128056512D01*
X159630023Y-128056512D02*
X159705416Y-128045513D01*
X159705416Y-128045513D02*
X159775309Y-127996818D01*
X159775309Y-127996818D02*
X159807506Y-127953623D01*
X159807506Y-127953623D02*
X159834203Y-127872731D01*
X159834203Y-127872731D02*
X159849902Y-127716447D01*
X159849902Y-127716447D02*
X159822406Y-127527966D01*
X159822406Y-127527966D02*
X159762713Y-127382680D01*
X159762713Y-127382680D02*
X159714018Y-127312787D01*
X159714018Y-127312787D02*
X159670822Y-127280590D01*
X159670822Y-127280590D02*
X159589931Y-127253892D01*
X158687617Y-128193994D02*
X159139972Y-128128002D01*
X158913795Y-128160998D02*
X158798310Y-127369377D01*
X158798310Y-127369377D02*
X158890200Y-127471467D01*
X158890200Y-127471467D02*
X158976591Y-127535861D01*
X158976591Y-127535861D02*
X159057483Y-127562559D01*
X158082081Y-127473864D02*
X158006689Y-127484862D01*
X158006689Y-127484862D02*
X157936796Y-127533557D01*
X157936796Y-127533557D02*
X157904599Y-127576753D01*
X157904599Y-127576753D02*
X157877901Y-127657644D01*
X157877901Y-127657644D02*
X157862202Y-127813929D01*
X157862202Y-127813929D02*
X157889698Y-128002410D01*
X157889698Y-128002410D02*
X157949392Y-128147695D01*
X157949392Y-128147695D02*
X157998087Y-128217588D01*
X157998087Y-128217588D02*
X158041282Y-128249785D01*
X158041282Y-128249785D02*
X158122174Y-128276483D01*
X158122174Y-128276483D02*
X158197566Y-128265484D01*
X158197566Y-128265484D02*
X158267459Y-128216790D01*
X158267459Y-128216790D02*
X158299656Y-128173594D01*
X158299656Y-128173594D02*
X158326354Y-128092702D01*
X158326354Y-128092702D02*
X158342053Y-127936418D01*
X158342053Y-127936418D02*
X158314557Y-127747937D01*
X158314557Y-127747937D02*
X158254863Y-127602652D01*
X158254863Y-127602652D02*
X158206169Y-127532758D01*
X158206169Y-127532758D02*
X158162973Y-127500561D01*
X158162973Y-127500561D02*
X158082081Y-127473864D01*
X144964898Y-103718592D02*
X144889505Y-103729591D01*
X144889505Y-103729591D02*
X144819612Y-103778286D01*
X144819612Y-103778286D02*
X144787415Y-103821481D01*
X144787415Y-103821481D02*
X144760717Y-103902373D01*
X144760717Y-103902373D02*
X144745018Y-104058657D01*
X144745018Y-104058657D02*
X144772515Y-104247138D01*
X144772515Y-104247138D02*
X144832208Y-104392424D01*
X144832208Y-104392424D02*
X144880903Y-104462317D01*
X144880903Y-104462317D02*
X144924098Y-104494514D01*
X144924098Y-104494514D02*
X145004990Y-104521212D01*
X145004990Y-104521212D02*
X145080383Y-104510213D01*
X145080383Y-104510213D02*
X145150276Y-104461518D01*
X145150276Y-104461518D02*
X145182473Y-104418323D01*
X145182473Y-104418323D02*
X145209170Y-104337431D01*
X145209170Y-104337431D02*
X145224869Y-104181147D01*
X145224869Y-104181147D02*
X145197373Y-103992666D01*
X145197373Y-103992666D02*
X145137680Y-103847380D01*
X145137680Y-103847380D02*
X145088985Y-103777487D01*
X145088985Y-103777487D02*
X145045789Y-103745290D01*
X145045789Y-103745290D02*
X144964898Y-103718592D01*
X144210973Y-103828578D02*
X144135581Y-103839577D01*
X144135581Y-103839577D02*
X144065687Y-103888271D01*
X144065687Y-103888271D02*
X144033490Y-103931467D01*
X144033490Y-103931467D02*
X144006793Y-104012359D01*
X144006793Y-104012359D02*
X143991094Y-104168643D01*
X143991094Y-104168643D02*
X144018590Y-104357124D01*
X144018590Y-104357124D02*
X144078283Y-104502410D01*
X144078283Y-104502410D02*
X144126978Y-104572303D01*
X144126978Y-104572303D02*
X144170174Y-104604500D01*
X144170174Y-104604500D02*
X144251065Y-104631197D01*
X144251065Y-104631197D02*
X144326458Y-104620199D01*
X144326458Y-104620199D02*
X144396351Y-104571504D01*
X144396351Y-104571504D02*
X144428548Y-104528308D01*
X144428548Y-104528308D02*
X144455246Y-104447417D01*
X144455246Y-104447417D02*
X144470945Y-104291133D01*
X144470945Y-104291133D02*
X144443448Y-104102651D01*
X144443448Y-104102651D02*
X144383755Y-103957366D01*
X144383755Y-103957366D02*
X144335060Y-103887473D01*
X144335060Y-103887473D02*
X144291865Y-103855276D01*
X144291865Y-103855276D02*
X144210973Y-103828578D01*
X143268567Y-103966060D02*
X143419352Y-103944063D01*
X143419352Y-103944063D02*
X143500244Y-103970761D01*
X143500244Y-103970761D02*
X143543439Y-104002958D01*
X143543439Y-104002958D02*
X143635330Y-104105048D01*
X143635330Y-104105048D02*
X143695023Y-104250333D01*
X143695023Y-104250333D02*
X143739017Y-104551903D01*
X143739017Y-104551903D02*
X143712320Y-104632795D01*
X143712320Y-104632795D02*
X143680123Y-104675990D01*
X143680123Y-104675990D02*
X143610229Y-104724685D01*
X143610229Y-104724685D02*
X143459445Y-104746682D01*
X143459445Y-104746682D02*
X143378553Y-104719985D01*
X143378553Y-104719985D02*
X143335357Y-104687788D01*
X143335357Y-104687788D02*
X143286663Y-104617895D01*
X143286663Y-104617895D02*
X143259166Y-104429413D01*
X143259166Y-104429413D02*
X143285864Y-104348522D01*
X143285864Y-104348522D02*
X143318061Y-104305326D01*
X143318061Y-104305326D02*
X143387954Y-104256631D01*
X143387954Y-104256631D02*
X143538739Y-104234634D01*
X143538739Y-104234634D02*
X143619631Y-104261332D01*
X143619631Y-104261332D02*
X143662826Y-104293529D01*
X143662826Y-104293529D02*
X143711521Y-104363422D01*
X145321457Y-106162721D02*
X145246064Y-106173720D01*
X145246064Y-106173720D02*
X145176171Y-106222415D01*
X145176171Y-106222415D02*
X145143974Y-106265610D01*
X145143974Y-106265610D02*
X145117276Y-106346502D01*
X145117276Y-106346502D02*
X145101577Y-106502786D01*
X145101577Y-106502786D02*
X145129074Y-106691267D01*
X145129074Y-106691267D02*
X145188767Y-106836553D01*
X145188767Y-106836553D02*
X145237462Y-106906446D01*
X145237462Y-106906446D02*
X145280657Y-106938643D01*
X145280657Y-106938643D02*
X145361549Y-106965341D01*
X145361549Y-106965341D02*
X145436942Y-106954342D01*
X145436942Y-106954342D02*
X145506835Y-106905647D01*
X145506835Y-106905647D02*
X145539032Y-106862452D01*
X145539032Y-106862452D02*
X145565729Y-106781560D01*
X145565729Y-106781560D02*
X145581428Y-106625276D01*
X145581428Y-106625276D02*
X145553932Y-106436795D01*
X145553932Y-106436795D02*
X145494239Y-106291509D01*
X145494239Y-106291509D02*
X145445544Y-106221616D01*
X145445544Y-106221616D02*
X145402348Y-106189419D01*
X145402348Y-106189419D02*
X145321457Y-106162721D01*
X144567532Y-106272707D02*
X144492140Y-106283706D01*
X144492140Y-106283706D02*
X144422246Y-106332400D01*
X144422246Y-106332400D02*
X144390049Y-106375596D01*
X144390049Y-106375596D02*
X144363352Y-106456488D01*
X144363352Y-106456488D02*
X144347653Y-106612772D01*
X144347653Y-106612772D02*
X144375149Y-106801253D01*
X144375149Y-106801253D02*
X144434842Y-106946539D01*
X144434842Y-106946539D02*
X144483537Y-107016432D01*
X144483537Y-107016432D02*
X144526733Y-107048629D01*
X144526733Y-107048629D02*
X144607624Y-107075326D01*
X144607624Y-107075326D02*
X144683017Y-107064328D01*
X144683017Y-107064328D02*
X144752910Y-107015633D01*
X144752910Y-107015633D02*
X144785107Y-106972437D01*
X144785107Y-106972437D02*
X144811805Y-106891546D01*
X144811805Y-106891546D02*
X144827504Y-106735262D01*
X144827504Y-106735262D02*
X144800007Y-106546780D01*
X144800007Y-106546780D02*
X144740314Y-106401495D01*
X144740314Y-106401495D02*
X144691619Y-106331602D01*
X144691619Y-106331602D02*
X144648424Y-106299405D01*
X144648424Y-106299405D02*
X144567532Y-106272707D01*
X143900797Y-106716460D02*
X143970690Y-106667765D01*
X143970690Y-106667765D02*
X144002887Y-106624569D01*
X144002887Y-106624569D02*
X144029585Y-106543678D01*
X144029585Y-106543678D02*
X144024086Y-106505981D01*
X144024086Y-106505981D02*
X143975391Y-106436088D01*
X143975391Y-106436088D02*
X143932195Y-106403891D01*
X143932195Y-106403891D02*
X143851304Y-106377194D01*
X143851304Y-106377194D02*
X143700519Y-106399191D01*
X143700519Y-106399191D02*
X143630625Y-106447885D01*
X143630625Y-106447885D02*
X143598429Y-106491081D01*
X143598429Y-106491081D02*
X143571731Y-106571973D01*
X143571731Y-106571973D02*
X143577230Y-106609669D01*
X143577230Y-106609669D02*
X143625925Y-106679562D01*
X143625925Y-106679562D02*
X143669120Y-106711759D01*
X143669120Y-106711759D02*
X143750012Y-106738457D01*
X143750012Y-106738457D02*
X143900797Y-106716460D01*
X143900797Y-106716460D02*
X143981689Y-106743157D01*
X143981689Y-106743157D02*
X144024884Y-106775354D01*
X144024884Y-106775354D02*
X144073579Y-106845247D01*
X144073579Y-106845247D02*
X144095576Y-106996032D01*
X144095576Y-106996032D02*
X144068879Y-107076924D01*
X144068879Y-107076924D02*
X144036682Y-107120119D01*
X144036682Y-107120119D02*
X143966788Y-107168814D01*
X143966788Y-107168814D02*
X143816004Y-107190811D01*
X143816004Y-107190811D02*
X143735112Y-107164114D01*
X143735112Y-107164114D02*
X143691916Y-107131917D01*
X143691916Y-107131917D02*
X143643222Y-107062024D01*
X143643222Y-107062024D02*
X143621224Y-106911239D01*
X143621224Y-106911239D02*
X143647922Y-106830347D01*
X143647922Y-106830347D02*
X143680119Y-106787151D01*
X143680119Y-106787151D02*
X143750012Y-106738457D01*
X145590636Y-108799578D02*
X145660529Y-108750883D01*
X145660529Y-108750883D02*
X145773618Y-108734385D01*
X145773618Y-108734385D02*
X145892206Y-108755584D01*
X145892206Y-108755584D02*
X145978597Y-108819978D01*
X145978597Y-108819978D02*
X146027292Y-108889871D01*
X146027292Y-108889871D02*
X146086985Y-109035156D01*
X146086985Y-109035156D02*
X146103483Y-109148245D01*
X146103483Y-109148245D02*
X146087784Y-109304529D01*
X146087784Y-109304529D02*
X146061086Y-109385421D01*
X146061086Y-109385421D02*
X145996692Y-109471812D01*
X145996692Y-109471812D02*
X145889103Y-109526006D01*
X145889103Y-109526006D02*
X145813711Y-109537005D01*
X145813711Y-109537005D02*
X145695123Y-109515806D01*
X145695123Y-109515806D02*
X145651927Y-109483609D01*
X145651927Y-109483609D02*
X145613432Y-109219736D01*
X145613432Y-109219736D02*
X145764217Y-109197739D01*
X145323660Y-109608495D02*
X145208175Y-108816875D01*
X145208175Y-108816875D02*
X144871305Y-109674487D01*
X144871305Y-109674487D02*
X144755820Y-108882866D01*
X144494343Y-109729480D02*
X144378858Y-108937859D01*
X144378858Y-108937859D02*
X144190377Y-108965355D01*
X144190377Y-108965355D02*
X144082788Y-109019549D01*
X144082788Y-109019549D02*
X144018394Y-109105940D01*
X144018394Y-109105940D02*
X143991696Y-109186832D01*
X143991696Y-109186832D02*
X143975997Y-109343116D01*
X143975997Y-109343116D02*
X143992495Y-109456205D01*
X143992495Y-109456205D02*
X144052188Y-109601491D01*
X144052188Y-109601491D02*
X144100883Y-109671384D01*
X144100883Y-109671384D02*
X144187274Y-109735778D01*
X144187274Y-109735778D02*
X144305862Y-109756976D01*
X144305862Y-109756976D02*
X144494343Y-109729480D01*
X145957301Y-111312973D02*
X146027194Y-111264278D01*
X146027194Y-111264278D02*
X146140283Y-111247780D01*
X146140283Y-111247780D02*
X146258871Y-111268979D01*
X146258871Y-111268979D02*
X146345262Y-111333373D01*
X146345262Y-111333373D02*
X146393957Y-111403266D01*
X146393957Y-111403266D02*
X146453650Y-111548551D01*
X146453650Y-111548551D02*
X146470148Y-111661640D01*
X146470148Y-111661640D02*
X146454449Y-111817924D01*
X146454449Y-111817924D02*
X146427751Y-111898816D01*
X146427751Y-111898816D02*
X146363357Y-111985207D01*
X146363357Y-111985207D02*
X146255768Y-112039401D01*
X146255768Y-112039401D02*
X146180376Y-112050400D01*
X146180376Y-112050400D02*
X146061788Y-112029201D01*
X146061788Y-112029201D02*
X146018592Y-111997004D01*
X146018592Y-111997004D02*
X145980097Y-111733131D01*
X145980097Y-111733131D02*
X146130882Y-111711134D01*
X145690325Y-112121890D02*
X145574840Y-111330270D01*
X145574840Y-111330270D02*
X145237970Y-112187882D01*
X145237970Y-112187882D02*
X145122485Y-111396261D01*
X144861008Y-112242875D02*
X144745523Y-111451254D01*
X144745523Y-111451254D02*
X144557042Y-111478750D01*
X144557042Y-111478750D02*
X144449453Y-111532944D01*
X144449453Y-111532944D02*
X144385059Y-111619335D01*
X144385059Y-111619335D02*
X144358361Y-111700227D01*
X144358361Y-111700227D02*
X144342662Y-111856511D01*
X144342662Y-111856511D02*
X144359160Y-111969600D01*
X144359160Y-111969600D02*
X144418853Y-112114886D01*
X144418853Y-112114886D02*
X144467548Y-112184779D01*
X144467548Y-112184779D02*
X144553939Y-112249173D01*
X144553939Y-112249173D02*
X144672527Y-112270371D01*
X144672527Y-112270371D02*
X144861008Y-112242875D01*
X146433000Y-113782070D02*
X146357607Y-113793069D01*
X146357607Y-113793069D02*
X146287714Y-113841764D01*
X146287714Y-113841764D02*
X146255517Y-113884959D01*
X146255517Y-113884959D02*
X146228819Y-113965851D01*
X146228819Y-113965851D02*
X146213120Y-114122135D01*
X146213120Y-114122135D02*
X146240617Y-114310616D01*
X146240617Y-114310616D02*
X146300310Y-114455902D01*
X146300310Y-114455902D02*
X146349005Y-114525795D01*
X146349005Y-114525795D02*
X146392200Y-114557992D01*
X146392200Y-114557992D02*
X146473092Y-114584690D01*
X146473092Y-114584690D02*
X146548485Y-114573691D01*
X146548485Y-114573691D02*
X146618378Y-114524996D01*
X146618378Y-114524996D02*
X146650575Y-114481801D01*
X146650575Y-114481801D02*
X146677272Y-114400909D01*
X146677272Y-114400909D02*
X146692971Y-114244625D01*
X146692971Y-114244625D02*
X146665475Y-114056144D01*
X146665475Y-114056144D02*
X146605782Y-113910858D01*
X146605782Y-113910858D02*
X146557087Y-113840965D01*
X146557087Y-113840965D02*
X146513891Y-113808768D01*
X146513891Y-113808768D02*
X146433000Y-113782070D01*
X145530686Y-114722172D02*
X145983041Y-114656180D01*
X145756864Y-114689176D02*
X145641379Y-113897555D01*
X145641379Y-113897555D02*
X145733269Y-113999645D01*
X145733269Y-113999645D02*
X145819660Y-114064039D01*
X145819660Y-114064039D02*
X145900552Y-114090737D01*
X145151328Y-113969046D02*
X144623581Y-114046036D01*
X144623581Y-114046036D02*
X145078331Y-114788163D01*
X146808326Y-116354837D02*
X146732933Y-116365836D01*
X146732933Y-116365836D02*
X146663040Y-116414531D01*
X146663040Y-116414531D02*
X146630843Y-116457726D01*
X146630843Y-116457726D02*
X146604145Y-116538618D01*
X146604145Y-116538618D02*
X146588446Y-116694902D01*
X146588446Y-116694902D02*
X146615943Y-116883383D01*
X146615943Y-116883383D02*
X146675636Y-117028669D01*
X146675636Y-117028669D02*
X146724331Y-117098562D01*
X146724331Y-117098562D02*
X146767526Y-117130759D01*
X146767526Y-117130759D02*
X146848418Y-117157457D01*
X146848418Y-117157457D02*
X146923811Y-117146458D01*
X146923811Y-117146458D02*
X146993704Y-117097763D01*
X146993704Y-117097763D02*
X147025901Y-117054568D01*
X147025901Y-117054568D02*
X147052598Y-116973676D01*
X147052598Y-116973676D02*
X147068297Y-116817392D01*
X147068297Y-116817392D02*
X147040801Y-116628911D01*
X147040801Y-116628911D02*
X146981108Y-116483625D01*
X146981108Y-116483625D02*
X146932413Y-116413732D01*
X146932413Y-116413732D02*
X146889217Y-116381535D01*
X146889217Y-116381535D02*
X146808326Y-116354837D01*
X146253881Y-116512719D02*
X146210685Y-116480522D01*
X146210685Y-116480522D02*
X146129793Y-116453825D01*
X146129793Y-116453825D02*
X145941312Y-116481321D01*
X145941312Y-116481321D02*
X145871419Y-116530016D01*
X145871419Y-116530016D02*
X145839222Y-116573211D01*
X145839222Y-116573211D02*
X145812525Y-116654103D01*
X145812525Y-116654103D02*
X145823523Y-116729495D01*
X145823523Y-116729495D02*
X145877717Y-116837085D01*
X145877717Y-116837085D02*
X146396063Y-117223448D01*
X146396063Y-117223448D02*
X145906012Y-117294939D01*
X145300476Y-116574809D02*
X145225084Y-116585807D01*
X145225084Y-116585807D02*
X145155191Y-116634502D01*
X145155191Y-116634502D02*
X145122994Y-116677698D01*
X145122994Y-116677698D02*
X145096296Y-116758589D01*
X145096296Y-116758589D02*
X145080597Y-116914874D01*
X145080597Y-116914874D02*
X145108093Y-117103355D01*
X145108093Y-117103355D02*
X145167787Y-117248640D01*
X145167787Y-117248640D02*
X145216482Y-117318533D01*
X145216482Y-117318533D02*
X145259677Y-117350730D01*
X145259677Y-117350730D02*
X145340569Y-117377428D01*
X145340569Y-117377428D02*
X145415961Y-117366429D01*
X145415961Y-117366429D02*
X145485854Y-117317735D01*
X145485854Y-117317735D02*
X145518051Y-117274539D01*
X145518051Y-117274539D02*
X145544749Y-117193647D01*
X145544749Y-117193647D02*
X145560448Y-117037363D01*
X145560448Y-117037363D02*
X145532952Y-116848882D01*
X145532952Y-116848882D02*
X145473258Y-116703597D01*
X145473258Y-116703597D02*
X145424564Y-116633703D01*
X145424564Y-116633703D02*
X145381368Y-116601506D01*
X145381368Y-116601506D02*
X145300476Y-116574809D01*
X147169217Y-118828651D02*
X147093824Y-118839650D01*
X147093824Y-118839650D02*
X147023931Y-118888345D01*
X147023931Y-118888345D02*
X146991734Y-118931540D01*
X146991734Y-118931540D02*
X146965036Y-119012432D01*
X146965036Y-119012432D02*
X146949337Y-119168716D01*
X146949337Y-119168716D02*
X146976834Y-119357197D01*
X146976834Y-119357197D02*
X147036527Y-119502483D01*
X147036527Y-119502483D02*
X147085222Y-119572376D01*
X147085222Y-119572376D02*
X147128417Y-119604573D01*
X147128417Y-119604573D02*
X147209309Y-119631271D01*
X147209309Y-119631271D02*
X147284702Y-119620272D01*
X147284702Y-119620272D02*
X147354595Y-119571577D01*
X147354595Y-119571577D02*
X147386792Y-119528382D01*
X147386792Y-119528382D02*
X147413489Y-119447490D01*
X147413489Y-119447490D02*
X147429188Y-119291206D01*
X147429188Y-119291206D02*
X147401692Y-119102725D01*
X147401692Y-119102725D02*
X147341999Y-118957439D01*
X147341999Y-118957439D02*
X147293304Y-118887546D01*
X147293304Y-118887546D02*
X147250108Y-118855349D01*
X147250108Y-118855349D02*
X147169217Y-118828651D01*
X146614772Y-118986533D02*
X146571576Y-118954336D01*
X146571576Y-118954336D02*
X146490684Y-118927639D01*
X146490684Y-118927639D02*
X146302203Y-118955135D01*
X146302203Y-118955135D02*
X146232310Y-119003830D01*
X146232310Y-119003830D02*
X146200113Y-119047025D01*
X146200113Y-119047025D02*
X146173416Y-119127917D01*
X146173416Y-119127917D02*
X146184414Y-119203309D01*
X146184414Y-119203309D02*
X146238608Y-119310899D01*
X146238608Y-119310899D02*
X146756954Y-119697262D01*
X146756954Y-119697262D02*
X146266903Y-119768753D01*
X145860847Y-119096519D02*
X145817651Y-119064322D01*
X145817651Y-119064322D02*
X145736760Y-119037624D01*
X145736760Y-119037624D02*
X145548279Y-119065121D01*
X145548279Y-119065121D02*
X145478385Y-119113815D01*
X145478385Y-119113815D02*
X145446189Y-119157011D01*
X145446189Y-119157011D02*
X145419491Y-119237903D01*
X145419491Y-119237903D02*
X145430489Y-119313295D01*
X145430489Y-119313295D02*
X145484684Y-119420885D01*
X145484684Y-119420885D02*
X146003030Y-119807248D01*
X146003030Y-119807248D02*
X145512979Y-119878738D01*
X147531551Y-121312361D02*
X147456158Y-121323360D01*
X147456158Y-121323360D02*
X147386265Y-121372055D01*
X147386265Y-121372055D02*
X147354068Y-121415250D01*
X147354068Y-121415250D02*
X147327370Y-121496142D01*
X147327370Y-121496142D02*
X147311671Y-121652426D01*
X147311671Y-121652426D02*
X147339168Y-121840907D01*
X147339168Y-121840907D02*
X147398861Y-121986193D01*
X147398861Y-121986193D02*
X147447556Y-122056086D01*
X147447556Y-122056086D02*
X147490751Y-122088283D01*
X147490751Y-122088283D02*
X147571643Y-122114981D01*
X147571643Y-122114981D02*
X147647036Y-122103982D01*
X147647036Y-122103982D02*
X147716929Y-122055287D01*
X147716929Y-122055287D02*
X147749126Y-122012092D01*
X147749126Y-122012092D02*
X147775823Y-121931200D01*
X147775823Y-121931200D02*
X147791522Y-121774916D01*
X147791522Y-121774916D02*
X147764026Y-121586435D01*
X147764026Y-121586435D02*
X147704333Y-121441149D01*
X147704333Y-121441149D02*
X147655638Y-121371256D01*
X147655638Y-121371256D02*
X147612442Y-121339059D01*
X147612442Y-121339059D02*
X147531551Y-121312361D01*
X146977106Y-121470243D02*
X146933910Y-121438046D01*
X146933910Y-121438046D02*
X146853018Y-121411349D01*
X146853018Y-121411349D02*
X146664537Y-121438845D01*
X146664537Y-121438845D02*
X146594644Y-121487540D01*
X146594644Y-121487540D02*
X146562447Y-121530735D01*
X146562447Y-121530735D02*
X146535750Y-121611627D01*
X146535750Y-121611627D02*
X146546748Y-121687019D01*
X146546748Y-121687019D02*
X146600942Y-121794609D01*
X146600942Y-121794609D02*
X147119288Y-122180972D01*
X147119288Y-122180972D02*
X146629237Y-122252463D01*
X145873715Y-121823703D02*
X145950705Y-122351450D01*
X146018202Y-121494637D02*
X146289172Y-122032584D01*
X146289172Y-122032584D02*
X145799122Y-122104074D01*
X147749827Y-124655872D02*
X148202182Y-124589881D01*
X147976004Y-124622876D02*
X147860519Y-123831256D01*
X147860519Y-123831256D02*
X147952410Y-123933346D01*
X147952410Y-123933346D02*
X148038801Y-123997740D01*
X148038801Y-123997740D02*
X148119692Y-124024437D01*
X147144291Y-123935742D02*
X147068899Y-123946741D01*
X147068899Y-123946741D02*
X146999005Y-123995435D01*
X146999005Y-123995435D02*
X146966808Y-124038631D01*
X146966808Y-124038631D02*
X146940111Y-124119523D01*
X146940111Y-124119523D02*
X146924412Y-124275807D01*
X146924412Y-124275807D02*
X146951908Y-124464288D01*
X146951908Y-124464288D02*
X147011601Y-124609574D01*
X147011601Y-124609574D02*
X147060296Y-124679467D01*
X147060296Y-124679467D02*
X147103492Y-124711664D01*
X147103492Y-124711664D02*
X147184383Y-124738361D01*
X147184383Y-124738361D02*
X147259776Y-124727363D01*
X147259776Y-124727363D02*
X147329669Y-124678668D01*
X147329669Y-124678668D02*
X147361866Y-124635472D01*
X147361866Y-124635472D02*
X147388564Y-124554581D01*
X147388564Y-124554581D02*
X147404263Y-124398297D01*
X147404263Y-124398297D02*
X147376766Y-124209815D01*
X147376766Y-124209815D02*
X147317073Y-124064530D01*
X147317073Y-124064530D02*
X147268378Y-123994637D01*
X147268378Y-123994637D02*
X147225183Y-123962440D01*
X147225183Y-123962440D02*
X147144291Y-123935742D01*
X146390366Y-124045728D02*
X146314974Y-124056726D01*
X146314974Y-124056726D02*
X146245081Y-124105421D01*
X146245081Y-124105421D02*
X146212884Y-124148617D01*
X146212884Y-124148617D02*
X146186186Y-124229508D01*
X146186186Y-124229508D02*
X146170487Y-124385793D01*
X146170487Y-124385793D02*
X146197983Y-124574274D01*
X146197983Y-124574274D02*
X146257677Y-124719559D01*
X146257677Y-124719559D02*
X146306372Y-124789452D01*
X146306372Y-124789452D02*
X146349567Y-124821649D01*
X146349567Y-124821649D02*
X146430459Y-124848347D01*
X146430459Y-124848347D02*
X146505851Y-124837348D01*
X146505851Y-124837348D02*
X146575744Y-124788654D01*
X146575744Y-124788654D02*
X146607941Y-124745458D01*
X146607941Y-124745458D02*
X146634639Y-124664566D01*
X146634639Y-124664566D02*
X146650338Y-124508282D01*
X146650338Y-124508282D02*
X146622842Y-124319801D01*
X146622842Y-124319801D02*
X146563148Y-124174516D01*
X146563148Y-124174516D02*
X146514454Y-124104622D01*
X146514454Y-124104622D02*
X146471258Y-124072425D01*
X146471258Y-124072425D02*
X146390366Y-124045728D01*
X148483156Y-129682663D02*
X148935511Y-129616672D01*
X148709333Y-129649667D02*
X148593848Y-128858047D01*
X148593848Y-128858047D02*
X148685739Y-128960137D01*
X148685739Y-128960137D02*
X148772130Y-129024531D01*
X148772130Y-129024531D02*
X148853021Y-129051228D01*
X147877620Y-128962533D02*
X147802228Y-128973532D01*
X147802228Y-128973532D02*
X147732334Y-129022226D01*
X147732334Y-129022226D02*
X147700137Y-129065422D01*
X147700137Y-129065422D02*
X147673440Y-129146314D01*
X147673440Y-129146314D02*
X147657741Y-129302598D01*
X147657741Y-129302598D02*
X147685237Y-129491079D01*
X147685237Y-129491079D02*
X147744930Y-129636365D01*
X147744930Y-129636365D02*
X147793625Y-129706258D01*
X147793625Y-129706258D02*
X147836821Y-129738455D01*
X147836821Y-129738455D02*
X147917712Y-129765152D01*
X147917712Y-129765152D02*
X147993105Y-129754154D01*
X147993105Y-129754154D02*
X148062998Y-129705459D01*
X148062998Y-129705459D02*
X148095195Y-129662263D01*
X148095195Y-129662263D02*
X148121893Y-129581372D01*
X148121893Y-129581372D02*
X148137592Y-129425088D01*
X148137592Y-129425088D02*
X148110095Y-129236606D01*
X148110095Y-129236606D02*
X148050402Y-129091321D01*
X148050402Y-129091321D02*
X148001707Y-129021428D01*
X148001707Y-129021428D02*
X147958512Y-128989231D01*
X147958512Y-128989231D02*
X147877620Y-128962533D01*
X146973709Y-129363889D02*
X147050699Y-129891636D01*
X147118196Y-129034823D02*
X147389166Y-129572770D01*
X147389166Y-129572770D02*
X146899116Y-129644260D01*
D11*
%TO.C,MCU1*%
X162729184Y-131088592D02*
X157962542Y-98414451D01*
X145135415Y-133655246D02*
X162729184Y-131088592D01*
X140368773Y-100981104D02*
X145135415Y-133655246D01*
X157962542Y-98414451D02*
X140368773Y-100981104D01*
D12*
%TO.C,D27*%
X174982311Y-115791546D02*
X175482311Y-115791546D01*
X174982311Y-116191546D02*
X174382311Y-115791546D01*
X174982311Y-115391546D02*
X174982311Y-116191546D01*
X174382311Y-115791546D02*
X174982311Y-115391546D01*
X174382311Y-115791546D02*
X174382311Y-116341546D01*
X174382311Y-115791546D02*
X174382311Y-115241546D01*
X173982311Y-115791546D02*
X174382311Y-115791546D01*
%TO.C,D26*%
X174982311Y-134791546D02*
X175482311Y-134791546D01*
X174982311Y-135191546D02*
X174382311Y-134791546D01*
X174982311Y-134391546D02*
X174982311Y-135191546D01*
X174382311Y-134791546D02*
X174982311Y-134391546D01*
X174382311Y-134791546D02*
X174382311Y-135341546D01*
X174382311Y-134791546D02*
X174382311Y-134241546D01*
X173982311Y-134791546D02*
X174382311Y-134791546D01*
%TO.C,D25*%
X174982311Y-153791546D02*
X175482311Y-153791546D01*
X174982311Y-154191546D02*
X174382311Y-153791546D01*
X174982311Y-153391546D02*
X174982311Y-154191546D01*
X174382311Y-153791546D02*
X174982311Y-153391546D01*
X174382311Y-153791546D02*
X174382311Y-154341546D01*
X174382311Y-153791546D02*
X174382311Y-153241546D01*
X173982311Y-153791546D02*
X174382311Y-153791546D01*
%TO.C,D24*%
X174982311Y-172791546D02*
X175482311Y-172791546D01*
X174982311Y-173191546D02*
X174382311Y-172791546D01*
X174982311Y-172391546D02*
X174982311Y-173191546D01*
X174382311Y-172791546D02*
X174982311Y-172391546D01*
X174382311Y-172791546D02*
X174382311Y-173341546D01*
X174382311Y-172791546D02*
X174382311Y-172241546D01*
X173982311Y-172791546D02*
X174382311Y-172791546D01*
%TO.C,D28*%
X154982311Y-167791546D02*
X155482311Y-167791546D01*
X154982311Y-168191546D02*
X154382311Y-167791546D01*
X154982311Y-167391546D02*
X154982311Y-168191546D01*
X154382311Y-167791546D02*
X154982311Y-167391546D01*
X154382311Y-167791546D02*
X154382311Y-168341546D01*
X154382311Y-167791546D02*
X154382311Y-167241546D01*
X153982311Y-167791546D02*
X154382311Y-167791546D01*
%TO.C,D30*%
X147124936Y-192167349D02*
X147279445Y-192642877D01*
X146744514Y-192290956D02*
X146939526Y-191596715D01*
X147505359Y-192043742D02*
X146744514Y-192290956D01*
X146939526Y-191596715D02*
X147505359Y-192043742D01*
X146939526Y-191596715D02*
X146416445Y-191766675D01*
X146939526Y-191596715D02*
X147462607Y-191426756D01*
X146815919Y-191216293D02*
X146939526Y-191596715D01*
%TO.C,D29*%
X173831009Y-194267508D02*
X174306537Y-194112999D01*
X173954616Y-194647930D02*
X173260375Y-194452918D01*
X173707402Y-193887085D02*
X173954616Y-194647930D01*
X173260375Y-194452918D02*
X173707402Y-193887085D01*
X173260375Y-194452918D02*
X173430335Y-194975999D01*
X173260375Y-194452918D02*
X173090416Y-193929837D01*
X172879953Y-194576525D02*
X173260375Y-194452918D01*
%TO.C,D19*%
X193982311Y-189791546D02*
X194482311Y-189791546D01*
X193982311Y-190191546D02*
X193382311Y-189791546D01*
X193982311Y-189391546D02*
X193982311Y-190191546D01*
X193382311Y-189791546D02*
X193982311Y-189391546D01*
X193382311Y-189791546D02*
X193382311Y-190341546D01*
X193382311Y-189791546D02*
X193382311Y-189241546D01*
X192982311Y-189791546D02*
X193382311Y-189791546D01*
%TO.C,D20*%
X193982311Y-170791546D02*
X194482311Y-170791546D01*
X193982311Y-171191546D02*
X193382311Y-170791546D01*
X193982311Y-170391546D02*
X193982311Y-171191546D01*
X193382311Y-170791546D02*
X193982311Y-170391546D01*
X193382311Y-170791546D02*
X193382311Y-171341546D01*
X193382311Y-170791546D02*
X193382311Y-170241546D01*
X192982311Y-170791546D02*
X193382311Y-170791546D01*
%TO.C,D22*%
X193982311Y-132791546D02*
X194482311Y-132791546D01*
X193982311Y-133191546D02*
X193382311Y-132791546D01*
X193982311Y-132391546D02*
X193982311Y-133191546D01*
X193382311Y-132791546D02*
X193982311Y-132391546D01*
X193382311Y-132791546D02*
X193382311Y-133341546D01*
X193382311Y-132791546D02*
X193382311Y-132241546D01*
X192982311Y-132791546D02*
X193382311Y-132791546D01*
%TO.C,D23*%
X193982311Y-113791546D02*
X194482311Y-113791546D01*
X193982311Y-114191546D02*
X193382311Y-113791546D01*
X193982311Y-113391546D02*
X193982311Y-114191546D01*
X193382311Y-113791546D02*
X193982311Y-113391546D01*
X193382311Y-113791546D02*
X193382311Y-114341546D01*
X193382311Y-113791546D02*
X193382311Y-113241546D01*
X192982311Y-113791546D02*
X193382311Y-113791546D01*
%TO.C,D18*%
X212982311Y-107791546D02*
X213482311Y-107791546D01*
X212982311Y-108191546D02*
X212382311Y-107791546D01*
X212982311Y-107391546D02*
X212982311Y-108191546D01*
X212382311Y-107791546D02*
X212982311Y-107391546D01*
X212382311Y-107791546D02*
X212382311Y-108341546D01*
X212382311Y-107791546D02*
X212382311Y-107241546D01*
X211982311Y-107791546D02*
X212382311Y-107791546D01*
%TO.C,D17*%
X212982311Y-126791546D02*
X213482311Y-126791546D01*
X212982311Y-127191546D02*
X212382311Y-126791546D01*
X212982311Y-126391546D02*
X212982311Y-127191546D01*
X212382311Y-126791546D02*
X212982311Y-126391546D01*
X212382311Y-126791546D02*
X212382311Y-127341546D01*
X212382311Y-126791546D02*
X212382311Y-126241546D01*
X211982311Y-126791546D02*
X212382311Y-126791546D01*
%TO.C,D16*%
X212982311Y-145791546D02*
X213482311Y-145791546D01*
X212982311Y-146191546D02*
X212382311Y-145791546D01*
X212982311Y-145391546D02*
X212982311Y-146191546D01*
X212382311Y-145791546D02*
X212982311Y-145391546D01*
X212382311Y-145791546D02*
X212382311Y-146341546D01*
X212382311Y-145791546D02*
X212382311Y-145241546D01*
X211982311Y-145791546D02*
X212382311Y-145791546D01*
%TO.C,D15*%
X212982311Y-164791546D02*
X213482311Y-164791546D01*
X212982311Y-165191546D02*
X212382311Y-164791546D01*
X212982311Y-164391546D02*
X212982311Y-165191546D01*
X212382311Y-164791546D02*
X212982311Y-164391546D01*
X212382311Y-164791546D02*
X212382311Y-165341546D01*
X212382311Y-164791546D02*
X212382311Y-164241546D01*
X211982311Y-164791546D02*
X212382311Y-164791546D01*
%TO.C,D14*%
X212982311Y-183791546D02*
X213482311Y-183791546D01*
X212982311Y-184191546D02*
X212382311Y-183791546D01*
X212982311Y-183391546D02*
X212982311Y-184191546D01*
X212382311Y-183791546D02*
X212982311Y-183391546D01*
X212382311Y-183791546D02*
X212382311Y-184341546D01*
X212382311Y-183791546D02*
X212382311Y-183241546D01*
X211982311Y-183791546D02*
X212382311Y-183791546D01*
%TO.C,D9*%
X231982311Y-188791546D02*
X232482311Y-188791546D01*
X231982311Y-189191546D02*
X231382311Y-188791546D01*
X231982311Y-188391546D02*
X231982311Y-189191546D01*
X231382311Y-188791546D02*
X231982311Y-188391546D01*
X231382311Y-188791546D02*
X231382311Y-189341546D01*
X231382311Y-188791546D02*
X231382311Y-188241546D01*
X230982311Y-188791546D02*
X231382311Y-188791546D01*
%TO.C,D10*%
X231982311Y-169791546D02*
X232482311Y-169791546D01*
X231982311Y-170191546D02*
X231382311Y-169791546D01*
X231982311Y-169391546D02*
X231982311Y-170191546D01*
X231382311Y-169791546D02*
X231982311Y-169391546D01*
X231382311Y-169791546D02*
X231382311Y-170341546D01*
X231382311Y-169791546D02*
X231382311Y-169241546D01*
X230982311Y-169791546D02*
X231382311Y-169791546D01*
%TO.C,D11*%
X231982311Y-150791546D02*
X232482311Y-150791546D01*
X231982311Y-151191546D02*
X231382311Y-150791546D01*
X231982311Y-150391546D02*
X231982311Y-151191546D01*
X231382311Y-150791546D02*
X231982311Y-150391546D01*
X231382311Y-150791546D02*
X231382311Y-151341546D01*
X231382311Y-150791546D02*
X231382311Y-150241546D01*
X230982311Y-150791546D02*
X231382311Y-150791546D01*
%TO.C,D12*%
X231982311Y-131791546D02*
X232482311Y-131791546D01*
X231982311Y-132191546D02*
X231382311Y-131791546D01*
X231982311Y-131391546D02*
X231982311Y-132191546D01*
X231382311Y-131791546D02*
X231982311Y-131391546D01*
X231382311Y-131791546D02*
X231382311Y-132341546D01*
X231382311Y-131791546D02*
X231382311Y-131241546D01*
X230982311Y-131791546D02*
X231382311Y-131791546D01*
%TO.C,D13*%
X231982311Y-112791546D02*
X232482311Y-112791546D01*
X231982311Y-113191546D02*
X231382311Y-112791546D01*
X231982311Y-112391546D02*
X231982311Y-113191546D01*
X231382311Y-112791546D02*
X231982311Y-112391546D01*
X231382311Y-112791546D02*
X231382311Y-113341546D01*
X231382311Y-112791546D02*
X231382311Y-112241546D01*
X230982311Y-112791546D02*
X231382311Y-112791546D01*
%TO.C,D8*%
X250982311Y-124791546D02*
X251482311Y-124791546D01*
X250982311Y-125191546D02*
X250382311Y-124791546D01*
X250982311Y-124391546D02*
X250982311Y-125191546D01*
X250382311Y-124791546D02*
X250982311Y-124391546D01*
X250382311Y-124791546D02*
X250382311Y-125341546D01*
X250382311Y-124791546D02*
X250382311Y-124241546D01*
X249982311Y-124791546D02*
X250382311Y-124791546D01*
%TO.C,D7*%
X250982311Y-143791546D02*
X251482311Y-143791546D01*
X250982311Y-144191546D02*
X250382311Y-143791546D01*
X250982311Y-143391546D02*
X250982311Y-144191546D01*
X250382311Y-143791546D02*
X250982311Y-143391546D01*
X250382311Y-143791546D02*
X250382311Y-144341546D01*
X250382311Y-143791546D02*
X250382311Y-143241546D01*
X249982311Y-143791546D02*
X250382311Y-143791546D01*
%TO.C,D6*%
X250982311Y-162791546D02*
X251482311Y-162791546D01*
X250982311Y-163191546D02*
X250382311Y-162791546D01*
X250982311Y-162391546D02*
X250982311Y-163191546D01*
X250382311Y-162791546D02*
X250982311Y-162391546D01*
X250382311Y-162791546D02*
X250382311Y-163341546D01*
X250382311Y-162791546D02*
X250382311Y-162241546D01*
X249982311Y-162791546D02*
X250382311Y-162791546D01*
%TO.C,D5*%
X250982311Y-181791546D02*
X251482311Y-181791546D01*
X250982311Y-182191546D02*
X250382311Y-181791546D01*
X250982311Y-181391546D02*
X250982311Y-182191546D01*
X250382311Y-181791546D02*
X250982311Y-181391546D01*
X250382311Y-181791546D02*
X250382311Y-182341546D01*
X250382311Y-181791546D02*
X250382311Y-181241546D01*
X249982311Y-181791546D02*
X250382311Y-181791546D01*
%TO.C,D1*%
X269982311Y-181791546D02*
X270482311Y-181791546D01*
X269982311Y-182191546D02*
X269382311Y-181791546D01*
X269982311Y-181391546D02*
X269982311Y-182191546D01*
X269382311Y-181791546D02*
X269982311Y-181391546D01*
X269382311Y-181791546D02*
X269382311Y-182341546D01*
X269382311Y-181791546D02*
X269382311Y-181241546D01*
X268982311Y-181791546D02*
X269382311Y-181791546D01*
%TO.C,D2*%
X269982311Y-162791546D02*
X270482311Y-162791546D01*
X269982311Y-163191546D02*
X269382311Y-162791546D01*
X269982311Y-162391546D02*
X269982311Y-163191546D01*
X269382311Y-162791546D02*
X269982311Y-162391546D01*
X269382311Y-162791546D02*
X269382311Y-163341546D01*
X269382311Y-162791546D02*
X269382311Y-162241546D01*
X268982311Y-162791546D02*
X269382311Y-162791546D01*
%TO.C,D3*%
X269982311Y-143791546D02*
X270482311Y-143791546D01*
X269982311Y-144191546D02*
X269382311Y-143791546D01*
X269982311Y-143391546D02*
X269982311Y-144191546D01*
X269382311Y-143791546D02*
X269982311Y-143391546D01*
X269382311Y-143791546D02*
X269382311Y-144341546D01*
X269382311Y-143791546D02*
X269382311Y-143241546D01*
X268982311Y-143791546D02*
X269382311Y-143791546D01*
%TO.C,D4*%
X269982311Y-124791546D02*
X270482311Y-124791546D01*
X269982311Y-125191546D02*
X269382311Y-124791546D01*
X269982311Y-124391546D02*
X269982311Y-125191546D01*
X269382311Y-124791546D02*
X269982311Y-124391546D01*
X269382311Y-124791546D02*
X269382311Y-125341546D01*
X269382311Y-124791546D02*
X269382311Y-124241546D01*
X268982311Y-124791546D02*
X269382311Y-124791546D01*
%TO.C,D21*%
X193982311Y-151791546D02*
X194482311Y-151791546D01*
X193982311Y-152191546D02*
X193382311Y-151791546D01*
X193982311Y-151391546D02*
X193982311Y-152191546D01*
X193382311Y-151791546D02*
X193982311Y-151391546D01*
X193382311Y-151791546D02*
X193382311Y-152341546D01*
X193382311Y-151791546D02*
X193382311Y-151241546D01*
X192982311Y-151791546D02*
X193382311Y-151791546D01*
D10*
%TO.C,JST1*%
X139005231Y-140197889D02*
X138893621Y-138601787D01*
X138893621Y-138601787D02*
X138195326Y-138650616D01*
X138195326Y-138650616D02*
X138725475Y-146232103D01*
X138725475Y-146232103D02*
X144611103Y-145820540D01*
X144611103Y-145820540D02*
X144080954Y-138239053D01*
X144080954Y-138239053D02*
X143382659Y-138287882D01*
X143382659Y-138287882D02*
X143494269Y-139883985D01*
X143494269Y-139883985D02*
X139005231Y-140197889D01*
X140339382Y-141357649D02*
X140374260Y-141856431D01*
X140107430Y-141624479D02*
X140606212Y-141589600D01*
%TD*%
D13*
%TO.C,MCU1*%
X142175468Y-104567865D03*
X142542133Y-107081260D03*
X142908798Y-109594656D03*
X143275463Y-112108051D03*
X143642127Y-114621447D03*
X144008792Y-117134842D03*
X144375457Y-119648238D03*
X144742122Y-122161634D03*
X145108786Y-124675029D03*
X145475451Y-127188425D03*
X145842116Y-129701820D03*
X146208781Y-132215217D03*
X161289154Y-130015227D03*
X160922489Y-127501832D03*
X160555824Y-124988436D03*
X160189159Y-122475041D03*
X159822495Y-119961645D03*
X159455830Y-117448250D03*
X159089165Y-114934854D03*
X158722500Y-112421458D03*
X158355836Y-109908063D03*
X157989171Y-107394667D03*
X157622506Y-104881272D03*
X157255841Y-102367875D03*
X147988847Y-126821760D03*
X150502242Y-126455095D03*
X153015638Y-126088430D03*
%TD*%
M02*
