%TF.GenerationSoftware,KiCad,Pcbnew,8.0.8*%
%TF.CreationDate,2025-02-23T20:19:19+00:00*%
%TF.ProjectId,right_final,72696768-745f-4666-996e-616c2e6b6963,v1.0.0*%
%TF.SameCoordinates,Original*%
%TF.FileFunction,Copper,L2,Bot*%
%TF.FilePolarity,Positive*%
%FSLAX46Y46*%
G04 Gerber Fmt 4.6, Leading zero omitted, Abs format (unit mm)*
G04 Created by KiCad (PCBNEW 8.0.8) date 2025-02-23 20:19:19*
%MOMM*%
%LPD*%
G01*
G04 APERTURE LIST*
G04 Aperture macros list*
%AMHorizOval*
0 Thick line with rounded ends*
0 $1 width*
0 $2 $3 position (X,Y) of the first rounded end (center of the circle)*
0 $4 $5 position (X,Y) of the second rounded end (center of the circle)*
0 Add line between two ends*
20,1,$1,$2,$3,$4,$5,0*
0 Add two circle primitives to create the rounded ends*
1,1,$1,$2,$3*
1,1,$1,$4,$5*%
%AMRotRect*
0 Rectangle, with rotation*
0 The origin of the aperture is its center*
0 $1 length*
0 $2 width*
0 $3 Rotation angle, in degrees counterclockwise*
0 Add horizontal line*
21,1,$1,$2,0,0,$3*%
G04 Aperture macros list end*
%TA.AperFunction,ComponentPad*%
%ADD10C,1.752600*%
%TD*%
%TA.AperFunction,ComponentPad*%
%ADD11HorizOval,1.700000X0.000000X0.000000X0.000000X0.000000X0*%
%TD*%
%TA.AperFunction,ComponentPad*%
%ADD12RotRect,1.700000X1.700000X188.300000*%
%TD*%
%TA.AperFunction,ComponentPad*%
%ADD13C,1.600000*%
%TD*%
%TA.AperFunction,SMDPad,CuDef*%
%ADD14R,0.900000X1.200000*%
%TD*%
%TA.AperFunction,ComponentPad*%
%ADD15R,1.778000X1.778000*%
%TD*%
%TA.AperFunction,ComponentPad*%
%ADD16C,1.905000*%
%TD*%
%TA.AperFunction,SMDPad,CuDef*%
%ADD17RotRect,0.900000X1.200000X288.000000*%
%TD*%
%TA.AperFunction,ComponentPad*%
%ADD18RotRect,1.778000X1.778000X288.000000*%
%TD*%
%TA.AperFunction,SMDPad,CuDef*%
%ADD19RotRect,0.900000X1.200000X18.000000*%
%TD*%
%TA.AperFunction,ComponentPad*%
%ADD20RotRect,1.778000X1.778000X18.000000*%
%TD*%
%TA.AperFunction,SMDPad,CuDef*%
%ADD21R,2.600000X2.600000*%
%TD*%
%TA.AperFunction,SMDPad,CuDef*%
%ADD22RotRect,2.600000X2.600000X18.000000*%
%TD*%
%TA.AperFunction,SMDPad,CuDef*%
%ADD23RotRect,2.600000X2.600000X288.000000*%
%TD*%
%TA.AperFunction,WasherPad*%
%ADD24C,1.000000*%
%TD*%
%TA.AperFunction,ComponentPad*%
%ADD25RotRect,1.200000X1.700000X4.000000*%
%TD*%
%TA.AperFunction,ComponentPad*%
%ADD26HorizOval,1.200000X-0.017439X0.249391X0.017439X-0.249391X0*%
%TD*%
%TA.AperFunction,ViaPad*%
%ADD27C,0.800000*%
%TD*%
%TA.AperFunction,Conductor*%
%ADD28C,0.250000*%
%TD*%
G04 APERTURE END LIST*
D10*
%TO.P,MCU1,1*%
%TO.N,P006*%
X142175468Y-104567865D03*
%TO.P,MCU1,2*%
%TO.N,P008*%
X142542133Y-107081260D03*
%TO.P,MCU1,3*%
%TO.N,GND*%
X142908798Y-109594656D03*
%TO.P,MCU1,4*%
X143275463Y-112108051D03*
%TO.P,MCU1,5*%
%TO.N,P017*%
X143642127Y-114621447D03*
%TO.P,MCU1,6*%
%TO.N,P020*%
X144008792Y-117134842D03*
%TO.P,MCU1,7*%
%TO.N,P022*%
X144375457Y-119648238D03*
%TO.P,MCU1,8*%
%TO.N,P024*%
X144742122Y-122161634D03*
%TO.P,MCU1,9*%
%TO.N,P100*%
X145108786Y-124675029D03*
%TO.P,MCU1,10*%
%TO.N,P011*%
X145475451Y-127188425D03*
%TO.P,MCU1,11*%
%TO.N,P104*%
X145842116Y-129701820D03*
%TO.P,MCU1,12*%
%TO.N,P106*%
X146208781Y-132215217D03*
%TO.P,MCU1,13*%
%TO.N,P009*%
X161289154Y-130015227D03*
%TO.P,MCU1,14*%
%TO.N,P010*%
X160922489Y-127501832D03*
%TO.P,MCU1,15*%
%TO.N,P111*%
X160555824Y-124988436D03*
%TO.P,MCU1,16*%
%TO.N,P113*%
X160189159Y-122475041D03*
%TO.P,MCU1,17*%
%TO.N,P115*%
X159822495Y-119961645D03*
%TO.P,MCU1,18*%
%TO.N,P002*%
X159455830Y-117448250D03*
%TO.P,MCU1,19*%
%TO.N,P029*%
X159089165Y-114934854D03*
%TO.P,MCU1,20*%
%TO.N,P031*%
X158722500Y-112421458D03*
%TO.P,MCU1,21*%
%TO.N,VCC*%
X158355836Y-109908063D03*
%TO.P,MCU1,22*%
%TO.N,RST*%
X157989171Y-107394667D03*
%TO.P,MCU1,23*%
%TO.N,GND*%
X157622506Y-104881272D03*
%TO.P,MCU1,24*%
%TO.N,RAW*%
X157255841Y-102367875D03*
%TO.P,MCU1,31*%
%TO.N,P101*%
X147988847Y-126821760D03*
%TO.P,MCU1,32*%
%TO.N,P102*%
X150502242Y-126455095D03*
%TO.P,MCU1,33*%
%TO.N,P107*%
X153015638Y-126088430D03*
%TD*%
D11*
%TO.P,OLED1,4*%
%TO.N,P024*%
X157806115Y-130189484D03*
%TO.P,OLED1,3*%
%TO.N,P100*%
X155292719Y-130556149D03*
%TO.P,OLED1,2*%
%TO.N,VCC*%
X152779324Y-130922813D03*
D12*
%TO.P,OLED1,1*%
%TO.N,GND*%
X150265928Y-131289478D03*
%TD*%
D13*
%TO.P,ENC1,S1*%
%TO.N,P002*%
X162582311Y-151991546D03*
%TO.P,ENC1,S2*%
%TO.N,S2*%
X160732311Y-151991546D03*
%TO.P,ENC1,A*%
%TO.N,P031*%
X161357311Y-149601546D03*
%TO.P,ENC1,B*%
%TO.N,P029*%
X161357311Y-147061546D03*
%TO.P,ENC1,C*%
%TO.N,GND*%
X161357311Y-144521546D03*
%TO.P,ENC1,D*%
%TO.N,D*%
X161357311Y-141981546D03*
%TD*%
D14*
%TO.P,D27,2*%
%TO.N,mirror_inner_num*%
X176382311Y-115791546D03*
%TO.P,D27,1*%
%TO.N,P006*%
X173082311Y-115791546D03*
D15*
X170922311Y-115791546D03*
D16*
%TO.P,D27,2*%
%TO.N,mirror_inner_num*%
X178542311Y-115791546D03*
%TD*%
D14*
%TO.P,D26,2*%
%TO.N,mirror_inner_top*%
X176382311Y-134791546D03*
%TO.P,D26,1*%
%TO.N,P008*%
X173082311Y-134791546D03*
D15*
X170922311Y-134791546D03*
D16*
%TO.P,D26,2*%
%TO.N,mirror_inner_top*%
X178542311Y-134791546D03*
%TD*%
D14*
%TO.P,D25,2*%
%TO.N,mirror_inner_home*%
X176382311Y-153791546D03*
%TO.P,D25,1*%
%TO.N,P017*%
X173082311Y-153791546D03*
D15*
X170922311Y-153791546D03*
D16*
%TO.P,D25,2*%
%TO.N,mirror_inner_home*%
X178542311Y-153791546D03*
%TD*%
D14*
%TO.P,D24,2*%
%TO.N,mirror_inner_bottom*%
X176382311Y-172791546D03*
%TO.P,D24,1*%
%TO.N,P020*%
X173082311Y-172791546D03*
D15*
X170922311Y-172791546D03*
D16*
%TO.P,D24,2*%
%TO.N,mirror_inner_bottom*%
X178542311Y-172791546D03*
%TD*%
D14*
%TO.P,D28,2*%
%TO.N,mirror_inner_mod_home*%
X156382311Y-167791546D03*
%TO.P,D28,1*%
%TO.N,P017*%
X153082311Y-167791546D03*
D15*
X150922311Y-167791546D03*
D16*
%TO.P,D28,2*%
%TO.N,mirror_inner_mod_home*%
X158542311Y-167791546D03*
%TD*%
D17*
%TO.P,D30,2*%
%TO.N,mirror_far_cluster*%
X147557560Y-193498828D03*
%TO.P,D30,1*%
%TO.N,P022*%
X146537804Y-190360342D03*
D18*
X145870327Y-188306060D03*
D16*
%TO.P,D30,2*%
%TO.N,mirror_far_cluster*%
X148225037Y-195553110D03*
%TD*%
D19*
%TO.P,D29,2*%
%TO.N,mirror_home_cluster*%
X175162488Y-193834884D03*
%TO.P,D29,1*%
%TO.N,P022*%
X172024002Y-194854640D03*
D20*
X169969720Y-195522117D03*
D16*
%TO.P,D29,2*%
%TO.N,mirror_home_cluster*%
X177216770Y-193167407D03*
%TD*%
D14*
%TO.P,D19,2*%
%TO.N,mirror_index_mod*%
X195382311Y-189791546D03*
%TO.P,D19,1*%
%TO.N,P022*%
X192082311Y-189791546D03*
D15*
X189922311Y-189791546D03*
D16*
%TO.P,D19,2*%
%TO.N,mirror_index_mod*%
X197542311Y-189791546D03*
%TD*%
D14*
%TO.P,D20,2*%
%TO.N,mirror_index_bottom*%
X195382311Y-170791546D03*
%TO.P,D20,1*%
%TO.N,P020*%
X192082311Y-170791546D03*
D15*
X189922311Y-170791546D03*
D16*
%TO.P,D20,2*%
%TO.N,mirror_index_bottom*%
X197542311Y-170791546D03*
%TD*%
D14*
%TO.P,D22,2*%
%TO.N,mirror_index_top*%
X195382311Y-132791546D03*
%TO.P,D22,1*%
%TO.N,P008*%
X192082311Y-132791546D03*
D15*
X189922311Y-132791546D03*
D16*
%TO.P,D22,2*%
%TO.N,mirror_index_top*%
X197542311Y-132791546D03*
%TD*%
D14*
%TO.P,D23,2*%
%TO.N,mirror_index_num*%
X195382311Y-113791546D03*
%TO.P,D23,1*%
%TO.N,P006*%
X192082311Y-113791546D03*
D15*
X189922311Y-113791546D03*
D16*
%TO.P,D23,2*%
%TO.N,mirror_index_num*%
X197542311Y-113791546D03*
%TD*%
D14*
%TO.P,D18,2*%
%TO.N,mirror_middle_num*%
X214382311Y-107791546D03*
%TO.P,D18,1*%
%TO.N,P006*%
X211082311Y-107791546D03*
D15*
X208922311Y-107791546D03*
D16*
%TO.P,D18,2*%
%TO.N,mirror_middle_num*%
X216542311Y-107791546D03*
%TD*%
D14*
%TO.P,D17,2*%
%TO.N,mirror_middle_top*%
X214382311Y-126791546D03*
%TO.P,D17,1*%
%TO.N,P008*%
X211082311Y-126791546D03*
D15*
X208922311Y-126791546D03*
D16*
%TO.P,D17,2*%
%TO.N,mirror_middle_top*%
X216542311Y-126791546D03*
%TD*%
D14*
%TO.P,D16,2*%
%TO.N,mirror_middle_home*%
X214382311Y-145791546D03*
%TO.P,D16,1*%
%TO.N,P017*%
X211082311Y-145791546D03*
D15*
X208922311Y-145791546D03*
D16*
%TO.P,D16,2*%
%TO.N,mirror_middle_home*%
X216542311Y-145791546D03*
%TD*%
D14*
%TO.P,D15,2*%
%TO.N,mirror_middle_bottom*%
X214382311Y-164791546D03*
%TO.P,D15,1*%
%TO.N,P020*%
X211082311Y-164791546D03*
D15*
X208922311Y-164791546D03*
D16*
%TO.P,D15,2*%
%TO.N,mirror_middle_bottom*%
X216542311Y-164791546D03*
%TD*%
D14*
%TO.P,D14,2*%
%TO.N,mirror_middle_mod*%
X214382311Y-183791546D03*
%TO.P,D14,1*%
%TO.N,P022*%
X211082311Y-183791546D03*
D15*
X208922311Y-183791546D03*
D16*
%TO.P,D14,2*%
%TO.N,mirror_middle_mod*%
X216542311Y-183791546D03*
%TD*%
D14*
%TO.P,D9,2*%
%TO.N,mirror_ring_mod*%
X233382311Y-188791546D03*
%TO.P,D9,1*%
%TO.N,P022*%
X230082311Y-188791546D03*
D15*
X227922311Y-188791546D03*
D16*
%TO.P,D9,2*%
%TO.N,mirror_ring_mod*%
X235542311Y-188791546D03*
%TD*%
D14*
%TO.P,D10,2*%
%TO.N,mirror_ring_bottom*%
X233382311Y-169791546D03*
%TO.P,D10,1*%
%TO.N,P020*%
X230082311Y-169791546D03*
D15*
X227922311Y-169791546D03*
D16*
%TO.P,D10,2*%
%TO.N,mirror_ring_bottom*%
X235542311Y-169791546D03*
%TD*%
D14*
%TO.P,D11,2*%
%TO.N,mirror_ring_home*%
X233382311Y-150791546D03*
%TO.P,D11,1*%
%TO.N,P017*%
X230082311Y-150791546D03*
D15*
X227922311Y-150791546D03*
D16*
%TO.P,D11,2*%
%TO.N,mirror_ring_home*%
X235542311Y-150791546D03*
%TD*%
D14*
%TO.P,D12,2*%
%TO.N,mirror_ring_top*%
X233382311Y-131791546D03*
%TO.P,D12,1*%
%TO.N,P008*%
X230082311Y-131791546D03*
D15*
X227922311Y-131791546D03*
D16*
%TO.P,D12,2*%
%TO.N,mirror_ring_top*%
X235542311Y-131791546D03*
%TD*%
D14*
%TO.P,D13,2*%
%TO.N,mirror_ring_num*%
X233382311Y-112791546D03*
%TO.P,D13,1*%
%TO.N,P006*%
X230082311Y-112791546D03*
D15*
X227922311Y-112791546D03*
D16*
%TO.P,D13,2*%
%TO.N,mirror_ring_num*%
X235542311Y-112791546D03*
%TD*%
D14*
%TO.P,D8,2*%
%TO.N,mirror_pinky_num*%
X252382311Y-124791546D03*
%TO.P,D8,1*%
%TO.N,P006*%
X249082311Y-124791546D03*
D15*
X246922311Y-124791546D03*
D16*
%TO.P,D8,2*%
%TO.N,mirror_pinky_num*%
X254542311Y-124791546D03*
%TD*%
D14*
%TO.P,D7,2*%
%TO.N,mirror_pinky_top*%
X252382311Y-143791546D03*
%TO.P,D7,1*%
%TO.N,P008*%
X249082311Y-143791546D03*
D15*
X246922311Y-143791546D03*
D16*
%TO.P,D7,2*%
%TO.N,mirror_pinky_top*%
X254542311Y-143791546D03*
%TD*%
D14*
%TO.P,D6,2*%
%TO.N,mirror_pinky_home*%
X252382311Y-162791546D03*
%TO.P,D6,1*%
%TO.N,P017*%
X249082311Y-162791546D03*
D15*
X246922311Y-162791546D03*
D16*
%TO.P,D6,2*%
%TO.N,mirror_pinky_home*%
X254542311Y-162791546D03*
%TD*%
D14*
%TO.P,D5,2*%
%TO.N,mirror_pinky_bottom*%
X252382311Y-181791546D03*
%TO.P,D5,1*%
%TO.N,P020*%
X249082311Y-181791546D03*
D15*
X246922311Y-181791546D03*
D16*
%TO.P,D5,2*%
%TO.N,mirror_pinky_bottom*%
X254542311Y-181791546D03*
%TD*%
D14*
%TO.P,D1,2*%
%TO.N,mirror_outer_bottom*%
X271382311Y-181791546D03*
%TO.P,D1,1*%
%TO.N,P020*%
X268082311Y-181791546D03*
D15*
X265922311Y-181791546D03*
D16*
%TO.P,D1,2*%
%TO.N,mirror_outer_bottom*%
X273542311Y-181791546D03*
%TD*%
D14*
%TO.P,D2,2*%
%TO.N,mirror_outer_home*%
X271382311Y-162791546D03*
%TO.P,D2,1*%
%TO.N,P017*%
X268082311Y-162791546D03*
D15*
X265922311Y-162791546D03*
D16*
%TO.P,D2,2*%
%TO.N,mirror_outer_home*%
X273542311Y-162791546D03*
%TD*%
D14*
%TO.P,D3,2*%
%TO.N,mirror_outer_top*%
X271382311Y-143791546D03*
%TO.P,D3,1*%
%TO.N,P008*%
X268082311Y-143791546D03*
D15*
X265922311Y-143791546D03*
D16*
%TO.P,D3,2*%
%TO.N,mirror_outer_top*%
X273542311Y-143791546D03*
%TD*%
D14*
%TO.P,D4,2*%
%TO.N,mirror_outer_num*%
X271382311Y-124791546D03*
%TO.P,D4,1*%
%TO.N,P006*%
X268082311Y-124791546D03*
D15*
X265922311Y-124791546D03*
D16*
%TO.P,D4,2*%
%TO.N,mirror_outer_num*%
X273542311Y-124791546D03*
%TD*%
D14*
%TO.P,D21,2*%
%TO.N,mirror_index_home*%
X195382311Y-151791546D03*
%TO.P,D21,1*%
%TO.N,P017*%
X192082311Y-151791546D03*
D15*
X189922311Y-151791546D03*
D16*
%TO.P,D21,2*%
%TO.N,mirror_index_home*%
X197542311Y-151791546D03*
%TD*%
D21*
%TO.P,S1,1*%
%TO.N,P115*%
X266457311Y-170841546D03*
%TO.P,S1,2*%
%TO.N,mirror_outer_bottom*%
X278007311Y-173041546D03*
%TD*%
%TO.P,S2,1*%
%TO.N,P115*%
X266457311Y-151841546D03*
%TO.P,S2,2*%
%TO.N,mirror_outer_home*%
X278007311Y-154041546D03*
%TD*%
%TO.P,S3,1*%
%TO.N,P115*%
X266457311Y-132841546D03*
%TO.P,S3,2*%
%TO.N,mirror_outer_top*%
X278007311Y-135041546D03*
%TD*%
%TO.P,S4,1*%
%TO.N,P115*%
X266457311Y-113841546D03*
%TO.P,S4,2*%
%TO.N,mirror_outer_num*%
X278007311Y-116041546D03*
%TD*%
%TO.P,S5,1*%
%TO.N,P113*%
X247457311Y-170841546D03*
%TO.P,S5,2*%
%TO.N,mirror_pinky_bottom*%
X259007311Y-173041546D03*
%TD*%
%TO.P,S6,1*%
%TO.N,P113*%
X247457311Y-151841546D03*
%TO.P,S6,2*%
%TO.N,mirror_pinky_home*%
X259007311Y-154041546D03*
%TD*%
%TO.P,S7,1*%
%TO.N,P113*%
X247457311Y-132841546D03*
%TO.P,S7,2*%
%TO.N,mirror_pinky_top*%
X259007311Y-135041546D03*
%TD*%
%TO.P,S8,1*%
%TO.N,P113*%
X247457311Y-113841546D03*
%TO.P,S8,2*%
%TO.N,mirror_pinky_num*%
X259007311Y-116041546D03*
%TD*%
%TO.P,S9,1*%
%TO.N,P111*%
X228457311Y-177841546D03*
%TO.P,S9,2*%
%TO.N,mirror_ring_mod*%
X240007311Y-180041546D03*
%TD*%
%TO.P,S10,1*%
%TO.N,P111*%
X228457311Y-158841546D03*
%TO.P,S10,2*%
%TO.N,mirror_ring_bottom*%
X240007311Y-161041546D03*
%TD*%
%TO.P,S11,1*%
%TO.N,P111*%
X228457311Y-139841546D03*
%TO.P,S11,2*%
%TO.N,mirror_ring_home*%
X240007311Y-142041546D03*
%TD*%
%TO.P,S12,1*%
%TO.N,P111*%
X228457311Y-120841546D03*
%TO.P,S12,2*%
%TO.N,mirror_ring_top*%
X240007311Y-123041546D03*
%TD*%
%TO.P,S13,1*%
%TO.N,P111*%
X228457311Y-101841546D03*
%TO.P,S13,2*%
%TO.N,mirror_ring_num*%
X240007311Y-104041546D03*
%TD*%
%TO.P,S14,1*%
%TO.N,P010*%
X209457311Y-172841546D03*
%TO.P,S14,2*%
%TO.N,mirror_middle_mod*%
X221007311Y-175041546D03*
%TD*%
%TO.P,S15,1*%
%TO.N,P010*%
X209457311Y-153841546D03*
%TO.P,S15,2*%
%TO.N,mirror_middle_bottom*%
X221007311Y-156041546D03*
%TD*%
%TO.P,S16,1*%
%TO.N,P010*%
X209457311Y-134841546D03*
%TO.P,S16,2*%
%TO.N,mirror_middle_home*%
X221007311Y-137041546D03*
%TD*%
%TO.P,S17,1*%
%TO.N,P010*%
X209457311Y-115841546D03*
%TO.P,S17,2*%
%TO.N,mirror_middle_top*%
X221007311Y-118041546D03*
%TD*%
%TO.P,S18,1*%
%TO.N,P010*%
X209457311Y-96841546D03*
%TO.P,S18,2*%
%TO.N,mirror_middle_num*%
X221007311Y-99041546D03*
%TD*%
%TO.P,S19,1*%
%TO.N,P009*%
X190457311Y-178841546D03*
%TO.P,S19,2*%
%TO.N,mirror_index_mod*%
X202007311Y-181041546D03*
%TD*%
%TO.P,S20,1*%
%TO.N,P009*%
X190457311Y-159841546D03*
%TO.P,S20,2*%
%TO.N,mirror_index_bottom*%
X202007311Y-162041546D03*
%TD*%
%TO.P,S21,1*%
%TO.N,P009*%
X190457311Y-140841546D03*
%TO.P,S21,2*%
%TO.N,mirror_index_home*%
X202007311Y-143041546D03*
%TD*%
%TO.P,S22,1*%
%TO.N,P009*%
X190457311Y-121841546D03*
%TO.P,S22,2*%
%TO.N,mirror_index_top*%
X202007311Y-124041546D03*
%TD*%
%TO.P,S23,1*%
%TO.N,P009*%
X190457311Y-102841546D03*
%TO.P,S23,2*%
%TO.N,mirror_index_num*%
X202007311Y-105041546D03*
%TD*%
%TO.P,S24,1*%
%TO.N,P011*%
X171457311Y-161841546D03*
%TO.P,S24,2*%
%TO.N,mirror_inner_bottom*%
X183007311Y-164041546D03*
%TD*%
%TO.P,S25,1*%
%TO.N,P011*%
X171457311Y-142841546D03*
%TO.P,S25,2*%
%TO.N,mirror_inner_home*%
X183007311Y-145041546D03*
%TD*%
%TO.P,S26,1*%
%TO.N,P011*%
X171457311Y-123841546D03*
%TO.P,S26,2*%
%TO.N,mirror_inner_top*%
X183007311Y-126041546D03*
%TD*%
%TO.P,S27,1*%
%TO.N,P011*%
X171457311Y-104841546D03*
%TO.P,S27,2*%
%TO.N,mirror_inner_num*%
X183007311Y-107041546D03*
%TD*%
%TO.P,S28,1*%
%TO.N,P104*%
X151457311Y-156841546D03*
%TO.P,S28,2*%
%TO.N,mirror_inner_mod_home*%
X163007311Y-159041546D03*
%TD*%
D22*
%TO.P,S29,1*%
%TO.N,P011*%
X167094799Y-184942723D03*
%TO.P,S29,2*%
%TO.N,mirror_home_cluster*%
X178759339Y-183465901D03*
%TD*%
D23*
%TO.P,S30,1*%
%TO.N,P104*%
X156449721Y-185431138D03*
%TO.P,S30,2*%
%TO.N,mirror_far_cluster*%
X157926543Y-197095678D03*
%TD*%
D24*
%TO.P,T1,*%
%TO.N,*%
X137466882Y-118292974D03*
X137597740Y-121290118D03*
%TD*%
D25*
%TO.P,JST1,1*%
%TO.N,pos*%
X140234747Y-139861302D03*
D26*
%TO.P,JST1,2*%
%TO.N,GND*%
X142229875Y-139721790D03*
%TD*%
D27*
%TO.N,RST*%
X141007311Y-120541546D03*
%TO.N,RAW*%
X141007311Y-119041546D03*
%TO.N,P002*%
X162507311Y-116541546D03*
%TO.N,P029*%
X164007311Y-116816546D03*
%TO.N,P031*%
X165282311Y-116541546D03*
%TO.N,GND*%
X148007311Y-136541546D03*
X148007311Y-129041546D03*
X149507311Y-107541546D03*
%TO.N,P022*%
X167007311Y-157041546D03*
X169007311Y-159041546D03*
%TO.N,P020*%
X170007311Y-158041546D03*
X168007311Y-156041546D03*
%TO.N,P115*%
X169007311Y-117541546D03*
%TO.N,P113*%
X169007311Y-118541546D03*
%TO.N,P111*%
X169007311Y-119541546D03*
%TO.N,P010*%
X169007311Y-120541546D03*
%TO.N,P009*%
X169007311Y-121541546D03*
X188507311Y-119541546D03*
%TO.N,P010*%
X206007311Y-112541546D03*
%TO.N,P111*%
X225007311Y-116541546D03*
%TO.N,P113*%
X245007311Y-128041546D03*
%TO.N,P115*%
X250507311Y-127541546D03*
%TD*%
D28*
%TO.N,RST*%
X159007311Y-106376527D02*
X157989171Y-107394667D01*
X159007311Y-102420451D02*
X159007311Y-106376527D01*
X157753436Y-101166576D02*
X159007311Y-102420451D01*
X142044538Y-105879960D02*
X147396105Y-105879960D01*
X140282311Y-107642187D02*
X142044538Y-105879960D01*
X140282311Y-119816546D02*
X140282311Y-107642187D01*
X141007311Y-120541546D02*
X140282311Y-119816546D01*
X147396105Y-105879960D02*
X152109489Y-101166576D01*
X152109489Y-101166576D02*
X157753436Y-101166576D01*
%TO.N,RAW*%
X151544585Y-102367876D02*
X157255841Y-102367876D01*
X145519105Y-108393356D02*
X151544585Y-102367876D01*
X141007311Y-109797248D02*
X142411203Y-108393356D01*
X141007311Y-119041546D02*
X141007311Y-109797248D01*
X142411203Y-108393356D02*
X145519105Y-108393356D01*
%TO.N,P002*%
X160362534Y-116541546D02*
X159455830Y-117448250D01*
X162507311Y-116541546D02*
X160362534Y-116541546D01*
%TO.N,P029*%
X162125619Y-114934854D02*
X159089165Y-114934854D01*
X164007311Y-116816546D02*
X162125619Y-114934854D01*
%TO.N,P031*%
X161162223Y-112421458D02*
X158722500Y-112421458D01*
X165282311Y-116541546D02*
X161162223Y-112421458D01*
%TO.N,GND*%
X150255243Y-131289478D02*
X148007311Y-129041546D01*
X150265928Y-131289478D02*
X150255243Y-131289478D01*
%TO.N,VCC*%
X155507311Y-110041546D02*
X155640794Y-109908063D01*
X155507311Y-128194826D02*
X155507311Y-110041546D01*
X155640794Y-109908063D02*
X158355836Y-109908063D01*
X152779324Y-130922813D02*
X155507311Y-128194826D01*
%TO.N,GND*%
X149190147Y-127858710D02*
X148007311Y-129041546D01*
X149190147Y-107858710D02*
X149190147Y-127858710D01*
X149507311Y-107541546D02*
X149190147Y-107858710D01*
%TO.N,P104*%
X146787547Y-128756389D02*
X145842116Y-129701820D01*
X146787547Y-126321782D02*
X146787547Y-128756389D01*
X146452890Y-125987125D02*
X146787547Y-126321782D01*
X144007311Y-126957670D02*
X144977856Y-125987125D01*
X144007311Y-134541546D02*
X144007311Y-126957670D01*
X144507311Y-135041546D02*
X144007311Y-134541546D01*
X166007311Y-135041546D02*
X144507311Y-135041546D01*
X144977856Y-125987125D02*
X146452890Y-125987125D01*
X166007311Y-156541546D02*
X166007311Y-135041546D01*
%TO.N,GND*%
X149667585Y-104881272D02*
X157622506Y-104881272D01*
X149507311Y-105041546D02*
X149667585Y-104881272D01*
X149507311Y-107541546D02*
X149507311Y-105041546D01*
%TO.N,P022*%
X169007311Y-159041546D02*
X167007311Y-157041546D01*
%TO.N,P020*%
X170007311Y-158041546D02*
X168007311Y-156041546D01*
%TO.N,P011*%
X144507311Y-128156565D02*
X145475451Y-127188425D01*
X144507311Y-134041546D02*
X144507311Y-128156565D01*
X171457311Y-123841546D02*
X169707311Y-123841546D01*
X169707311Y-123841546D02*
X159507311Y-134041546D01*
X159507311Y-134041546D02*
X144507311Y-134041546D01*
%TO.N,P009*%
X169007311Y-121541546D02*
X161289154Y-129259703D01*
X161289154Y-129259703D02*
X161289154Y-130015227D01*
%TO.N,P010*%
X167882775Y-120541546D02*
X160922489Y-127501832D01*
X169007311Y-120541546D02*
X167882775Y-120541546D01*
%TO.N,P111*%
X166002714Y-119541546D02*
X160555824Y-124988436D01*
X169007311Y-119541546D02*
X166002714Y-119541546D01*
%TO.N,P113*%
X164122654Y-118541546D02*
X160189159Y-122475041D01*
X169007311Y-118541546D02*
X164122654Y-118541546D01*
%TO.N,P115*%
X162242594Y-117541546D02*
X159822495Y-119961645D01*
X169007311Y-117541546D02*
X162242594Y-117541546D01*
%TO.N,P009*%
X188507311Y-119891546D02*
X188507311Y-119541546D01*
X190457311Y-121841546D02*
X188507311Y-119891546D01*
%TO.N,P010*%
X209307311Y-115841546D02*
X206007311Y-112541546D01*
X209457311Y-115841546D02*
X209307311Y-115841546D01*
%TO.N,P111*%
X228457311Y-119991546D02*
X225007311Y-116541546D01*
X228457311Y-120841546D02*
X228457311Y-119991546D01*
%TO.N,P113*%
X247457311Y-130491546D02*
X245007311Y-128041546D01*
X247457311Y-132841546D02*
X247457311Y-130491546D01*
%TO.N,P115*%
X263007311Y-127541546D02*
X250507311Y-127541546D01*
X266457311Y-130991546D02*
X263007311Y-127541546D01*
X266457311Y-132841546D02*
X266457311Y-130991546D01*
%TO.N,mirror_inner_mod_home*%
X163007311Y-163326546D02*
X158542311Y-167791546D01*
X163007311Y-159041546D02*
X163007311Y-163326546D01*
%TO.N,P104*%
X153332311Y-154966546D02*
X151457311Y-156841546D01*
X156108961Y-154966546D02*
X153332311Y-154966546D01*
X157683961Y-156541546D02*
X156108961Y-154966546D01*
X166007311Y-156541546D02*
X157683961Y-156541546D01*
X166007311Y-175873548D02*
X166007311Y-156541546D01*
X156449721Y-185431138D02*
X166007311Y-175873548D01*
%TO.N,mirror_inner_num*%
X183007311Y-111326546D02*
X178542311Y-115791546D01*
X183007311Y-107041546D02*
X183007311Y-111326546D01*
%TO.N,P011*%
X171457311Y-111991546D02*
X171457311Y-104841546D01*
X171507311Y-112041546D02*
X171457311Y-111991546D01*
X169007311Y-114541546D02*
X171507311Y-112041546D01*
X169007311Y-116304546D02*
X169007311Y-114541546D01*
X170744311Y-118041546D02*
X169007311Y-116304546D01*
X171007311Y-118041546D02*
X170744311Y-118041546D01*
X171507311Y-118541546D02*
X171007311Y-118041546D01*
X171457311Y-118591546D02*
X171507311Y-118541546D01*
X171457311Y-123841546D02*
X171457311Y-118591546D01*
X169007311Y-135541546D02*
X169007311Y-133541546D01*
X169007311Y-133541546D02*
X171457311Y-131091546D01*
X171457311Y-137991546D02*
X169007311Y-135541546D01*
X171457311Y-142841546D02*
X171457311Y-137991546D01*
X171457311Y-131091546D02*
X171457311Y-123841546D01*
%TO.N,mirror_inner_top*%
X183007311Y-130326546D02*
X178542311Y-134791546D01*
X183007311Y-126041546D02*
X183007311Y-130326546D01*
%TO.N,P011*%
X171457311Y-150491546D02*
X171457311Y-142841546D01*
X171507311Y-150541546D02*
X171457311Y-150491546D01*
X169007311Y-154541546D02*
X169007311Y-153041546D01*
X169007311Y-153041546D02*
X171507311Y-150541546D01*
X171457311Y-156991546D02*
X169007311Y-154541546D01*
X171457311Y-161841546D02*
X171457311Y-156991546D01*
%TO.N,mirror_inner_home*%
X183007311Y-149326546D02*
X178542311Y-153791546D01*
X183007311Y-145041546D02*
X183007311Y-149326546D01*
%TO.N,mirror_inner_bottom*%
X183007311Y-168326546D02*
X178542311Y-172791546D01*
X183007311Y-164041546D02*
X183007311Y-168326546D01*
%TO.N,P011*%
X171457311Y-168491546D02*
X171457311Y-161841546D01*
X171507311Y-168541546D02*
X171457311Y-168491546D01*
X171507311Y-169041546D02*
X171507311Y-168541546D01*
X169007311Y-171541546D02*
X171507311Y-169041546D01*
X169007311Y-178541546D02*
X169007311Y-171541546D01*
X167094799Y-180454058D02*
X169007311Y-178541546D01*
X167094799Y-184942723D02*
X167094799Y-180454058D01*
%TO.N,mirror_far_cluster*%
X149767605Y-197095678D02*
X148225037Y-195553110D01*
X157926543Y-197095678D02*
X149767605Y-197095678D01*
%TO.N,mirror_home_cluster*%
X178759339Y-191624838D02*
X177216770Y-193167407D01*
X178759339Y-183465901D02*
X178759339Y-191624838D01*
%TO.N,mirror_index_mod*%
X202007311Y-185326546D02*
X197542311Y-189791546D01*
X202007311Y-181041546D02*
X202007311Y-185326546D01*
%TO.N,P009*%
X190457311Y-166091546D02*
X190457311Y-159841546D01*
X188007311Y-168541546D02*
X190457311Y-166091546D01*
X190457311Y-174491546D02*
X188007311Y-172041546D01*
X188007311Y-172041546D02*
X188007311Y-168541546D01*
X190457311Y-178841546D02*
X190457311Y-174491546D01*
%TO.N,mirror_index_bottom*%
X202007311Y-166326546D02*
X197542311Y-170791546D01*
X202007311Y-162041546D02*
X202007311Y-166326546D01*
%TO.N,P009*%
X190457311Y-146491546D02*
X190457311Y-140841546D01*
X190507311Y-147041546D02*
X190507311Y-146541546D01*
X190507311Y-146541546D02*
X190457311Y-146491546D01*
X188007311Y-149541546D02*
X190507311Y-147041546D01*
X190507311Y-155041546D02*
X188007311Y-152541546D01*
X188007311Y-152541546D02*
X188007311Y-149541546D01*
X190457311Y-155091546D02*
X190507311Y-155041546D01*
X190457311Y-159841546D02*
X190457311Y-155091546D01*
%TO.N,mirror_index_home*%
X200507311Y-148826546D02*
X197542311Y-151791546D01*
X200507311Y-148041546D02*
X200507311Y-148826546D01*
X202007311Y-146541546D02*
X200507311Y-148041546D01*
X202007311Y-143041546D02*
X202007311Y-146541546D01*
%TO.N,P009*%
X190457311Y-137491546D02*
X190457311Y-140841546D01*
X190007311Y-137041546D02*
X190457311Y-137491546D01*
X190007311Y-136541546D02*
X190007311Y-137041546D01*
X187507311Y-132041546D02*
X187507311Y-134041546D01*
X187507311Y-134041546D02*
X190007311Y-136541546D01*
X190507311Y-129041546D02*
X187507311Y-132041546D01*
X190507311Y-127350230D02*
X190507311Y-129041546D01*
X190457311Y-127300230D02*
X190507311Y-127350230D01*
X190457311Y-121841546D02*
X190457311Y-127300230D01*
%TO.N,mirror_index_top*%
X202007311Y-128326546D02*
X197542311Y-132791546D01*
X202007311Y-124041546D02*
X202007311Y-128326546D01*
%TO.N,P009*%
X188007311Y-115541546D02*
X190457311Y-117991546D01*
X188007311Y-111541546D02*
X188007311Y-115541546D01*
X190457311Y-117991546D02*
X190457311Y-121841546D01*
X190457311Y-109091546D02*
X188007311Y-111541546D01*
X190457311Y-102841546D02*
X190457311Y-109091546D01*
%TO.N,mirror_index_num*%
X202007311Y-109326546D02*
X197542311Y-113791546D01*
X202007311Y-105041546D02*
X202007311Y-109326546D01*
%TO.N,P010*%
X207007311Y-109041546D02*
X207007311Y-106041546D01*
X209457311Y-111491546D02*
X207007311Y-109041546D01*
X209457311Y-103591546D02*
X209457311Y-96841546D01*
X209457311Y-115841546D02*
X209457311Y-111491546D01*
X207007311Y-106041546D02*
X209457311Y-103591546D01*
%TO.N,mirror_middle_num*%
X221007311Y-103326546D02*
X216542311Y-107791546D01*
X221007311Y-99041546D02*
X221007311Y-103326546D01*
%TO.N,P010*%
X207007311Y-125041546D02*
X209457311Y-122591546D01*
X207007311Y-128041546D02*
X207007311Y-125041546D01*
X209457311Y-130591546D02*
X209507311Y-130541546D01*
X209457311Y-134841546D02*
X209457311Y-130591546D01*
X209507311Y-130541546D02*
X207007311Y-128041546D01*
X209457311Y-122591546D02*
X209457311Y-115841546D01*
%TO.N,mirror_middle_top*%
X221007311Y-118041546D02*
X221007311Y-122326546D01*
X221007311Y-122326546D02*
X216542311Y-126791546D01*
%TO.N,P010*%
X207007311Y-144041546D02*
X209457311Y-141591546D01*
X207007311Y-146541546D02*
X207007311Y-144041546D01*
X209507311Y-149041546D02*
X207007311Y-146541546D01*
X209457311Y-149091546D02*
X209507311Y-149041546D01*
X209457311Y-141591546D02*
X209457311Y-134841546D01*
X209457311Y-153841546D02*
X209457311Y-149091546D01*
%TO.N,mirror_middle_home*%
X221007311Y-141326546D02*
X216542311Y-145791546D01*
X221007311Y-137041546D02*
X221007311Y-141326546D01*
%TO.N,mirror_middle_bottom*%
X221007311Y-156041546D02*
X221007311Y-160326546D01*
X221007311Y-160326546D02*
X216542311Y-164791546D01*
%TO.N,P010*%
X209457311Y-160091546D02*
X209457311Y-153841546D01*
X206507311Y-163041546D02*
X209457311Y-160091546D01*
X206507311Y-165541546D02*
X206507311Y-163041546D01*
X209507311Y-168541546D02*
X206507311Y-165541546D01*
X209457311Y-168591546D02*
X209507311Y-168541546D01*
X209457311Y-172841546D02*
X209457311Y-168591546D01*
%TO.N,mirror_middle_mod*%
X221007311Y-179326546D02*
X216542311Y-183791546D01*
X221007311Y-175041546D02*
X221007311Y-179326546D01*
%TO.N,mirror_ring_mod*%
X240007311Y-184326546D02*
X235542311Y-188791546D01*
X240007311Y-180041546D02*
X240007311Y-184326546D01*
%TO.N,P111*%
X228457311Y-165591546D02*
X228457311Y-158841546D01*
X225507311Y-168541546D02*
X228457311Y-165591546D01*
X228244311Y-172541546D02*
X225507311Y-169804546D01*
X225507311Y-169804546D02*
X225507311Y-168541546D01*
X228507311Y-172541546D02*
X228244311Y-172541546D01*
X228457311Y-177841546D02*
X228457311Y-172591546D01*
X228457311Y-172591546D02*
X228507311Y-172541546D01*
%TO.N,mirror_ring_bottom*%
X240007311Y-161041546D02*
X240007311Y-165326546D01*
X240007311Y-165326546D02*
X235542311Y-169791546D01*
%TO.N,P111*%
X228507311Y-146041546D02*
X228457311Y-145991546D01*
X228457311Y-145991546D02*
X228457311Y-139841546D01*
X225507311Y-149041546D02*
X228507311Y-146041546D01*
X228507311Y-154041546D02*
X225507311Y-151041546D01*
X228457311Y-154091546D02*
X228507311Y-154041546D01*
X225507311Y-151041546D02*
X225507311Y-149041546D01*
X228457311Y-158841546D02*
X228457311Y-154091546D01*
%TO.N,mirror_ring_home*%
X240007311Y-146326546D02*
X235542311Y-150791546D01*
X240007311Y-142041546D02*
X240007311Y-146326546D01*
%TO.N,P111*%
X228457311Y-127091546D02*
X228457311Y-120841546D01*
X225507311Y-130041546D02*
X228457311Y-127091546D01*
X225507311Y-132541546D02*
X225507311Y-130041546D01*
X228457311Y-135491546D02*
X225507311Y-132541546D01*
X228457311Y-139841546D02*
X228457311Y-135491546D01*
%TO.N,mirror_ring_top*%
X240007311Y-123041546D02*
X240007311Y-127326546D01*
X240007311Y-127326546D02*
X235542311Y-131791546D01*
%TO.N,P111*%
X228457311Y-117091546D02*
X228457311Y-120841546D01*
X226007311Y-114541546D02*
X228507311Y-117041546D01*
X228457311Y-108591546D02*
X226007311Y-111041546D01*
X228507311Y-117041546D02*
X228457311Y-117091546D01*
X226007311Y-111041546D02*
X226007311Y-114541546D01*
X228457311Y-101841546D02*
X228457311Y-108591546D01*
%TO.N,mirror_ring_num*%
X240007311Y-108326546D02*
X235542311Y-112791546D01*
X240007311Y-104041546D02*
X240007311Y-108326546D01*
%TO.N,P006*%
X230082311Y-112791546D02*
X227922311Y-112791546D01*
%TO.N,mirror_ring_num*%
X235542311Y-112791546D02*
X233382311Y-112791546D01*
%TO.N,P008*%
X230082311Y-131791546D02*
X227922311Y-131791546D01*
%TO.N,mirror_ring_top*%
X235542311Y-131791546D02*
X233382311Y-131791546D01*
%TO.N,P017*%
X230082311Y-150791546D02*
X227922311Y-150791546D01*
%TO.N,mirror_ring_home*%
X235542311Y-150791546D02*
X233382311Y-150791546D01*
%TO.N,P020*%
X230082311Y-169791546D02*
X227922311Y-169791546D01*
%TO.N,mirror_ring_bottom*%
X235542311Y-169791546D02*
X233382311Y-169791546D01*
%TO.N,P022*%
X230082311Y-188791546D02*
X227922311Y-188791546D01*
%TO.N,mirror_ring_mod*%
X235542311Y-188791546D02*
X233382311Y-188791546D01*
%TO.N,P020*%
X249082311Y-181791546D02*
X246922311Y-181791546D01*
%TO.N,mirror_pinky_bottom*%
X254542311Y-181791546D02*
X252382311Y-181791546D01*
%TO.N,P020*%
X268082311Y-181791546D02*
X265922311Y-181791546D01*
%TO.N,mirror_outer_bottom*%
X273542311Y-181791546D02*
X271382311Y-181791546D01*
%TO.N,mirror_outer_home*%
X271382311Y-162791546D02*
X273542311Y-162791546D01*
%TO.N,P017*%
X265922311Y-162791546D02*
X268082311Y-162791546D01*
%TO.N,mirror_pinky_home*%
X252382311Y-162791546D02*
X254542311Y-162791546D01*
%TO.N,P017*%
X246922311Y-162791546D02*
X249082311Y-162791546D01*
%TO.N,P008*%
X249082311Y-143791546D02*
X246922311Y-143791546D01*
%TO.N,mirror_pinky_top*%
X254542311Y-143791546D02*
X252382311Y-143791546D01*
%TO.N,P008*%
X268082311Y-143791546D02*
X265922311Y-143791546D01*
%TO.N,mirror_outer_top*%
X273542311Y-143791546D02*
X271382311Y-143791546D01*
%TO.N,mirror_outer_num*%
X271382311Y-124791546D02*
X273542311Y-124791546D01*
%TO.N,P006*%
X265922311Y-124791546D02*
X268082311Y-124791546D01*
%TO.N,mirror_pinky_num*%
X252382311Y-124791546D02*
X254542311Y-124791546D01*
%TO.N,P006*%
X246922311Y-124791546D02*
X249082311Y-124791546D01*
%TO.N,P113*%
X244507311Y-123541546D02*
X247457311Y-120591546D01*
X244507311Y-125541546D02*
X244507311Y-123541546D01*
X247457311Y-128491546D02*
X244507311Y-125541546D01*
X247457311Y-132841546D02*
X247457311Y-128491546D01*
X247457311Y-120591546D02*
X247457311Y-113841546D01*
%TO.N,mirror_pinky_num*%
X259007311Y-120326546D02*
X254542311Y-124791546D01*
X259007311Y-116041546D02*
X259007311Y-120326546D01*
%TO.N,P115*%
X266457311Y-120091546D02*
X266457311Y-113841546D01*
X263507311Y-123041546D02*
X266457311Y-120091546D01*
X263507311Y-126041546D02*
X263507311Y-123041546D01*
X266457311Y-132841546D02*
X266457311Y-128991546D01*
X266457311Y-128991546D02*
X263507311Y-126041546D01*
%TO.N,mirror_pinky_top*%
X259007311Y-139326546D02*
X254542311Y-143791546D01*
X259007311Y-135041546D02*
X259007311Y-139326546D01*
%TO.N,P113*%
X247507311Y-140041546D02*
X247457311Y-139991546D01*
X245507311Y-142041546D02*
X247507311Y-140041546D01*
X245507311Y-146041546D02*
X245507311Y-142041546D01*
X247457311Y-151841546D02*
X247457311Y-147991546D01*
X247457311Y-147991546D02*
X245507311Y-146041546D01*
X247457311Y-139991546D02*
X247457311Y-132841546D01*
%TO.N,P115*%
X264007311Y-143278546D02*
X266457311Y-140828546D01*
X266457311Y-140828546D02*
X266457311Y-132841546D01*
X266457311Y-147991546D02*
X264007311Y-145541546D01*
X266457311Y-151841546D02*
X266457311Y-147991546D01*
X264007311Y-145541546D02*
X264007311Y-143278546D01*
%TO.N,P113*%
X247457311Y-158091546D02*
X247457311Y-151841546D01*
X244507311Y-161041546D02*
X247457311Y-158091546D01*
X244507311Y-164541546D02*
X244507311Y-161041546D01*
X247457311Y-170841546D02*
X247457311Y-167491546D01*
X247457311Y-167491546D02*
X244507311Y-164541546D01*
%TO.N,mirror_pinky_home*%
X259007311Y-158326546D02*
X254542311Y-162791546D01*
X259007311Y-154041546D02*
X259007311Y-158326546D01*
%TO.N,P115*%
X264007311Y-161041546D02*
X266007311Y-159041546D01*
X266007311Y-159041546D02*
X266007311Y-158041546D01*
X266457311Y-157591546D02*
X266457311Y-151841546D01*
X264007311Y-164541546D02*
X264007311Y-161041546D01*
X266457311Y-166991546D02*
X264007311Y-164541546D01*
X266457311Y-170841546D02*
X266457311Y-166991546D01*
X266007311Y-158041546D02*
X266457311Y-157591546D01*
%TO.N,mirror_pinky_bottom*%
X259007311Y-177326546D02*
X254542311Y-181791546D01*
X259007311Y-173041546D02*
X259007311Y-177326546D01*
%TO.N,mirror_outer_bottom*%
X278007311Y-177326546D02*
X273542311Y-181791546D01*
X278007311Y-173041546D02*
X278007311Y-177326546D01*
%TO.N,mirror_outer_home*%
X278007311Y-158326546D02*
X273542311Y-162791546D01*
X278007311Y-154041546D02*
X278007311Y-158326546D01*
%TO.N,mirror_outer_top*%
X278007311Y-139326546D02*
X273542311Y-143791546D01*
X278007311Y-135041546D02*
X278007311Y-139326546D01*
%TO.N,mirror_outer_num*%
X278007311Y-120326546D02*
X273542311Y-124791546D01*
X278007311Y-116041546D02*
X278007311Y-120326546D01*
%TO.N,mirror_middle_num*%
X214382311Y-107791546D02*
X216542311Y-107791546D01*
%TO.N,P006*%
X208922311Y-107791546D02*
X211082311Y-107791546D01*
%TO.N,mirror_middle_top*%
X214382311Y-126791546D02*
X216542311Y-126791546D01*
%TO.N,P008*%
X208922311Y-126791546D02*
X211082311Y-126791546D01*
%TO.N,mirror_middle_home*%
X214382311Y-145791546D02*
X216542311Y-145791546D01*
%TO.N,P017*%
X208922311Y-145791546D02*
X211082311Y-145791546D01*
%TO.N,mirror_middle_bottom*%
X214382311Y-164791546D02*
X216542311Y-164791546D01*
%TO.N,P020*%
X208922311Y-164791546D02*
X211082311Y-164791546D01*
%TO.N,mirror_middle_mod*%
X214382311Y-183791546D02*
X216542311Y-183791546D01*
%TO.N,P022*%
X208922311Y-183791546D02*
X211082311Y-183791546D01*
%TO.N,mirror_index_mod*%
X195382311Y-189791546D02*
X197542311Y-189791546D01*
%TO.N,P022*%
X189922311Y-189791546D02*
X192082311Y-189791546D01*
%TO.N,mirror_index_bottom*%
X195382311Y-170791546D02*
X197542311Y-170791546D01*
%TO.N,P020*%
X189922311Y-170791546D02*
X192082311Y-170791546D01*
%TO.N,mirror_index_home*%
X195382311Y-151791546D02*
X197542311Y-151791546D01*
%TO.N,P017*%
X189922311Y-151791546D02*
X192082311Y-151791546D01*
%TO.N,mirror_index_top*%
X195382311Y-132791546D02*
X197542311Y-132791546D01*
%TO.N,P008*%
X189922311Y-132791546D02*
X192082311Y-132791546D01*
%TO.N,mirror_index_num*%
X195382311Y-113791546D02*
X197542311Y-113791546D01*
%TO.N,P006*%
X189922311Y-113791546D02*
X192082311Y-113791546D01*
%TO.N,mirror_inner_num*%
X176382311Y-115791546D02*
X178542311Y-115791546D01*
%TO.N,P006*%
X170922311Y-115791546D02*
X173082311Y-115791546D01*
%TO.N,mirror_inner_top*%
X176382311Y-134791546D02*
X178542311Y-134791546D01*
%TO.N,P008*%
X170922311Y-134791546D02*
X173082311Y-134791546D01*
%TO.N,mirror_inner_home*%
X176382311Y-153791546D02*
X178542311Y-153791546D01*
%TO.N,P017*%
X170922311Y-153791546D02*
X173082311Y-153791546D01*
%TO.N,mirror_inner_bottom*%
X176382311Y-172791546D02*
X178542311Y-172791546D01*
%TO.N,P020*%
X170922311Y-172791546D02*
X173082311Y-172791546D01*
%TO.N,mirror_inner_mod_home*%
X156382311Y-167791546D02*
X158542311Y-167791546D01*
%TO.N,P017*%
X150922311Y-167791546D02*
X153082311Y-167791546D01*
%TO.N,mirror_home_cluster*%
X176549293Y-193834884D02*
X177216770Y-193167407D01*
X175162488Y-193834884D02*
X176549293Y-193834884D01*
%TO.N,P022*%
X171356525Y-195522117D02*
X172024002Y-194854640D01*
X169969720Y-195522117D02*
X171356525Y-195522117D01*
%TO.N,mirror_far_cluster*%
X147557560Y-194885633D02*
X148225037Y-195553110D01*
X147557560Y-193498828D02*
X147557560Y-194885633D01*
%TO.N,P022*%
X145870327Y-189692865D02*
X146537804Y-190360342D01*
X145870327Y-188306060D02*
X145870327Y-189692865D01*
%TD*%
M02*
