0
SECTION
2
HEADER
9
$INSUNITS
70
4
0
ENDSEC
0
SECTION
2
TABLES
0
TABLE
2
LTYPE
0
LTYPE
72
65
70
64
2
CONTINUOUS
3
______
73
0
40
0
0
ENDTAB
0
TABLE
2
LAYER
0
ENDTAB
0
ENDSEC
0
SECTION
2
ENTITIES
0
LINE
8
0
10
-8.75
20
10.75
11
8.75
21
10.75
0
LINE
8
0
10
8.75
20
10.75
11
8.75
21
27.25
0
LINE
8
0
10
8.75
20
27.25
11
-8.75
21
27.25
0
LINE
8
0
10
-8.75
20
27.25
11
-8.75
21
10.75
0
LINE
8
0
10
-8.75
20
29.75
11
8.75
21
29.75
0
LINE
8
0
10
8.75
20
29.75
11
8.75
21
46.25
0
LINE
8
0
10
8.75
20
46.25
11
-8.75
21
46.25
0
LINE
8
0
10
-8.75
20
46.25
11
-8.75
21
29.75
0
LINE
8
0
10
-8.75
20
48.75
11
8.75
21
48.75
0
LINE
8
0
10
8.75
20
48.75
11
8.75
21
65.25
0
LINE
8
0
10
8.75
20
65.25
11
-8.75
21
65.25
0
LINE
8
0
10
-8.75
20
65.25
11
-8.75
21
48.75
0
LINE
8
0
10
-8.75
20
67.75
11
8.75
21
67.75
0
LINE
8
0
10
8.75
20
67.75
11
8.75
21
84.25
0
LINE
8
0
10
8.75
20
84.25
11
-8.75
21
84.25
0
LINE
8
0
10
-8.75
20
84.25
11
-8.75
21
67.75
0
LINE
8
0
10
10.25
20
10.75
11
27.75
21
10.75
0
LINE
8
0
10
27.75
20
10.75
11
27.75
21
27.25
0
LINE
8
0
10
27.75
20
27.25
11
10.25
21
27.25
0
LINE
8
0
10
10.25
20
27.25
11
10.25
21
10.75
0
LINE
8
0
10
10.25
20
29.75
11
27.75
21
29.75
0
LINE
8
0
10
27.75
20
29.75
11
27.75
21
46.25
0
LINE
8
0
10
27.75
20
46.25
11
10.25
21
46.25
0
LINE
8
0
10
10.25
20
46.25
11
10.25
21
29.75
0
LINE
8
0
10
10.25
20
48.75
11
27.75
21
48.75
0
LINE
8
0
10
27.75
20
48.75
11
27.75
21
65.25
0
LINE
8
0
10
27.75
20
65.25
11
10.25
21
65.25
0
LINE
8
0
10
10.25
20
65.25
11
10.25
21
48.75
0
LINE
8
0
10
10.25
20
67.75
11
27.75
21
67.75
0
LINE
8
0
10
27.75
20
67.75
11
27.75
21
84.25
0
LINE
8
0
10
27.75
20
84.25
11
10.25
21
84.25
0
LINE
8
0
10
10.25
20
84.25
11
10.25
21
67.75
0
LINE
8
0
10
29.25
20
3.75
11
46.75
21
3.75
0
LINE
8
0
10
46.75
20
3.75
11
46.75
21
20.25
0
LINE
8
0
10
46.75
20
20.25
11
29.25
21
20.25
0
LINE
8
0
10
29.25
20
20.25
11
29.25
21
3.75
0
LINE
8
0
10
29.25
20
22.75
11
46.75
21
22.75
0
LINE
8
0
10
46.75
20
22.75
11
46.75
21
39.25
0
LINE
8
0
10
46.75
20
39.25
11
29.25
21
39.25
0
LINE
8
0
10
29.25
20
39.25
11
29.25
21
22.75
0
LINE
8
0
10
29.25
20
41.75
11
46.75
21
41.75
0
LINE
8
0
10
46.75
20
41.75
11
46.75
21
58.25
0
LINE
8
0
10
46.75
20
58.25
11
29.25
21
58.25
0
LINE
8
0
10
29.25
20
58.25
11
29.25
21
41.75
0
LINE
8
0
10
29.25
20
60.75
11
46.75
21
60.75
0
LINE
8
0
10
46.75
20
60.75
11
46.75
21
77.25
0
LINE
8
0
10
46.75
20
77.25
11
29.25
21
77.25
0
LINE
8
0
10
29.25
20
77.25
11
29.25
21
60.75
0
LINE
8
0
10
29.25
20
79.75
11
46.75
21
79.75
0
LINE
8
0
10
46.75
20
79.75
11
46.75
21
96.25
0
LINE
8
0
10
46.75
20
96.25
11
29.25
21
96.25
0
LINE
8
0
10
29.25
20
96.25
11
29.25
21
79.75
0
LINE
8
0
10
48.25
20
8.75
11
65.75
21
8.75
0
LINE
8
0
10
65.75
20
8.75
11
65.75
21
25.25
0
LINE
8
0
10
65.75
20
25.25
11
48.25
21
25.25
0
LINE
8
0
10
48.25
20
25.25
11
48.25
21
8.75
0
LINE
8
0
10
48.25
20
27.75
11
65.75
21
27.75
0
LINE
8
0
10
65.75
20
27.75
11
65.75
21
44.25
0
LINE
8
0
10
65.75
20
44.25
11
48.25
21
44.25
0
LINE
8
0
10
48.25
20
44.25
11
48.25
21
27.75
0
LINE
8
0
10
48.25
20
46.75
11
65.75
21
46.75
0
LINE
8
0
10
65.75
20
46.75
11
65.75
21
63.25
0
LINE
8
0
10
65.75
20
63.25
11
48.25
21
63.25
0
LINE
8
0
10
48.25
20
63.25
11
48.25
21
46.75
0
LINE
8
0
10
48.25
20
65.75
11
65.75
21
65.75
0
LINE
8
0
10
65.75
20
65.75
11
65.75
21
82.25
0
LINE
8
0
10
65.75
20
82.25
11
48.25
21
82.25
0
LINE
8
0
10
48.25
20
82.25
11
48.25
21
65.75
0
LINE
8
0
10
48.25
20
84.75
11
65.75
21
84.75
0
LINE
8
0
10
65.75
20
84.75
11
65.75
21
101.25
0
LINE
8
0
10
65.75
20
101.25
11
48.25
21
101.25
0
LINE
8
0
10
48.25
20
101.25
11
48.25
21
84.75
0
LINE
8
0
10
67.25
20
2.75
11
84.75
21
2.75
0
LINE
8
0
10
84.75
20
2.75
11
84.75
21
19.25
0
LINE
8
0
10
84.75
20
19.25
11
67.25
21
19.25
0
LINE
8
0
10
67.25
20
19.25
11
67.25
21
2.75
0
LINE
8
0
10
67.25
20
21.75
11
84.75
21
21.75
0
LINE
8
0
10
84.75
20
21.75
11
84.75
21
38.25
0
LINE
8
0
10
84.75
20
38.25
11
67.25
21
38.25
0
LINE
8
0
10
67.25
20
38.25
11
67.25
21
21.75
0
LINE
8
0
10
67.25
20
40.75
11
84.75
21
40.75
0
LINE
8
0
10
84.75
20
40.75
11
84.75
21
57.25
0
LINE
8
0
10
84.75
20
57.25
11
67.25
21
57.25
0
LINE
8
0
10
67.25
20
57.25
11
67.25
21
40.75
0
LINE
8
0
10
67.25
20
59.75
11
84.75
21
59.75
0
LINE
8
0
10
84.75
20
59.75
11
84.75
21
76.25
0
LINE
8
0
10
84.75
20
76.25
11
67.25
21
76.25
0
LINE
8
0
10
67.25
20
76.25
11
67.25
21
59.75
0
LINE
8
0
10
67.25
20
78.75
11
84.75
21
78.75
0
LINE
8
0
10
84.75
20
78.75
11
84.75
21
95.25
0
LINE
8
0
10
84.75
20
95.25
11
67.25
21
95.25
0
LINE
8
0
10
67.25
20
95.25
11
67.25
21
78.75
0
LINE
8
0
10
86.25
20
19.75
11
103.75
21
19.75
0
LINE
8
0
10
103.75
20
19.75
11
103.75
21
36.25
0
LINE
8
0
10
103.75
20
36.25
11
86.25
21
36.25
0
LINE
8
0
10
86.25
20
36.25
11
86.25
21
19.75
0
LINE
8
0
10
86.25
20
38.75
11
103.75
21
38.75
0
LINE
8
0
10
103.75
20
38.75
11
103.75
21
55.25
0
LINE
8
0
10
103.75
20
55.25
11
86.25
21
55.25
0
LINE
8
0
10
86.25
20
55.25
11
86.25
21
38.75
0
LINE
8
0
10
86.25
20
57.75
11
103.75
21
57.75
0
LINE
8
0
10
103.75
20
57.75
11
103.75
21
74.25
0
LINE
8
0
10
103.75
20
74.25
11
86.25
21
74.25
0
LINE
8
0
10
86.25
20
74.25
11
86.25
21
57.75
0
LINE
8
0
10
86.25
20
76.75
11
103.75
21
76.75
0
LINE
8
0
10
103.75
20
76.75
11
103.75
21
93.25
0
LINE
8
0
10
103.75
20
93.25
11
86.25
21
93.25
0
LINE
8
0
10
86.25
20
93.25
11
86.25
21
76.75
0
LINE
8
0
10
86.1496807
20
-6.1289845
11
103.0533827
21
-10.6583178
0
LINE
8
0
10
103.0533827
20
-10.6583178
11
107.3238969
21
5.2794583
0
LINE
8
0
10
107.3238969
20
5.2794583
11
90.4201949
21
9.8087916
0
LINE
8
0
10
90.4201949
20
9.8087916
11
86.1496807
21
-6.1289845
0
LINE
8
0
10
127.1761442
20
-11.4279732
11
131.7054775
21
5.4757288
0
LINE
8
0
10
131.7054775
20
5.4757288
11
115.7677014
21
9.746243
0
LINE
8
0
10
115.7677014
20
9.746243
11
111.2383681
21
-7.157459
0
LINE
8
0
10
111.2383681
20
-7.157459
11
127.1761442
21
-11.4279732
0
ENDSEC
0
EOF