0
SECTION
2
HEADER
9
$INSUNITS
70
4
0
ENDSEC
0
SECTION
2
TABLES
0
TABLE
2
LTYPE
0
LTYPE
72
65
70
64
2
CONTINUOUS
3
______
73
0
40
0
0
ENDTAB
0
TABLE
2
LAYER
0
ENDTAB
0
ENDSEC
0
SECTION
2
ENTITIES
0
LINE
8
0
10
-10
20
9.5
11
28
21
9.5
0
LINE
8
0
10
-10
20
9.5
11
-10
21
85.5
0
LINE
8
0
10
-10
20
85.5
11
28
21
85.5
0
LINE
8
0
10
28
20
2.5
11
48
21
2.5
0
LINE
8
0
10
48
20
2.5
11
48
21
7.5
0
LINE
8
0
10
28
20
9.5
11
28
21
2.5
0
LINE
8
0
10
47
20
97.5
11
28
21
97.5
0
LINE
8
0
10
28
20
97.5
11
28
21
85.5
0
LINE
8
0
10
48
20
7.5
11
66
21
7.5
0
LINE
8
0
10
67
20
96.5
11
67
21
102.5
0
LINE
8
0
10
67
20
102.5
11
47
21
102.5
0
LINE
8
0
10
47
20
102.5
11
47
21
97.5
0
LINE
8
0
10
66
20
1.5
11
85.6417344
21
1.5
0
LINE
8
0
10
86
20
2.6026281
11
86
21
18.5
0
LINE
8
0
10
66
20
7.5
11
66
21
1.5
0
LINE
8
0
10
86
20
94.5
11
86
21
96.5
0
LINE
8
0
10
86
20
96.5
11
67
21
96.5
0
LINE
8
0
10
86
20
18.5
11
105
21
18.5
0
LINE
8
0
10
105
20
18.5
11
105
21
23.5
0
LINE
8
0
10
105
20
42.5
11
105
21
94.5
0
LINE
8
0
10
105
20
94.5
11
86
21
94.5
0
LINE
8
0
10
105
20
23.5
11
125
21
23.5
0
LINE
8
0
10
125
20
23.5
11
125
21
42.5
0
LINE
8
0
10
125
20
42.5
11
105
21
42.5
0
LINE
8
0
10
85.2379242
20
0.2572
11
104.2590545
21
-5.9231398
0
LINE
8
0
10
104.2590545
20
-5.9231398
11
105.8041395
21
-1.1678572
0
LINE
8
0
10
110.1303774
20
12.146934
11
91.1092471
21
18.3272738
0
LINE
8
0
10
91.1092471
20
18.3272738
11
86
21
2.6026281
0
LINE
8
0
10
85.6417344
20
1.5
11
85.2379242
21
0.2572
0
LINE
8
0
10
123.8742133
20
-7.0391801
11
130.0545531
21
11.9819502
0
LINE
8
0
10
130.0545531
20
11.9819502
11
111.9844793
21
17.8532731
0
LINE
8
0
10
111.9844793
20
17.8532731
11
110.1303774
21
12.146934
0
LINE
8
0
10
105.8041395
20
-1.1678572
11
123.8742133
21
-7.0391801
0
ENDSEC
0
EOF