0
SECTION
2
HEADER
9
$INSUNITS
70
4
0
ENDSEC
0
SECTION
2
TABLES
0
TABLE
2
LTYPE
0
LTYPE
72
65
70
64
2
CONTINUOUS
3
______
73
0
40
0
0
ENDTAB
0
TABLE
2
LAYER
0
ENDTAB
0
ENDSEC
0
SECTION
2
ENTITIES
0
LINE
8
0
10
-7
20
12
11
7
21
12
0
LINE
8
0
10
7
20
12
11
7
21
26
0
LINE
8
0
10
7
20
26
11
-7
21
26
0
LINE
8
0
10
-7
20
26
11
-7
21
12
0
LINE
8
0
10
-7
20
31
11
7
21
31
0
LINE
8
0
10
7
20
31
11
7
21
45
0
LINE
8
0
10
7
20
45
11
-7
21
45
0
LINE
8
0
10
-7
20
45
11
-7
21
31
0
LINE
8
0
10
-7
20
50
11
7
21
50
0
LINE
8
0
10
7
20
50
11
7
21
64
0
LINE
8
0
10
7
20
64
11
-7
21
64
0
LINE
8
0
10
-7
20
64
11
-7
21
50
0
LINE
8
0
10
-7
20
69
11
7
21
69
0
LINE
8
0
10
7
20
69
11
7
21
83
0
LINE
8
0
10
7
20
83
11
-7
21
83
0
LINE
8
0
10
-7
20
83
11
-7
21
69
0
LINE
8
0
10
12
20
12
11
26
21
12
0
LINE
8
0
10
26
20
12
11
26
21
26
0
LINE
8
0
10
26
20
26
11
12
21
26
0
LINE
8
0
10
12
20
26
11
12
21
12
0
LINE
8
0
10
12
20
31
11
26
21
31
0
LINE
8
0
10
26
20
31
11
26
21
45
0
LINE
8
0
10
26
20
45
11
12
21
45
0
LINE
8
0
10
12
20
45
11
12
21
31
0
LINE
8
0
10
12
20
50
11
26
21
50
0
LINE
8
0
10
26
20
50
11
26
21
64
0
LINE
8
0
10
26
20
64
11
12
21
64
0
LINE
8
0
10
12
20
64
11
12
21
50
0
LINE
8
0
10
12
20
69
11
26
21
69
0
LINE
8
0
10
26
20
69
11
26
21
83
0
LINE
8
0
10
26
20
83
11
12
21
83
0
LINE
8
0
10
12
20
83
11
12
21
69
0
LINE
8
0
10
31
20
5
11
45
21
5
0
LINE
8
0
10
45
20
5
11
45
21
19
0
LINE
8
0
10
45
20
19
11
31
21
19
0
LINE
8
0
10
31
20
19
11
31
21
5
0
LINE
8
0
10
31
20
24
11
45
21
24
0
LINE
8
0
10
45
20
24
11
45
21
38
0
LINE
8
0
10
45
20
38
11
31
21
38
0
LINE
8
0
10
31
20
38
11
31
21
24
0
LINE
8
0
10
31
20
43
11
45
21
43
0
LINE
8
0
10
45
20
43
11
45
21
57
0
LINE
8
0
10
45
20
57
11
31
21
57
0
LINE
8
0
10
31
20
57
11
31
21
43
0
LINE
8
0
10
31
20
62
11
45
21
62
0
LINE
8
0
10
45
20
62
11
45
21
76
0
LINE
8
0
10
45
20
76
11
31
21
76
0
LINE
8
0
10
31
20
76
11
31
21
62
0
LINE
8
0
10
31
20
81
11
45
21
81
0
LINE
8
0
10
45
20
81
11
45
21
95
0
LINE
8
0
10
45
20
95
11
31
21
95
0
LINE
8
0
10
31
20
95
11
31
21
81
0
LINE
8
0
10
50
20
10
11
64
21
10
0
LINE
8
0
10
64
20
10
11
64
21
24
0
LINE
8
0
10
64
20
24
11
50
21
24
0
LINE
8
0
10
50
20
24
11
50
21
10
0
LINE
8
0
10
50
20
29
11
64
21
29
0
LINE
8
0
10
64
20
29
11
64
21
43
0
LINE
8
0
10
64
20
43
11
50
21
43
0
LINE
8
0
10
50
20
43
11
50
21
29
0
LINE
8
0
10
50
20
48
11
64
21
48
0
LINE
8
0
10
64
20
48
11
64
21
62
0
LINE
8
0
10
64
20
62
11
50
21
62
0
LINE
8
0
10
50
20
62
11
50
21
48
0
LINE
8
0
10
50
20
67
11
64
21
67
0
LINE
8
0
10
64
20
67
11
64
21
81
0
LINE
8
0
10
64
20
81
11
50
21
81
0
LINE
8
0
10
50
20
81
11
50
21
67
0
LINE
8
0
10
50
20
86
11
64
21
86
0
LINE
8
0
10
64
20
86
11
64
21
100
0
LINE
8
0
10
64
20
100
11
50
21
100
0
LINE
8
0
10
50
20
100
11
50
21
86
0
LINE
8
0
10
69
20
4
11
83
21
4
0
LINE
8
0
10
83
20
4
11
83
21
18
0
LINE
8
0
10
83
20
18
11
69
21
18
0
LINE
8
0
10
69
20
18
11
69
21
4
0
LINE
8
0
10
69
20
23
11
83
21
23
0
LINE
8
0
10
83
20
23
11
83
21
37
0
LINE
8
0
10
83
20
37
11
69
21
37
0
LINE
8
0
10
69
20
37
11
69
21
23
0
LINE
8
0
10
69
20
42
11
83
21
42
0
LINE
8
0
10
83
20
42
11
83
21
56
0
LINE
8
0
10
83
20
56
11
69
21
56
0
LINE
8
0
10
69
20
56
11
69
21
42
0
LINE
8
0
10
69
20
61
11
83
21
61
0
LINE
8
0
10
83
20
61
11
83
21
75
0
LINE
8
0
10
83
20
75
11
69
21
75
0
LINE
8
0
10
69
20
75
11
69
21
61
0
LINE
8
0
10
69
20
80
11
83
21
80
0
LINE
8
0
10
83
20
80
11
83
21
94
0
LINE
8
0
10
83
20
94
11
69
21
94
0
LINE
8
0
10
69
20
94
11
69
21
80
0
LINE
8
0
10
88
20
21
11
102
21
21
0
LINE
8
0
10
102
20
21
11
102
21
35
0
LINE
8
0
10
102
20
35
11
88
21
35
0
LINE
8
0
10
88
20
35
11
88
21
21
0
LINE
8
0
10
88
20
40
11
102
21
40
0
LINE
8
0
10
102
20
40
11
102
21
54
0
LINE
8
0
10
102
20
54
11
88
21
54
0
LINE
8
0
10
88
20
54
11
88
21
40
0
LINE
8
0
10
88
20
59
11
102
21
59
0
LINE
8
0
10
102
20
59
11
102
21
73
0
LINE
8
0
10
102
20
73
11
88
21
73
0
LINE
8
0
10
88
20
73
11
88
21
59
0
LINE
8
0
10
88
20
78
11
102
21
78
0
LINE
8
0
10
102
20
78
11
102
21
92
0
LINE
8
0
10
102
20
92
11
88
21
92
0
LINE
8
0
10
88
20
92
11
88
21
78
0
LINE
8
0
10
108
20
26
11
122
21
26
0
LINE
8
0
10
122
20
26
11
122
21
40
0
LINE
8
0
10
122
20
40
11
108
21
40
0
LINE
8
0
10
108
20
40
11
108
21
26
0
LINE
8
0
10
88.8636362
20
1.7077903
11
102.1784275
21
-2.6184476
0
LINE
8
0
10
102.1784275
20
-2.6184476
11
106.5046654
21
10.6963437
0
LINE
8
0
10
106.5046654
20
10.6963437
11
93.1898741
21
15.0225816
0
LINE
8
0
10
93.1898741
20
15.0225816
11
88.8636362
21
1.7077903
0
LINE
8
0
10
122.423623
20
-3.4134681
11
126.7498609
21
9.9013232
0
LINE
8
0
10
126.7498609
20
9.9013232
11
113.4350696
21
14.2275611
0
LINE
8
0
10
113.4350696
20
14.2275611
11
109.1088317
21
0.9127698
0
LINE
8
0
10
109.1088317
20
0.9127698
11
122.423623
21
-3.4134681
0
ENDSEC
0
EOF